<svg viewBox="0 0 330 200" xmlns="http://www.w3.org/2000/svg"><g><g><g><g><g><line x1="60" y1="178" x2="55" y2="178" style="visibility: inherit;" fill="rgb(0, 0, 0)" stroke="rgb(204, 204, 204)" stroke-width="1px"></line><line x1="60" y1="161.81818181818184" x2="55" y2="161.81818181818184" style="visibility: inherit;" fill="rgb(0, 0, 0)" stroke="rgb(204, 204, 204)" stroke-width="1px"></line><line x1="60" y1="145.63636363636363" x2="55" y2="145.63636363636363" style="visibility: inherit;" fill="rgb(0, 0, 0)" stroke="rgb(204, 204, 204)" stroke-width="1px"></line><line x1="60" y1="129.45454545454547" x2="55" y2="129.45454545454547" style="visibility: inherit;" fill="rgb(0, 0, 0)" stroke="rgb(204, 204, 204)" stroke-width="1px"></line><line x1="60" y1="113.27272727272727" x2="55" y2="113.27272727272727" style="visibility: inherit;" fill="rgb(0, 0, 0)" stroke="rgb(204, 204, 204)" stroke-width="1px"></line><line x1="60" y1="97.09090909090908" x2="55" y2="97.09090909090908" style="visibility: inherit;" fill="rgb(0, 0, 0)" stroke="rgb(204, 204, 204)" stroke-width="1px"></line><line x1="60" y1="80.90909090909093" x2="55" y2="80.90909090909093" style="visibility: inherit;" fill="rgb(0, 0, 0)" stroke="rgb(204, 204, 204)" stroke-width="1px"></line><line x1="60" y1="64.72727272727273" x2="55" y2="64.72727272727273" style="visibility: inherit;" fill="rgb(0, 0, 0)" stroke="rgb(204, 204, 204)" stroke-width="1px"></line><line x1="60" y1="48.54545454545454" x2="55" y2="48.54545454545454" style="visibility: inherit;" fill="rgb(0, 0, 0)" stroke="rgb(204, 204, 204)" stroke-width="1px"></line><line x1="60" y1="32.36363636363633" x2="55" y2="32.36363636363633" style="visibility: inherit;" fill="rgb(0, 0, 0)" stroke="rgb(204, 204, 204)" stroke-width="1px"></line><line x1="60" y1="16.18181818181821" x2="55" y2="16.18181818181821" style="visibility: inherit;" fill="rgb(0, 0, 0)" stroke="rgb(204, 204, 204)" stroke-width="1px"></line><line x1="60" y1="0" x2="55" y2="0" style="visibility: inherit;" fill="rgb(0, 0, 0)" stroke="rgb(204, 204, 204)" stroke-width="1px"></line></g><g transform="translate(50, 0)"><text x="0" y="178" dx="0em" dy="0.3em" style="text-anchor: end; visibility: hidden; font-family: Roboto, sans-serif; font-size: 12px; font-weight: 200;" fill="rgb(50, 49, 63)" stroke="none" stroke-width="1px">0.012</text><text x="0" y="161.81818181818184" dx="0em" dy="0.3em" style="text-anchor: end; visibility: inherit; font-family: Roboto, sans-serif; font-size: 12px; font-weight: 200;" fill="rgb(50, 49, 63)" stroke="none" stroke-width="1px">0.013</text><text x="0" y="145.63636363636363" dx="0em" dy="0.3em" style="text-anchor: end; visibility: hidden; font-family: Roboto, sans-serif; font-size: 12px; font-weight: 200;" fill="rgb(50, 49, 63)" stroke="none" stroke-width="1px">0.014</text><text x="0" y="129.45454545454547" dx="0em" dy="0.3em" style="text-anchor: end; visibility: inherit; font-family: Roboto, sans-serif; font-size: 12px; font-weight: 200;" fill="rgb(50, 49, 63)" stroke="none" stroke-width="1px">0.015</text><text x="0" y="113.27272727272727" dx="0em" dy="0.3em" style="text-anchor: end; visibility: hidden; font-family: Roboto, sans-serif; font-size: 12px; font-weight: 200;" fill="rgb(50, 49, 63)" stroke="none" stroke-width="1px">0.016</text><text x="0" y="97.09090909090908" dx="0em" dy="0.3em" style="text-anchor: end; visibility: inherit; font-family: Roboto, sans-serif; font-size: 12px; font-weight: 200;" fill="rgb(50, 49, 63)" stroke="none" stroke-width="1px">0.017</text><text x="0" y="80.90909090909093" dx="0em" dy="0.3em" style="text-anchor: end; visibility: hidden; font-family: Roboto, sans-serif; font-size: 12px; font-weight: 200;" fill="rgb(50, 49, 63)" stroke="none" stroke-width="1px">0.018</text><text x="0" y="64.72727272727273" dx="0em" dy="0.3em" style="text-anchor: end; visibility: inherit; font-family: Roboto, sans-serif; font-size: 12px; font-weight: 200;" fill="rgb(50, 49, 63)" stroke="none" stroke-width="1px">0.019</text><text x="0" y="48.54545454545454" dx="0em" dy="0.3em" style="text-anchor: end; visibility: hidden; font-family: Roboto, sans-serif; font-size: 12px; font-weight: 200;" fill="rgb(50, 49, 63)" stroke="none" stroke-width="1px">0.02</text><text x="0" y="32.36363636363633" dx="0em" dy="0.3em" style="text-anchor: end; visibility: inherit; font-family: Roboto, sans-serif; font-size: 12px; font-weight: 200;" fill="rgb(50, 49, 63)" stroke="none" stroke-width="1px">0.021</text><text x="0" y="16.18181818181821" dx="0em" dy="0.3em" style="text-anchor: end; visibility: hidden; font-family: Roboto, sans-serif; font-size: 12px; font-weight: 200;" fill="rgb(50, 49, 63)" stroke="none" stroke-width="1px">0.022</text><text x="0" y="0" dx="0em" dy="0.3em" style="text-anchor: end; visibility: hidden; font-family: Roboto, sans-serif; font-size: 12px; font-weight: 200;" fill="rgb(50, 49, 63)" stroke="none" stroke-width="1px">0.023</text></g><line x1="60" y1="0" x2="60" y2="178" fill="rgb(0, 0, 0)" stroke="rgb(204, 204, 204)" stroke-width="1px"></line></g></g><g transform="translate(60, 0)" clip-path="url(#clip_0)"><clipPath id="clip_0"><rect width="270" height="178"></rect></clipPath><g><g><g><line x1="0" y1="0" x2="0" y2="178" fill="rgb(0, 0, 0)" stroke="rgb(60, 60, 60)" stroke-width="1px" opacity="0.25"></line><line x1="27" y1="0" x2="27" y2="178" fill="rgb(0, 0, 0)" stroke="rgb(60, 60, 60)" stroke-width="1px" opacity="0.25"></line><line x1="54" y1="0" x2="54" y2="178" fill="rgb(0, 0, 0)" stroke="rgb(60, 60, 60)" stroke-width="1px" opacity="0.25"></line><line x1="81" y1="0" x2="81" y2="178" fill="rgb(0, 0, 0)" stroke="rgb(60, 60, 60)" stroke-width="1px" opacity="0.25"></line><line x1="108" y1="0" x2="108" y2="178" fill="rgb(0, 0, 0)" stroke="rgb(60, 60, 60)" stroke-width="1px" opacity="0.25"></line><line x1="135" y1="0" x2="135" y2="178" fill="rgb(0, 0, 0)" stroke="rgb(60, 60, 60)" stroke-width="1px" opacity="0.25"></line><line x1="162" y1="0" x2="162" y2="178" fill="rgb(0, 0, 0)" stroke="rgb(60, 60, 60)" stroke-width="1px" opacity="0.25"></line><line x1="189" y1="0" x2="189" y2="178" fill="rgb(0, 0, 0)" stroke="rgb(60, 60, 60)" stroke-width="1px" opacity="0.25"></line><line x1="216" y1="0" x2="216" y2="178" fill="rgb(0, 0, 0)" stroke="rgb(60, 60, 60)" stroke-width="1px" opacity="0.25"></line><line x1="243" y1="0" x2="243" y2="178" fill="rgb(0, 0, 0)" stroke="rgb(60, 60, 60)" stroke-width="1px" opacity="0.25"></line><line x1="270" y1="0" x2="270" y2="178" fill="rgb(0, 0, 0)" stroke="rgb(60, 60, 60)" stroke-width="1px" opacity="0.25"></line></g><g><line x1="0" y1="178" x2="270" y2="178" fill="rgb(0, 0, 0)" stroke="rgb(60, 60, 60)" stroke-width="1px" opacity="0.25"></line><line x1="0" y1="161.81818181818184" x2="270" y2="161.81818181818184" fill="rgb(0, 0, 0)" stroke="rgb(60, 60, 60)" stroke-width="1px" opacity="0.25"></line><line x1="0" y1="145.63636363636363" x2="270" y2="145.63636363636363" fill="rgb(0, 0, 0)" stroke="rgb(60, 60, 60)" stroke-width="1px" opacity="0.25"></line><line x1="0" y1="129.45454545454547" x2="270" y2="129.45454545454547" fill="rgb(0, 0, 0)" stroke="rgb(60, 60, 60)" stroke-width="1px" opacity="0.25"></line><line x1="0" y1="113.27272727272727" x2="270" y2="113.27272727272727" fill="rgb(0, 0, 0)" stroke="rgb(60, 60, 60)" stroke-width="1px" opacity="0.25"></line><line x1="0" y1="97.09090909090908" x2="270" y2="97.09090909090908" fill="rgb(0, 0, 0)" stroke="rgb(60, 60, 60)" stroke-width="1px" opacity="0.25"></line><line x1="0" y1="80.90909090909093" x2="270" y2="80.90909090909093" fill="rgb(0, 0, 0)" stroke="rgb(60, 60, 60)" stroke-width="1px" opacity="0.25"></line><line x1="0" y1="64.72727272727273" x2="270" y2="64.72727272727273" fill="rgb(0, 0, 0)" stroke="rgb(60, 60, 60)" stroke-width="1px" opacity="0.25"></line><line x1="0" y1="48.54545454545454" x2="270" y2="48.54545454545454" fill="rgb(0, 0, 0)" stroke="rgb(60, 60, 60)" stroke-width="1px" opacity="0.25"></line><line x1="0" y1="32.36363636363633" x2="270" y2="32.36363636363633" fill="rgb(0, 0, 0)" stroke="rgb(60, 60, 60)" stroke-width="1px" opacity="0.25"></line><line x1="0" y1="16.18181818181821" x2="270" y2="16.18181818181821" fill="rgb(0, 0, 0)" stroke="rgb(60, 60, 60)" stroke-width="1px" opacity="0.25"></line><line x1="0" y1="0" x2="270" y2="0" fill="rgb(0, 0, 0)" stroke="rgb(60, 60, 60)" stroke-width="1px" opacity="0.25"></line></g></g></g><g><g><line x1="0" y1="372.1818181818182" x2="270" y2="372.1818181818182" fill="rgb(0, 0, 0)" stroke="rgb(153, 153, 153)" stroke-width="1.5px"></line></g></g><g><g><line x1="27" y1="0" x2="27" y2="178" fill="rgb(0, 0, 0)" stroke="rgb(153, 153, 153)" stroke-width="1.5px"></line></g></g><g><g><g><g><g><path stroke="rgb(0, 153, 136)" stroke-width="2px" d="M33.48,-4.551624104630029L34.02,5.357472575446181L34.56,14.190155493841155L35.1,14.829544901617195L35.64,15.560139383037034L36.18,23.21911186570385L36.720000000000006,27.806997706688612L37.260000000000005,36.353086333037446L37.800000000000004,34.63678999431356L38.339999999999996,30.98605535159052L38.879999999999995,36.816191084342776L39.419999999999995,40.29678972828753L39.96,43.5291920885117L40.5,45.48653955465484L41.04,45.06225183745711L41.58,50.1286179001364L42.12,51.31323133154697L42.660000000000004,58.478898230045765L43.2,54.24951724333504L43.74,54.39206217324002L44.28,56.997460072268076L44.82,62.64866040703888L45.36,60.9283131562392L45.900000000000006,64.11948386080704L46.44,64.64251666810306L46.98,66.71251894379196L47.519999999999996,63.37460964805231L48.059999999999995,69.2619782843136L48.6,73.081317523824L49.14,72.89194423686226L49.68,66.62543600606536L50.22,59.64860783716015L50.76,65.49123653041644L51.3,67.33512917827164L51.84,67.00354687318931L52.38,65.77294390706479L52.92,68.87421811196984L53.46,74.6507065222779L54,80.84388852442693L54.540000000000006,84.48894229781186L55.08,75.84653561533621L55.62,74.75647987746589L56.16,69.12208267019366L56.699999999999996,69.3777010189556L57.239999999999995,71.83860556872246L57.78,77.39469446838413L58.32,82.59954839137843L58.86,78.00838196660357L59.4,80.90057156532369L59.94,74.07242152828655L60.480000000000004,72.36484356746101L61.02,78.58679243882969L61.56,80.6833303812229L62.1,79.41811511123134L62.64,76.56404280513173L63.18000000000001,83.05870032220867L63.72,71.49582186124954L64.25999999999999,78.62327699368899L64.8,81.79234616624373L65.34,81.90452234058901L65.88,80.03426906910947L66.42,80.33659212043145L66.96,88.81081987009964L67.5,91.46331659796658L68.04,83.98534397985235L68.58,85.27026971023878L69.12,82.9405376121443L69.66,79.09657656309525L70.2,84.11725640661753L70.74000000000001,85.04880303688459L71.28,84.36398134774711L71.82000000000001,89.68625334371991L72.36,82.25139881164841L72.9,83.55031984551448L73.44000000000001,81.83366131703455L73.98,81.06116666421258L74.52000000000001,81.99185922485839L75.06,82.62115430190603L75.60000000000001,80.79871672982456L76.13999999999999,84.77940464048996L76.67999999999999,83.48992998509168L77.22,83.83390909010399L77.75999999999999,85.60397469310139L78.3,86.43339798796717L78.83999999999999,86.82372594499263L79.38,85.02695080196882L79.92,87.09518259119785L80.46,86.66226013945976L81,91.09112980957565L81.53999999999999,88.63094636470251L82.08,86.52789175042889L82.62,86.98024914526027L83.16,90.77762836244642L83.7,88.69155684942355L84.24,84.26450087491915L84.78,87.29664279575059L85.32000000000001,86.88916019152728L85.86,84.70790737491436L86.4,86.45793519553133L86.94,88.37929159917749L87.48,95.19254628186957L88.02000000000001,94.25383877376038L88.56,98.36651791432365L89.10000000000001,93.07987471509388L89.64,86.90518357372962L90.18,88.4398607309209L90.72,90.69726298316509L91.26,90.50877524869341L91.80000000000001,91.21577058815069L92.34,91.2753703791522L92.88,90.59200251744471L93.41999999999999,95.74609205241048L93.96,95.70580028526648L94.5,94.85433957758782L95.03999999999999,92.88072114403441L95.58,99.7854380409118L96.11999999999999,101.77416430929658L96.66,103.69506373362807L97.2,99.86910836475963L97.74,94.38464302819246L98.28,94.40528862314547L98.82,92.43043260412236L99.36,90.35235720818963L99.9,92.64795784159303L100.44,91.74616543273588L100.98,95.56984221503141L101.52,100.68499130943422L102.06,99.12518500107475L102.6,98.98102050098365L103.14,93.16479286377998L103.68,94.83600071618726L104.22,91.39670377051155L104.76,92.47972388800086L105.3,96.39300892737624L105.84,99.13513964190172L106.38000000000001,98.0010575486936L106.92,90.98148891801668L107.46000000000001,92.96680662319085L108,95.03244750723796L108.54,98.09321560062122L109.08000000000001,98.69892358214673L109.62,100.19385300969059L110.16,98.70648995195992L110.69999999999999,103.36825995700299L111.24,101.21607574854336L111.78,103.90465323999499L112.32,104.05749311751927L112.86,102.99684690008102L113.39999999999999,102.26801073999022L113.94,98.56915304170901L114.47999999999999,94.87824702055642L115.02,95.07547653138926L115.56,95.39243127358131L116.1,96.6994843515341L116.64,99.59454966977745L117.17999999999999,96.6867424863851L117.72,98.3327622717133L118.26,95.34432005969296L118.8,93.20043777821482L119.34,93.05416103134274L119.88,92.03675055028467L120.42,96.86776481689982L120.96000000000001,94.41927821790185L121.5,96.74810711953049L122.04,98.56843921517407L122.58,104.56898939540483L123.12,102.93065955272345L123.66000000000001,95.18542312293775L124.2,96.09406054876331L124.74000000000001,97.59952273449193L125.28,101.25937398308506L125.82000000000001,102.43626625016269L126.36000000000001,95.70331712388139L126.89999999999999,100.56086505220945L127.44,102.25989227318371L127.97999999999999,106.56861842711383L128.51999999999998,105.87458727437571L129.06,101.43315348325072L129.6,103.03675101685356L130.14,104.78515521903802L130.68,100.08768630267258L131.22,97.08263225482371L131.76,97.68029312350052L132.3,101.4022860075315L132.84,100.41567702834215L133.38,99.91007159145771L133.92,102.73469154179806L134.46,101.89809095943401L135,105.53002700422502L135.54,106.89321188133265L136.08,106.96981130622432L136.62,105.81339883826463L137.16,106.93391809910271L137.7,106.86417065780115L138.24,99.21835446137094L138.78,104.25744931131977L139.32,101.92323760473411L139.86,110.54775897216824L140.4,110.69520865520145L140.94,107.35006566320949L141.48000000000002,107.41132660682962L142.02,103.18842653238536L142.56,103.43694054421583L143.1,108.29128580348315L143.64000000000001,105.95389999781024L144.18,106.34823292069744L144.72,105.0545748587653L145.26000000000002,104.83487905848162L145.8,108.15785746448121L146.34,108.15626306609768L146.88000000000002,106.1511117610287L147.42000000000002,106.13204326912741L147.96,105.93730881514047L148.5,103.77660794026242L149.04000000000002,106.73490093438869L149.58,110.01938549235706L150.12,110.77491227014913L150.66000000000003,109.84555284080973L151.20000000000002,109.91871566386588L151.74,105.59590799425253L152.27999999999997,100.16570350633766L152.82,96.35219096496633L153.35999999999999,95.95815500286724L153.89999999999998,90.14874966759173L154.44,95.39558885097803L154.98,99.17232480352754L155.51999999999998,103.45297776556123L156.06,106.78541940334559L156.6,108.4269300464686L157.14,107.88022830054359L157.67999999999998,106.59216865063641L158.22,107.95044518696734L158.76,107.056465476785L159.29999999999998,102.05500416811887L159.84,101.44411460238284L160.38,98.65914055350339L160.92,99.47000100995845L161.45999999999998,101.04877835980501L162,106.55418155799448L162.54,108.99394453455723L163.07999999999998,109.20261113523725L163.62,113.3677640673638L164.16,109.39552603466038L164.7,108.15118693077021L165.24,105.59296558466714L165.78,108.29244332846665L166.32,110.0266657182863L166.85999999999999,107.14702645541426L167.4,108.37838836779007L167.94,108.66808072381014L168.48,111.93491580712836L169.02,108.78211715270632L169.56,109.8376355436418L170.1,108.55338915985664L170.64000000000001,108.13066829812541L171.18,107.80937529763965L171.72,103.45880733011815L172.26,99.88595638647146L172.8,104.35177805733632L173.34,107.40397036933435L173.88,104.42414553896884L174.42000000000002,106.71594148727944L174.96,106.58022026060905L175.5,105.07387848021101L176.04000000000002,107.74079152699852L176.58,111.00584297956223L177.12,110.31571032859688L177.66,107.8714063172101L178.20000000000002,107.49876082512547L178.74,109.8322020889959L179.28,106.27237483988054L179.82000000000002,108.96153178671726L180.36,106.43486023570028L180.9,107.74428530870472L181.44,107.96607485886297L181.98000000000002,106.43787393907782L182.52,105.56399471398964L183.06,103.59695084051896L183.60000000000002,105.71250862139065L184.14000000000001,106.20306051581207L184.68,104.63835597087049L185.22000000000003,106.87185987371755L185.76,105.73221514220893L186.29999999999998,104.07206534339865L186.83999999999997,102.78724893923926L187.38,105.61194955270916L187.92,106.00384747146246L188.45999999999998,109.14677145413127L189,112.07865915604464L189.54,113.84177038723139L190.07999999999998,108.97759664719376L190.61999999999998,110.48028061136105L191.16,108.57762195781659L191.7,111.1794647819745L192.23999999999998,113.15269419451421L192.78,107.35120535108095L193.32,109.06017976909284L193.85999999999999,104.9551829441046L194.4,100.96902824954661L194.94,105.57044184678318L195.48,106.2685494895462L196.01999999999998,106.53197098662922L196.56,110.00852223623623L197.1,110.98622924429566L197.64,105.74162173041772L198.18,114.07545598336773L198.72,112.56058366617067L199.26,111.41875485546241L199.8,108.96725116298164L200.34,109.68112428371539L200.88,107.38107412469861L201.42,107.2997829098795L201.96,107.17224375861467L202.5,109.56840229415539L203.04,113.71318588322949L203.58,114.18553506912536L204.12,114.4003798676617L204.66,114.79189912212958L205.2,115.87269933823227L205.74,117.5060904111853L206.28,115.77693274644452L206.82,117.56077903362937L207.36,115.8920790349251L207.9,117.46366338644714L208.44,112.58912053967454L208.98000000000002,110.18395307709645L209.52,109.43540940477014L210.06,108.30102187597164L210.6,104.24678123010155L211.14000000000001,102.77911005894836L211.68,97.67462203680684L212.22,102.83999619352343L212.76000000000002,108.47959936648218L213.3,109.771456337455L213.84,114.12549903941772L214.38000000000002,110.90689790058073L214.92000000000002,112.35424024185666L215.46,109.9842258645905L216,111.39924349292808L216.54000000000002,107.94782270461411L217.08,110.23763534165022L217.62,111.30830461334236L218.16000000000003,111.20836988148986L218.70000000000002,113.30625039427763L219.24,112.7644044751374L219.77999999999997,107.26776697494188L220.32,110.32612038028977L220.85999999999999,109.68895676574932L221.39999999999998,110.03130816181142L221.94,109.16566512062116L222.48,110.65758723443942L223.01999999999998,111.54168478938026L223.56,111.22796666687886L224.1,109.18074833735974L224.64,107.40546696686565L225.17999999999998,108.81767010815686L225.72,106.35756141131857L226.26,106.38573631050541L226.79999999999998,112.80428508434834L227.34,113.89334269580813L227.88,115.7020209412105L228.42,111.05081970899535L228.95999999999998,109.15031899403527L229.5,107.94305735246752L230.04,113.26038247269966L230.57999999999998,112.01428374439391L231.12,109.73197816430927L231.66,110.37981038787872L232.2,116.35555726370379L232.74,112.20396520814721L233.28,111.72916458375656L233.82,108.06066927346392L234.35999999999999,108.3980820251383L234.9,113.32300717181325L235.44,115.93518692038813L235.98,118.45320172288523L236.52,115.9166550067141L237.06,112.40052706164563L237.6,108.67246023838462L238.14000000000001,112.44077740380558L238.68,111.62209446157289L239.22,110.770663754603L239.76,109.50976499975101L240.3,104.90042418006563L240.84,108.11763644944457L241.38,109.79234414427886L241.92000000000002,106.9102596556184L242.46,106.71438938414737L243,110.43336854327401" style="fill: none;" fill="none"></path></g></g></g></g><g opacity="0.2"><g><g><g><path stroke="rgb(0, 153, 136)" stroke-width="2px" d="M32.4,-8.403126535090525L32.94,8.67662438750267L33.48,10.69492503458802L34.02,20.18876267563212L34.56,27.421875726092935L35.1,15.787877435033957L35.64,16.655515833334487L36.18,34.70432956923137L36.720000000000006,34.687661604447804L37.260000000000005,49.170917361974716L37.800000000000004,32.062502362511374L38.339999999999996,25.51015360247004L38.879999999999995,45.56120284037157L39.419999999999995,45.51761897585609L39.96,48.377757337960325L40.5,48.42254684188149L41.04,44.425822071053766L41.58,57.72815403071316L42.12,53.09014966000209L42.660000000000004,69.2273919772018L43.2,47.90544810078361L43.74,54.60587952082807L44.28,60.905556402423166L44.82,71.12546023455532L45.36,58.347792403264485L45.900000000000006,68.90623978051273L46.44,65.42706586556001L46.98,69.81752232529901L47.519999999999996,58.36774573542855L48.059999999999995,78.09303120591424L48.6,78.81032637032597L49.14,72.60788430679928L49.68,57.225673667409204L50.22,49.1833655888384L50.76,74.25517956777053L51.3,70.10096814957531L51.84,66.50617341561751L52.38,63.92703945799307L52.92,73.52612941915339L53.46,83.31543913754551L54,90.1336615275253L54.540000000000006,89.95652295784517L55.08,62.882925591685556L55.62,73.12139627066524L56.16,60.67048685929992L56.699999999999996,69.76112854209812L57.239999999999995,75.52996239337055L57.78,85.72882781787352L58.32,90.40682927586816L58.86,71.12163232944228L59.4,85.23885596340352L59.94,63.83019647273151L60.480000000000004,69.80347662622279L61.02,87.91971574588256L61.56,83.82813729481263L62.1,77.52029220624404L62.64,72.2829343459823L63.18000000000001,92.8006865978241L63.72,54.15150416981089L64.25999999999999,89.31445969234812L64.8,86.54594992507587L65.34,82.07278660210697L65.88,77.22888916189021L66.42,80.79007669741458L66.96,101.52216149460185L67.5,95.44206168976696L68.04,72.76838505268097L68.58,87.19765830581838L69.12,79.44593946500258L69.66,73.33063498952173L70.2,91.648276171901L70.74000000000001,86.44612298228525L71.28,83.33674881404096L71.82000000000001,97.66966133767907L72.36,71.09911701354115L72.9,85.49870139631359L73.44000000000001,79.2586735243147L73.98,79.90242468497969L74.52000000000001,83.38789806582712L75.06,83.56509691747753L75.60000000000001,78.06506037170237L76.13999999999999,90.7504365064881L76.67999999999999,81.55571800199421L77.22,84.34987774762241L77.75999999999999,88.25907309759747L78.3,87.67753293026577L78.83999999999999,87.40921788053079L79.38,82.33178808743304L79.92,90.1975302750414L80.46,86.01287646185267L81,97.73443431474946L81.53999999999999,84.94067119739272L82.08,83.37330982901834L82.62,87.65878523750739L83.16,96.47369718822567L83.7,85.56244957988912L84.24,77.62391691316257L84.78,91.84485567699778L85.32000000000001,86.27793628519231L85.86,81.43602814999493L86.4,89.08297692645681L86.94,91.2613262046467L87.48,105.41242830590768L88.02000000000001,92.84577751159668L88.56,104.53553662516855L89.10000000000001,85.1499099162492L89.64,77.64314686168323L90.18,90.74187646670775L90.72,94.08336636153133L91.26,90.22604364698583L91.80000000000001,92.2762635973367L92.34,91.3647700656544L92.88,89.56695072488351L93.41999999999999,103.4772263548591L93.96,95.64536263455045L94.5,93.57714851606977L95.03999999999999,89.92029349370436L95.58,110.14251338622786L96.11999999999999,104.75725371187384L96.66,106.57641287012534L97.2,94.13017531145704L97.74,86.15794502334161L98.28,94.43625701557505L98.82,89.4681485755877L99.36,87.23524411429058L99.9,96.0913587916981L100.44,90.3934768194502L100.98,101.30535738847472L101.52,108.35771495103836L102.06,96.78547553853555L102.6,98.76477375084703L103.14,84.44045140797442L103.68,97.34281249479814L104.22,86.2377583519979L104.76,94.10425406423481L105.3,102.26293648643927L105.84,103.24833571368997L106.38000000000001,96.29993440888144L106.92,80.45213597200133L107.46000000000001,95.94478318095207L108,98.13090883330865L108.54,102.68436774069612L109.08000000000001,99.60748555443503L109.62,102.43624715100634L110.16,96.4754453653639L110.69999999999999,110.36091496456754L111.24,97.98779943585396L111.78,107.93751947717233L112.32,104.28675293380563L112.86,101.40587757392363L113.39999999999999,101.17475649985401L113.94,93.02086649428713L114.47999999999999,89.34188798882745L115.02,95.37132079763846L115.56,95.86786338686943L116.1,98.66006396846338L116.64,103.93714764714241L117.17999999999999,92.3250317112966L117.72,100.80179194970565L118.26,90.86165674166246L118.8,89.9846143559976L119.34,92.83474591103466L119.88,90.51063482869756L120.42,104.11428621682255L120.96000000000001,90.74654831940477L121.5,100.24135047197342L122.04,101.29893735863946L122.58,113.56981466575103L123.12,100.47316478870131L123.66000000000001,83.56756847825916L124.2,97.45701668750155L124.74000000000001,99.85771601308477L125.28,106.74915085597472L125.82000000000001,104.2016046507792L126.36000000000001,85.60389343445951L126.89999999999999,107.84718694470145L127.44,104.80843310464513L127.97999999999999,113.0317076580091L128.51999999999998,104.83354054526849L129.06,94.77100279656322L129.6,105.4421473172578L130.14,107.40776152231477L130.68,93.04148292812435L131.22,92.57505118305032L131.76,98.57678442651574L132.3,106.98527533357795L132.84,98.93576355955817L133.38,99.15166343613105L133.92,106.97162146730857L134.46,100.64319008588791L135,110.97793107141149L135.54,108.93798919699408L136.08,107.08471044356172L136.62,104.07878013632514L137.16,108.6146969903599L137.7,106.75954949584873L138.24,87.74963016672568L138.78,111.81609158624303L139.32,98.42192004485564L139.86,123.48454102331942L140.4,110.91638317975132L140.94,102.33235117522152L141.48000000000002,107.50321802225979L142.02,96.85407642071897L142.56,103.8097115619616L143.1,115.5728036923842L143.64000000000001,102.44782128930092L144.18,106.93973230502822L144.72,103.11408776586707L145.26000000000002,104.50533535805614L145.8,113.1423250734806L146.34,108.15387146852233L146.88000000000002,103.14338480342519L147.42000000000002,106.1034405312755L147.96,105.64520713416012L148.5,100.53555662794547L149.04000000000002,111.17234042557804L149.58,114.94611232930963L150.12,111.90820243683727L150.66000000000003,108.45151369680059L151.20000000000002,110.02845989845015L151.74,99.11169648983262L152.27999999999997,92.02039677446538L152.82,90.63192215290935L153.35999999999999,95.36710105971856L153.89999999999998,81.4346416646784L154.44,103.26584762605755L154.98,104.83742873235182L155.51999999999998,109.87395720861174L156.06,111.78408186002211L156.6,110.88919601115315L157.14,107.06017568165605L157.67999999999998,104.66007917577569L158.22,109.98785999146374L158.76,105.7154959115115L159.29999999999998,94.55281220511957L159.84,100.52778025377881L160.38,94.4816794801842L160.92,100.68629169464111L161.45999999999998,103.41694438457489L162,114.81228635527872L162.54,112.65358899940145L163.07999999999998,109.51561103625731L163.62,119.61549346555364L164.16,103.43716898560524L164.7,106.28467827493493L165.24,101.75563356551258L165.78,112.34165994416583L166.32,112.62799930301578L166.85999999999999,102.82756756110625L167.4,110.2254312363538L167.94,109.10261925784023L168.48,116.83516843210566L169.02,104.05291917107321L169.56,111.42091313004494L170.1,106.62701958417892L170.64000000000001,107.49658700552853L171.18,107.32743579691108L171.72,96.93295537883584L172.26,94.52667997100137L172.8,111.05051056363367L173.34,111.98225883733141L173.88,99.95440829342061L174.42000000000002,110.15363540974529L174.96,106.3766384206035L175.5,102.81436580961402L176.04000000000002,111.74116109717977L176.58,115.90342015840791L177.12,109.28051135214893L177.66,104.20495030012997L178.20000000000002,106.93979258699851L178.74,113.33236398480155L179.28,100.9326339662075L179.82000000000002,112.99526720697229L180.36,102.64485290917484L180.9,109.70842291821134L181.44,108.2987591841004L181.98000000000002,104.14557255940004L182.52,104.25317587635733L183.06,100.64638503031297L183.60000000000002,108.88584529269826L184.14000000000001,106.93888835744424L184.68,102.291299153458L185.22000000000003,110.22211572798817L185.76,104.02274804494597L186.29999999999998,101.5818406451832L186.83999999999997,100.86002433300018L187.38,109.8490004729141L187.92,106.59169434959237L188.45999999999998,113.86115742813456L189,116.47649070891468L189.54,116.48643723401158L190.07999999999998,101.68133603713729L190.61999999999998,112.73430655761199L191.16,105.72363397749989L191.7,115.08222901821136L192.23999999999998,116.11253831332381L192.78,98.64897208593108L193.32,111.6236413961107L193.85999999999999,98.7976877066222L194.4,94.98979620770974L194.94,112.47256224263799L195.48,107.31571095369078L196.01999999999998,106.92710323225367L196.56,115.22334911064668L197.1,112.45278975638477L197.64,97.8747104596008L198.18,126.57620736279272L198.72,110.28827519037507L199.26,109.70601163939996L199.8,105.28999562426047L200.34,110.75193396481602L200.88,103.93099888617341L201.42,107.17784608765082L201.96,106.98093503171746L202.5,113.1626400974664L203.04,119.93036126684058L203.58,114.89405884796922L204.12,114.72264706546609L204.66,115.37917800383134L205.2,117.4938996623863L205.74,119.9561770206148L206.28,113.1831962493333L206.82,120.23654846440661L207.36,113.38902903686869L207.9,119.82103991373019L208.44,105.27730626951563L208.98000000000002,106.57620188322933L209.52,108.31259389628065L210.06,106.59944058277391L210.6,98.16542026129635L211.14000000000001,100.57760330221869L211.68,90.01789000359447L212.22,110.5880574285984L212.76000000000002,116.93900412592022L213.3,111.70924179391427L213.84,120.65656309236181L214.38000000000002,106.07899619232523L214.92000000000002,114.52525375377047L215.46,106.42920429869132L216,113.5217699354345L216.54000000000002,102.77069152214311L217.08,113.67235429720445L217.62,112.91430852088062L218.16000000000003,111.05846778371118L218.70000000000002,116.45307116345926L219.24,111.95163559642704L219.77999999999997,99.02281072464855L220.32,114.9136504883116L220.85999999999999,108.73321134393866L221.39999999999998,110.54483525590463L221.94,107.86720055883582L222.48,112.89547040516679L223.01999999999998,112.86783112179148L223.56,110.75738948312672L224.1,106.10992084308104L224.64,104.74254491112448L225.17999999999998,110.93597482009368L225.72,102.66739836606114L226.26,106.42799865928562L226.79999999999998,122.43210824511267L227.34,115.52692911299793L227.88,118.41503830931403L228.42,104.0740178606727L228.95999999999998,106.29956792159514L229.5,106.1321648901159L230.04,121.23637015304782L230.57999999999998,110.14513565193522L231.12,106.30851979418235L231.66,111.35155872323297L232.2,125.3191775774414L232.74,105.97657712481238L233.28,111.0169636471705L233.82,102.557926308025L234.35999999999999,108.9042011526498L234.9,120.7103948918256L235.44,119.85345654325052L235.98,122.2302239266309L236.52,112.11183493245733L237.06,107.12633514404297L237.6,103.08036000349306L238.14000000000001,118.09325315193696L238.68,110.39407004822385L239.22,109.49351769414814L239.76,107.6184168674729L240.3,97.98641295053743L240.84,112.94345485351302L241.38,112.30440568653019L241.92000000000002,102.5871329226277L242.46,106.42058397694068L243,116.01183728196405" style="fill: none;" fill="none"></path></g></g></g></g></g></g><g transform="translate(60, 178)" clip-path="url(#clip_1)"><clipPath id="clip_1"><rect width="270" height="22"></rect></clipPath><g><g><line x1="0" y1="0" x2="0" y2="5" style="visibility: inherit;" fill="rgb(0, 0, 0)" stroke="rgb(204, 204, 204)" stroke-width="1px"></line><line x1="27" y1="0" x2="27" y2="5" style="visibility: inherit;" fill="rgb(0, 0, 0)" stroke="rgb(204, 204, 204)" stroke-width="1px"></line><line x1="54" y1="0" x2="54" y2="5" style="visibility: inherit;" fill="rgb(0, 0, 0)" stroke="rgb(204, 204, 204)" stroke-width="1px"></line><line x1="81" y1="0" x2="81" y2="5" style="visibility: inherit;" fill="rgb(0, 0, 0)" stroke="rgb(204, 204, 204)" stroke-width="1px"></line><line x1="108" y1="0" x2="108" y2="5" style="visibility: inherit;" fill="rgb(0, 0, 0)" stroke="rgb(204, 204, 204)" stroke-width="1px"></line><line x1="135" y1="0" x2="135" y2="5" style="visibility: inherit;" fill="rgb(0, 0, 0)" stroke="rgb(204, 204, 204)" stroke-width="1px"></line><line x1="162" y1="0" x2="162" y2="5" style="visibility: inherit;" fill="rgb(0, 0, 0)" stroke="rgb(204, 204, 204)" stroke-width="1px"></line><line x1="189" y1="0" x2="189" y2="5" style="visibility: inherit;" fill="rgb(0, 0, 0)" stroke="rgb(204, 204, 204)" stroke-width="1px"></line><line x1="216" y1="0" x2="216" y2="5" style="visibility: inherit;" fill="rgb(0, 0, 0)" stroke="rgb(204, 204, 204)" stroke-width="1px"></line><line x1="243" y1="0" x2="243" y2="5" style="visibility: inherit;" fill="rgb(0, 0, 0)" stroke="rgb(204, 204, 204)" stroke-width="1px"></line><line x1="270" y1="0" x2="270" y2="5" style="visibility: inherit;" fill="rgb(0, 0, 0)" stroke="rgb(204, 204, 204)" stroke-width="1px"></line></g><g transform="translate(0, 8)"><text x="0" y="0" dx="0em" dy="0.95em" style="text-anchor: middle; visibility: hidden; font-family: Roboto, sans-serif; font-size: 12px; font-weight: 200;" fill="rgb(50, 49, 63)" stroke="none" stroke-width="1px">-50</text><text x="27" y="0" dx="0em" dy="0.95em" style="text-anchor: middle; visibility: inherit; font-family: Roboto, sans-serif; font-size: 12px; font-weight: 200;" fill="rgb(50, 49, 63)" stroke="none" stroke-width="1px">0</text><text x="54" y="0" dx="0em" dy="0.95em" style="text-anchor: middle; visibility: inherit; font-family: Roboto, sans-serif; font-size: 12px; font-weight: 200;" fill="rgb(50, 49, 63)" stroke="none" stroke-width="1px">50</text><text x="81" y="0" dx="0em" dy="0.95em" style="text-anchor: middle; visibility: inherit; font-family: Roboto, sans-serif; font-size: 12px; font-weight: 200;" fill="rgb(50, 49, 63)" stroke="none" stroke-width="1px">100</text><text x="108" y="0" dx="0em" dy="0.95em" style="text-anchor: middle; visibility: inherit; font-family: Roboto, sans-serif; font-size: 12px; font-weight: 200;" fill="rgb(50, 49, 63)" stroke="none" stroke-width="1px">150</text><text x="135" y="0" dx="0em" dy="0.95em" style="text-anchor: middle; visibility: inherit; font-family: Roboto, sans-serif; font-size: 12px; font-weight: 200;" fill="rgb(50, 49, 63)" stroke="none" stroke-width="1px">200</text><text x="162" y="0" dx="0em" dy="0.95em" style="text-anchor: middle; visibility: inherit; font-family: Roboto, sans-serif; font-size: 12px; font-weight: 200;" fill="rgb(50, 49, 63)" stroke="none" stroke-width="1px">250</text><text x="189" y="0" dx="0em" dy="0.95em" style="text-anchor: middle; visibility: inherit; font-family: Roboto, sans-serif; font-size: 12px; font-weight: 200;" fill="rgb(50, 49, 63)" stroke="none" stroke-width="1px">300</text><text x="216" y="0" dx="0em" dy="0.95em" style="text-anchor: middle; visibility: inherit; font-family: Roboto, sans-serif; font-size: 12px; font-weight: 200;" fill="rgb(50, 49, 63)" stroke="none" stroke-width="1px">350</text><text x="243" y="0" dx="0em" dy="0.95em" style="text-anchor: middle; visibility: inherit; font-family: Roboto, sans-serif; font-size: 12px; font-weight: 200;" fill="rgb(50, 49, 63)" stroke="none" stroke-width="1px">400</text><text x="270" y="0" dx="0em" dy="0.95em" style="text-anchor: middle; visibility: hidden; font-family: Roboto, sans-serif; font-size: 12px; font-weight: 200;" fill="rgb(50, 49, 63)" stroke="none" stroke-width="1px">450</text></g><line x1="0" y1="0" x2="270" y2="0" fill="rgb(0, 0, 0)" stroke="rgb(204, 204, 204)" stroke-width="1px"></line></g></g></g></g></svg>