<svg viewBox="0 0 330 200" xmlns="http://www.w3.org/2000/svg"><g><g><g><g><g><line x1="60" y1="178" x2="55" y2="178" style="visibility: inherit;" fill="rgb(0, 0, 0)" stroke="rgb(204, 204, 204)" stroke-width="1px"></line><line x1="60" y1="161.81818181818184" x2="55" y2="161.81818181818184" style="visibility: inherit;" fill="rgb(0, 0, 0)" stroke="rgb(204, 204, 204)" stroke-width="1px"></line><line x1="60" y1="145.63636363636363" x2="55" y2="145.63636363636363" style="visibility: inherit;" fill="rgb(0, 0, 0)" stroke="rgb(204, 204, 204)" stroke-width="1px"></line><line x1="60" y1="129.45454545454547" x2="55" y2="129.45454545454547" style="visibility: inherit;" fill="rgb(0, 0, 0)" stroke="rgb(204, 204, 204)" stroke-width="1px"></line><line x1="60" y1="113.27272727272727" x2="55" y2="113.27272727272727" style="visibility: inherit;" fill="rgb(0, 0, 0)" stroke="rgb(204, 204, 204)" stroke-width="1px"></line><line x1="60" y1="97.09090909090908" x2="55" y2="97.09090909090908" style="visibility: inherit;" fill="rgb(0, 0, 0)" stroke="rgb(204, 204, 204)" stroke-width="1px"></line><line x1="60" y1="80.90909090909093" x2="55" y2="80.90909090909093" style="visibility: inherit;" fill="rgb(0, 0, 0)" stroke="rgb(204, 204, 204)" stroke-width="1px"></line><line x1="60" y1="64.72727272727273" x2="55" y2="64.72727272727273" style="visibility: inherit;" fill="rgb(0, 0, 0)" stroke="rgb(204, 204, 204)" stroke-width="1px"></line><line x1="60" y1="48.54545454545454" x2="55" y2="48.54545454545454" style="visibility: inherit;" fill="rgb(0, 0, 0)" stroke="rgb(204, 204, 204)" stroke-width="1px"></line><line x1="60" y1="32.36363636363633" x2="55" y2="32.36363636363633" style="visibility: inherit;" fill="rgb(0, 0, 0)" stroke="rgb(204, 204, 204)" stroke-width="1px"></line><line x1="60" y1="16.18181818181821" x2="55" y2="16.18181818181821" style="visibility: inherit;" fill="rgb(0, 0, 0)" stroke="rgb(204, 204, 204)" stroke-width="1px"></line><line x1="60" y1="0" x2="55" y2="0" style="visibility: inherit;" fill="rgb(0, 0, 0)" stroke="rgb(204, 204, 204)" stroke-width="1px"></line></g><g transform="translate(50, 0)"><text x="0" y="178" dx="0em" dy="0.3em" style="text-anchor: end; visibility: hidden; font-family: Roboto, sans-serif; font-size: 12px; font-weight: 200;" fill="rgb(50, 49, 63)" stroke="none" stroke-width="1px">0.012</text><text x="0" y="161.81818181818184" dx="0em" dy="0.3em" style="text-anchor: end; visibility: inherit; font-family: Roboto, sans-serif; font-size: 12px; font-weight: 200;" fill="rgb(50, 49, 63)" stroke="none" stroke-width="1px">0.013</text><text x="0" y="145.63636363636363" dx="0em" dy="0.3em" style="text-anchor: end; visibility: hidden; font-family: Roboto, sans-serif; font-size: 12px; font-weight: 200;" fill="rgb(50, 49, 63)" stroke="none" stroke-width="1px">0.014</text><text x="0" y="129.45454545454547" dx="0em" dy="0.3em" style="text-anchor: end; visibility: inherit; font-family: Roboto, sans-serif; font-size: 12px; font-weight: 200;" fill="rgb(50, 49, 63)" stroke="none" stroke-width="1px">0.015</text><text x="0" y="113.27272727272727" dx="0em" dy="0.3em" style="text-anchor: end; visibility: hidden; font-family: Roboto, sans-serif; font-size: 12px; font-weight: 200;" fill="rgb(50, 49, 63)" stroke="none" stroke-width="1px">0.016</text><text x="0" y="97.09090909090908" dx="0em" dy="0.3em" style="text-anchor: end; visibility: inherit; font-family: Roboto, sans-serif; font-size: 12px; font-weight: 200;" fill="rgb(50, 49, 63)" stroke="none" stroke-width="1px">0.017</text><text x="0" y="80.90909090909093" dx="0em" dy="0.3em" style="text-anchor: end; visibility: hidden; font-family: Roboto, sans-serif; font-size: 12px; font-weight: 200;" fill="rgb(50, 49, 63)" stroke="none" stroke-width="1px">0.018</text><text x="0" y="64.72727272727273" dx="0em" dy="0.3em" style="text-anchor: end; visibility: inherit; font-family: Roboto, sans-serif; font-size: 12px; font-weight: 200;" fill="rgb(50, 49, 63)" stroke="none" stroke-width="1px">0.019</text><text x="0" y="48.54545454545454" dx="0em" dy="0.3em" style="text-anchor: end; visibility: hidden; font-family: Roboto, sans-serif; font-size: 12px; font-weight: 200;" fill="rgb(50, 49, 63)" stroke="none" stroke-width="1px">0.02</text><text x="0" y="32.36363636363633" dx="0em" dy="0.3em" style="text-anchor: end; visibility: inherit; font-family: Roboto, sans-serif; font-size: 12px; font-weight: 200;" fill="rgb(50, 49, 63)" stroke="none" stroke-width="1px">0.021</text><text x="0" y="16.18181818181821" dx="0em" dy="0.3em" style="text-anchor: end; visibility: hidden; font-family: Roboto, sans-serif; font-size: 12px; font-weight: 200;" fill="rgb(50, 49, 63)" stroke="none" stroke-width="1px">0.022</text><text x="0" y="0" dx="0em" dy="0.3em" style="text-anchor: end; visibility: hidden; font-family: Roboto, sans-serif; font-size: 12px; font-weight: 200;" fill="rgb(50, 49, 63)" stroke="none" stroke-width="1px">0.023</text></g><line x1="60" y1="0" x2="60" y2="178" fill="rgb(0, 0, 0)" stroke="rgb(204, 204, 204)" stroke-width="1px"></line></g></g><g transform="translate(60, 0)" clip-path="url(#clip_0)"><clipPath id="clip_0"><rect width="270" height="178"></rect></clipPath><g><g><g><line x1="0" y1="0" x2="0" y2="178" fill="rgb(0, 0, 0)" stroke="rgb(60, 60, 60)" stroke-width="1px" opacity="0.25"></line><line x1="22.5" y1="0" x2="22.5" y2="178" fill="rgb(0, 0, 0)" stroke="rgb(60, 60, 60)" stroke-width="1px" opacity="0.25"></line><line x1="45" y1="0" x2="45" y2="178" fill="rgb(0, 0, 0)" stroke="rgb(60, 60, 60)" stroke-width="1px" opacity="0.25"></line><line x1="67.5" y1="0" x2="67.5" y2="178" fill="rgb(0, 0, 0)" stroke="rgb(60, 60, 60)" stroke-width="1px" opacity="0.25"></line><line x1="90" y1="0" x2="90" y2="178" fill="rgb(0, 0, 0)" stroke="rgb(60, 60, 60)" stroke-width="1px" opacity="0.25"></line><line x1="112.5" y1="0" x2="112.5" y2="178" fill="rgb(0, 0, 0)" stroke="rgb(60, 60, 60)" stroke-width="1px" opacity="0.25"></line><line x1="135" y1="0" x2="135" y2="178" fill="rgb(0, 0, 0)" stroke="rgb(60, 60, 60)" stroke-width="1px" opacity="0.25"></line><line x1="157.5" y1="0" x2="157.5" y2="178" fill="rgb(0, 0, 0)" stroke="rgb(60, 60, 60)" stroke-width="1px" opacity="0.25"></line><line x1="180" y1="0" x2="180" y2="178" fill="rgb(0, 0, 0)" stroke="rgb(60, 60, 60)" stroke-width="1px" opacity="0.25"></line><line x1="202.5" y1="0" x2="202.5" y2="178" fill="rgb(0, 0, 0)" stroke="rgb(60, 60, 60)" stroke-width="1px" opacity="0.25"></line><line x1="225" y1="0" x2="225" y2="178" fill="rgb(0, 0, 0)" stroke="rgb(60, 60, 60)" stroke-width="1px" opacity="0.25"></line><line x1="247.5" y1="0" x2="247.5" y2="178" fill="rgb(0, 0, 0)" stroke="rgb(60, 60, 60)" stroke-width="1px" opacity="0.25"></line><line x1="270" y1="0" x2="270" y2="178" fill="rgb(0, 0, 0)" stroke="rgb(60, 60, 60)" stroke-width="1px" opacity="0.25"></line></g><g><line x1="0" y1="178" x2="270" y2="178" fill="rgb(0, 0, 0)" stroke="rgb(60, 60, 60)" stroke-width="1px" opacity="0.25"></line><line x1="0" y1="161.81818181818184" x2="270" y2="161.81818181818184" fill="rgb(0, 0, 0)" stroke="rgb(60, 60, 60)" stroke-width="1px" opacity="0.25"></line><line x1="0" y1="145.63636363636363" x2="270" y2="145.63636363636363" fill="rgb(0, 0, 0)" stroke="rgb(60, 60, 60)" stroke-width="1px" opacity="0.25"></line><line x1="0" y1="129.45454545454547" x2="270" y2="129.45454545454547" fill="rgb(0, 0, 0)" stroke="rgb(60, 60, 60)" stroke-width="1px" opacity="0.25"></line><line x1="0" y1="113.27272727272727" x2="270" y2="113.27272727272727" fill="rgb(0, 0, 0)" stroke="rgb(60, 60, 60)" stroke-width="1px" opacity="0.25"></line><line x1="0" y1="97.09090909090908" x2="270" y2="97.09090909090908" fill="rgb(0, 0, 0)" stroke="rgb(60, 60, 60)" stroke-width="1px" opacity="0.25"></line><line x1="0" y1="80.90909090909093" x2="270" y2="80.90909090909093" fill="rgb(0, 0, 0)" stroke="rgb(60, 60, 60)" stroke-width="1px" opacity="0.25"></line><line x1="0" y1="64.72727272727273" x2="270" y2="64.72727272727273" fill="rgb(0, 0, 0)" stroke="rgb(60, 60, 60)" stroke-width="1px" opacity="0.25"></line><line x1="0" y1="48.54545454545454" x2="270" y2="48.54545454545454" fill="rgb(0, 0, 0)" stroke="rgb(60, 60, 60)" stroke-width="1px" opacity="0.25"></line><line x1="0" y1="32.36363636363633" x2="270" y2="32.36363636363633" fill="rgb(0, 0, 0)" stroke="rgb(60, 60, 60)" stroke-width="1px" opacity="0.25"></line><line x1="0" y1="16.18181818181821" x2="270" y2="16.18181818181821" fill="rgb(0, 0, 0)" stroke="rgb(60, 60, 60)" stroke-width="1px" opacity="0.25"></line><line x1="0" y1="0" x2="270" y2="0" fill="rgb(0, 0, 0)" stroke="rgb(60, 60, 60)" stroke-width="1px" opacity="0.25"></line></g></g></g><g><g><line x1="0" y1="372.1818181818182" x2="270" y2="372.1818181818182" fill="rgb(0, 0, 0)" stroke="rgb(153, 153, 153)" stroke-width="1.5px"></line></g></g><g><g><line x1="22.5" y1="0" x2="22.5" y2="178" fill="rgb(0, 0, 0)" stroke="rgb(153, 153, 153)" stroke-width="1.5px"></line></g></g><g><g><g><g><g><path stroke="rgb(238, 51, 119)" stroke-width="2px" d="M25.875,-43.02279326092999L27,2.0058311965356745L28.125,33.03820407814762L29.25,47.65308056211269L30.375,62.04272504600701L31.5,72.57386420942254L32.625,81.27239122812564L33.75,86.37183070668813L34.875,88.49500660842558L36,93.67188986402708L37.125,98.67007515401296L38.25,99.93578099898788L39.375,100.39249911180089L40.5,101.95745399421729L41.625,103.2621298867591L42.75,104.79505527547384L43.875,105.94239768466319L45,108.79795033820784L46.125,109.64948955455456L47.25,110.44966194240581L48.375,111.99968766191904L49.5,111.58626901670458L50.625,114.82811502624492L51.75,116.1864732310512L52.875,116.96531745179311L54,115.27869912752537L55.125,115.17527487393534L56.25,116.05592206227522L57.375,117.31721854261015L58.5,118.04501275011737L59.625,116.30840354108636L60.75,118.70934644901385L61.875,119.76463801464138L63,122.11927312917526L64.125,123.01271294874562L65.25,122.37056572336948L66.375,120.42942384595642L67.5,123.35364065933155L68.625,122.84625859764284L69.75,121.57044569126296L70.875,123.9502420866787L72,124.54486033269657L73.125,125.07396537690775L74.25,126.13449411015385L75.375,126.9470818593738L76.5,126.19253656754647L77.625,126.68668844071277L78.75,126.12358278113673L79.875,123.2314155713173L81,125.00873962570826L82.125,125.29771968496193L83.25,126.51905552013261L84.375,128.0529019269622L85.5,128.469415260803L86.625,127.86724363933702L87.75,128.45503206300617L88.875,128.27681386130865L90,126.77249261532909L91.125,129.9795568816996L92.25,130.85013291112136L93.375,130.5307312367109L94.5,130.37267934590696L95.625,130.76185215083652L96.75,131.04790362729094L97.875,130.386238753334L99,129.71361257622937L100.125,129.43334364018295L101.25,129.2489664285486L102.375,128.53124640703288L103.5,128.54434997738545L104.625,129.75279386797416L105.75,129.64074859377885L106.875,129.59224500923187L108,128.92356321018238L109.125,129.18587174947385L110.25,129.8311128303618L111.375,131.77701058191232L112.5,131.34179029151736L113.625,131.60453255183822L114.75,131.5500516827977L115.875,134.20017607968958L117,133.24286727394895L118.125,133.50212135756482L119.25,131.66170160244226L120.375,130.94459864712493L121.5,131.37552510141467L122.625,131.33724652411206L123.75,131.21904592107552L124.875,132.3775642868058L126,132.66876199255177L127.125,133.16465089727944L128.25,134.4121678098248L129.375,134.90869329336704L130.5,134.34444378809368L131.625,135.6726182249235L132.75,135.62131336774348L133.875,132.94136090273483L135,135.27512498126413L136.125,135.32661051245486L137.25,133.33285349261303L138.375,130.94137057129194L139.5,131.36013934834446L140.625,134.17745941284576L141.75,134.2942147300656L142.875,133.36287588643034L144,134.89090177115364L145.125,134.14350692015464L146.25,134.81358991178453L147.375,136.22101035076835L148.5,135.03101242723415L149.625,135.59394253685576L150.75,137.15235624711053L151.875,136.84552957524153L153,134.2236909757973L154.125,136.04812185872754L155.25,135.5720251451843L156.375,134.17791430386657L157.5,134.32730516930073L158.625,136.1164994177689L159.75,135.2523725960047L160.875,134.34342004043023L162,134.75581447915803L163.125,134.76822982484768L164.25,135.35536251490842L165.375,133.90792993430702L166.5,133.8335527241059L167.625,135.4741872438415L168.75,137.1862858727567L169.875,135.76340245249554L171,136.08776897380002L172.125,137.30759229881207L173.25,135.34400210534932L174.375,136.63419574190783L175.5,138.58833149215616L176.625,139.07394208829587L177.75,137.4925646443426L178.875,135.37767388577814L180,136.25245671690115L181.125,137.70048450850717L182.25,138.1665030862288L183.375,139.28246026038778L184.5,139.19052257526795L185.625,138.17105942654482L186.75,138.04018450410075L187.875,138.3532331450094L189,139.4719304864862L190.125,138.56641367661868L191.25,136.1382853104131L192.375,136.82127355905027L193.5,139.6094253356284L194.625,139.69629776339795L195.75,137.78576083154664L196.875,138.59463012483067L198,138.68362788716763L199.125,138.20027588115926L200.25,138.07719148146822L201.375,137.7646604085103L202.5,139.67845068490232L203.625,142.01630513953782L204.75,145.37578262413837L205.875,144.9708707109247L207,145.13089044975527L208.125,144.88146851873407L209.25,145.43020609865192L210.375,146.50897055232832L211.5,145.64008944631024L212.625,144.66328829982305L213.75,146.01154150260723L214.875,146.00498084568196L216,145.42560481958787L217.125,145.1611803793177L218.25,146.6162137776934L219.375,146.78983636928444L220.5,146.96161615391281L221.625,146.5912294300777L222.75,146.97060543101594L223.875,144.95123264562935L225,145.16275778526088L226.125,144.7612471457255L227.25,146.73056111788347L228.375,146.3044172973045L229.5,144.03445116528974L230.625,144.70159274683226L231.75,144.86240756880377L232.875,144.95707594648408L234,146.0005240371279L235.125,146.28004992894134L236.25,144.79356791746065L237.375,145.30126329925162L238.5,144.1589806211707L239.625,145.3986916225601L240.75,145.08258636808358L241.875,146.23296730202742L243,147.62578222605606L244.125,147.41025609806624L245.25,147.30422734639313L246.375,146.98112635430093L247.5,146.71132856107863L248.625,148.01718926942794" style="fill: none;" fill="none"></path></g></g></g></g><g opacity="0.2"><g><g><g><path stroke="rgb(238, 51, 119)" stroke-width="2px" d="M24.75,-8.186171724037687L25.875,35.88205842267382L27,54.95949355851519L28.125,73.5540701123801L29.25,67.8707160949707L30.375,82.62014689228751L31.5,87.92836620861834L32.625,94.10102897882462L33.75,93.94390402327883L34.875,91.66051341186869L36,101.40904237736356L37.125,106.15103314681487L38.25,101.83186011693694L39.375,101.07703942602332L40.5,104.30378259041093L41.625,105.21859163045883L42.75,107.09405414895578L43.875,107.66323651237921L45,113.08101830970156L46.125,110.9267516786402L47.25,111.64989419416948L48.375,114.32469563863494L49.5,110.96614594622092L50.625,119.69086099890144L51.75,118.2240047454834L52.875,118.13358179005711L54,112.7487742304802L55.125,115.02013858881863L56.25,117.37689235806465L57.375,119.20916284485297L58.5,119.13670391657136L59.625,113.70348993485625L60.75,122.31076063893057L61.875,121.34757531772959L63,125.65122574025935L64.125,124.35287266427821L65.25,121.40734489126639L66.375,117.51771104064854L67.5,127.7399658696218L68.625,122.0851855061271L69.75,119.65672633322804L70.875,127.51993667808445L72,125.43678770146586L73.125,125.86762294308706L74.25,127.72528720985758L75.375,128.16596348312768L76.5,125.06071862984788L77.625,127.42791625044562L78.75,125.27892429178412L79.875,118.8931647566232L81,127.67472570728171L82.125,125.73118977384134L83.25,128.35105927288532L84.375,130.35367153720424L85.5,129.0941852615638L86.625,126.96398620713842L87.75,129.33671469850972L88.875,128.00948655876246L90,124.51601074635983L91.125,134.79015328125521L92.25,132.15599695525387L93.375,130.05162872509524L94.5,130.13560150970113L95.625,131.34561135823077L96.75,131.47698084197262L97.875,129.39374144239858L99,128.70467331057247L100.125,129.01294023611328L101.25,128.97240061109719L102.375,127.45466637475924L103.5,128.56400533291426L104.625,131.56545970385727L105.75,129.47268068248576L106.875,129.51948963241145L108,127.92054051160812L109.125,129.5793345584111L110.25,130.79897445169362L111.375,134.69585720923814L112.5,130.68895985592496L113.625,131.9986459423195L114.75,131.46833037923682L115.875,138.1753626750274L117,131.80690406533805L118.125,133.89100248298863L119.25,128.9010719697584L120.375,129.86894421414897L121.5,132.02191478284922L122.625,131.27982865815815L123.75,131.04174501652068L124.875,134.11534183540127L126,133.10555855117062L127.125,133.90848425437105L128.25,136.2834431786429L129.375,135.6534815186804L130.5,133.49806953018364L131.625,137.66487988016823L132.75,135.54435608197343L133.875,128.92143220522186L135,138.77577109905806L136.125,135.40383880924094L137.25,130.3422179628502L138.375,127.35414618931033L139.5,131.9882925139232L140.625,138.4034395095977L141.75,134.46934770589525L142.875,131.9658676209775L144,137.18294059823862L145.125,133.02241464365613L146.25,135.8187143992294L147.375,138.33214100924405L148.5,133.2460155419328L149.625,136.43833770128813L150.75,139.48997681249273L151.875,136.38528956743804L153,130.29093307663095L154.125,138.784768183123L155.25,134.8578800748695L156.375,132.08674804188988L157.5,134.55139146745205L158.625,138.80029079047117L159.75,133.9561823633584L160.875,132.97999120706862L162,135.37440613724968L163.125,134.78685284338215L164.25,136.2360615499995L165.375,131.73678106340495L166.5,133.7219869088043L167.625,137.93513902344486L168.75,139.7544338161295L169.875,133.62907732210377L171,136.57431875575674L172.125,139.13732728633013L173.25,132.3986168151552L174.375,138.56948619674554L175.5,141.51953511752865L176.625,139.80235798250547L177.75,135.12049847841263L178.875,132.20533774793148L180,137.56463096358559L181.125,139.87252619591627L182.25,138.86553095281124L183.375,140.9563960216262L184.5,139.05261604758826L185.625,136.6418647034602L186.75,137.84387212043458L187.875,138.82280610637233L189,141.14997649870136L190.125,137.2081384618174L191.25,132.49609276110476L192.375,137.84575593200597L193.5,143.79165300049564L194.625,139.82660640505227L195.75,134.91995543376967L196.875,139.80793406475675L198,138.81712453067303L199.125,137.4752478721467L200.25,137.89256488193166L201.375,137.2958637990735L202.5,142.54913609949025L203.625,145.5230868214911L204.75,150.4149988510392L205.875,144.36350284110418L207,145.3709200580012L208.125,144.50733562220228L209.25,146.25331246852875L210.375,148.1271172328429L211.5,144.33676778728312L212.625,143.19808658009228L213.75,148.03392130678353L214.875,145.99513986029407L216,144.55654078044674L217.125,144.7645437189124L218.25,148.7987638752569L219.375,147.05027025667104L220.5,147.21928583085537L221.625,146.03564934432507L222.75,147.53966943242332L223.875,141.9221734675494L225,145.48004549470815L226.125,144.15898118642244L227.25,149.68453207612038L228.375,145.66520156643608L229.5,140.62950196726754L230.625,145.70230511914602L231.75,145.10362980176103L232.875,145.09907851300457L234,147.56569617309353L235.125,146.69933876666155L236.25,142.56384490023962L237.375,146.0628063719381L238.5,142.44555660404941L239.625,147.25825812464413L240.75,144.60842848636887L241.875,147.95853870294312L243,149.71500461209905L244.125,147.08696690608156L245.25,147.14518421888351L246.375,146.49647486616266L247.5,146.30663187124512L248.625,149.97598033195194" style="fill: none;" fill="none"></path></g></g></g></g></g></g><g transform="translate(60, 178)" clip-path="url(#clip_1)"><clipPath id="clip_1"><rect width="270" height="22"></rect></clipPath><g><g><line x1="0" y1="0" x2="0" y2="5" style="visibility: inherit;" fill="rgb(0, 0, 0)" stroke="rgb(204, 204, 204)" stroke-width="1px"></line><line x1="22.5" y1="0" x2="22.5" y2="5" style="visibility: inherit;" fill="rgb(0, 0, 0)" stroke="rgb(204, 204, 204)" stroke-width="1px"></line><line x1="45" y1="0" x2="45" y2="5" style="visibility: inherit;" fill="rgb(0, 0, 0)" stroke="rgb(204, 204, 204)" stroke-width="1px"></line><line x1="67.5" y1="0" x2="67.5" y2="5" style="visibility: inherit;" fill="rgb(0, 0, 0)" stroke="rgb(204, 204, 204)" stroke-width="1px"></line><line x1="90" y1="0" x2="90" y2="5" style="visibility: inherit;" fill="rgb(0, 0, 0)" stroke="rgb(204, 204, 204)" stroke-width="1px"></line><line x1="112.5" y1="0" x2="112.5" y2="5" style="visibility: inherit;" fill="rgb(0, 0, 0)" stroke="rgb(204, 204, 204)" stroke-width="1px"></line><line x1="135" y1="0" x2="135" y2="5" style="visibility: inherit;" fill="rgb(0, 0, 0)" stroke="rgb(204, 204, 204)" stroke-width="1px"></line><line x1="157.5" y1="0" x2="157.5" y2="5" style="visibility: inherit;" fill="rgb(0, 0, 0)" stroke="rgb(204, 204, 204)" stroke-width="1px"></line><line x1="180" y1="0" x2="180" y2="5" style="visibility: inherit;" fill="rgb(0, 0, 0)" stroke="rgb(204, 204, 204)" stroke-width="1px"></line><line x1="202.5" y1="0" x2="202.5" y2="5" style="visibility: inherit;" fill="rgb(0, 0, 0)" stroke="rgb(204, 204, 204)" stroke-width="1px"></line><line x1="225" y1="0" x2="225" y2="5" style="visibility: inherit;" fill="rgb(0, 0, 0)" stroke="rgb(204, 204, 204)" stroke-width="1px"></line><line x1="247.5" y1="0" x2="247.5" y2="5" style="visibility: inherit;" fill="rgb(0, 0, 0)" stroke="rgb(204, 204, 204)" stroke-width="1px"></line><line x1="270" y1="0" x2="270" y2="5" style="visibility: inherit;" fill="rgb(0, 0, 0)" stroke="rgb(204, 204, 204)" stroke-width="1px"></line></g><g transform="translate(0, 8)"><text x="0" y="0" dx="0em" dy="0.95em" style="text-anchor: middle; visibility: hidden; font-family: Roboto, sans-serif; font-size: 12px; font-weight: 200;" fill="rgb(50, 49, 63)" stroke="none" stroke-width="1px">-20</text><text x="22.5" y="0" dx="0em" dy="0.95em" style="text-anchor: middle; visibility: inherit; font-family: Roboto, sans-serif; font-size: 12px; font-weight: 200;" fill="rgb(50, 49, 63)" stroke="none" stroke-width="1px">0</text><text x="45" y="0" dx="0em" dy="0.95em" style="text-anchor: middle; visibility: hidden; font-family: Roboto, sans-serif; font-size: 12px; font-weight: 200;" fill="rgb(50, 49, 63)" stroke="none" stroke-width="1px">20</text><text x="67.5" y="0" dx="0em" dy="0.95em" style="text-anchor: middle; visibility: inherit; font-family: Roboto, sans-serif; font-size: 12px; font-weight: 200;" fill="rgb(50, 49, 63)" stroke="none" stroke-width="1px">40</text><text x="90" y="0" dx="0em" dy="0.95em" style="text-anchor: middle; visibility: hidden; font-family: Roboto, sans-serif; font-size: 12px; font-weight: 200;" fill="rgb(50, 49, 63)" stroke="none" stroke-width="1px">60</text><text x="112.5" y="0" dx="0em" dy="0.95em" style="text-anchor: middle; visibility: inherit; font-family: Roboto, sans-serif; font-size: 12px; font-weight: 200;" fill="rgb(50, 49, 63)" stroke="none" stroke-width="1px">80</text><text x="135" y="0" dx="0em" dy="0.95em" style="text-anchor: middle; visibility: hidden; font-family: Roboto, sans-serif; font-size: 12px; font-weight: 200;" fill="rgb(50, 49, 63)" stroke="none" stroke-width="1px">100</text><text x="157.5" y="0" dx="0em" dy="0.95em" style="text-anchor: middle; visibility: inherit; font-family: Roboto, sans-serif; font-size: 12px; font-weight: 200;" fill="rgb(50, 49, 63)" stroke="none" stroke-width="1px">120</text><text x="180" y="0" dx="0em" dy="0.95em" style="text-anchor: middle; visibility: hidden; font-family: Roboto, sans-serif; font-size: 12px; font-weight: 200;" fill="rgb(50, 49, 63)" stroke="none" stroke-width="1px">140</text><text x="202.5" y="0" dx="0em" dy="0.95em" style="text-anchor: middle; visibility: inherit; font-family: Roboto, sans-serif; font-size: 12px; font-weight: 200;" fill="rgb(50, 49, 63)" stroke="none" stroke-width="1px">160</text><text x="225" y="0" dx="0em" dy="0.95em" style="text-anchor: middle; visibility: hidden; font-family: Roboto, sans-serif; font-size: 12px; font-weight: 200;" fill="rgb(50, 49, 63)" stroke="none" stroke-width="1px">180</text><text x="247.5" y="0" dx="0em" dy="0.95em" style="text-anchor: middle; visibility: inherit; font-family: Roboto, sans-serif; font-size: 12px; font-weight: 200;" fill="rgb(50, 49, 63)" stroke="none" stroke-width="1px">200</text><text x="270" y="0" dx="0em" dy="0.95em" style="text-anchor: middle; visibility: hidden; font-family: Roboto, sans-serif; font-size: 12px; font-weight: 200;" fill="rgb(50, 49, 63)" stroke="none" stroke-width="1px">220</text></g><line x1="0" y1="0" x2="270" y2="0" fill="rgb(0, 0, 0)" stroke="rgb(204, 204, 204)" stroke-width="1px"></line></g></g></g></g></svg>