<svg viewBox="0 0 330 200" xmlns="http://www.w3.org/2000/svg"><g><g><g><g><g><line x1="60" y1="178" x2="55" y2="178" style="visibility: inherit;" fill="rgb(0, 0, 0)" stroke="rgb(204, 204, 204)" stroke-width="1px"></line><line x1="60" y1="161.81818181818184" x2="55" y2="161.81818181818184" style="visibility: inherit;" fill="rgb(0, 0, 0)" stroke="rgb(204, 204, 204)" stroke-width="1px"></line><line x1="60" y1="145.63636363636363" x2="55" y2="145.63636363636363" style="visibility: inherit;" fill="rgb(0, 0, 0)" stroke="rgb(204, 204, 204)" stroke-width="1px"></line><line x1="60" y1="129.45454545454547" x2="55" y2="129.45454545454547" style="visibility: inherit;" fill="rgb(0, 0, 0)" stroke="rgb(204, 204, 204)" stroke-width="1px"></line><line x1="60" y1="113.27272727272727" x2="55" y2="113.27272727272727" style="visibility: inherit;" fill="rgb(0, 0, 0)" stroke="rgb(204, 204, 204)" stroke-width="1px"></line><line x1="60" y1="97.09090909090908" x2="55" y2="97.09090909090908" style="visibility: inherit;" fill="rgb(0, 0, 0)" stroke="rgb(204, 204, 204)" stroke-width="1px"></line><line x1="60" y1="80.90909090909093" x2="55" y2="80.90909090909093" style="visibility: inherit;" fill="rgb(0, 0, 0)" stroke="rgb(204, 204, 204)" stroke-width="1px"></line><line x1="60" y1="64.72727272727273" x2="55" y2="64.72727272727273" style="visibility: inherit;" fill="rgb(0, 0, 0)" stroke="rgb(204, 204, 204)" stroke-width="1px"></line><line x1="60" y1="48.54545454545454" x2="55" y2="48.54545454545454" style="visibility: inherit;" fill="rgb(0, 0, 0)" stroke="rgb(204, 204, 204)" stroke-width="1px"></line><line x1="60" y1="32.36363636363633" x2="55" y2="32.36363636363633" style="visibility: inherit;" fill="rgb(0, 0, 0)" stroke="rgb(204, 204, 204)" stroke-width="1px"></line><line x1="60" y1="16.18181818181821" x2="55" y2="16.18181818181821" style="visibility: inherit;" fill="rgb(0, 0, 0)" stroke="rgb(204, 204, 204)" stroke-width="1px"></line><line x1="60" y1="0" x2="55" y2="0" style="visibility: inherit;" fill="rgb(0, 0, 0)" stroke="rgb(204, 204, 204)" stroke-width="1px"></line></g><g transform="translate(50, 0)"><text x="0" y="178" dx="0em" dy="0.3em" style="text-anchor: end; visibility: hidden; font-family: Roboto, sans-serif; font-size: 12px; font-weight: 200;" fill="rgb(50, 49, 63)" stroke="none" stroke-width="1px">0.012</text><text x="0" y="161.81818181818184" dx="0em" dy="0.3em" style="text-anchor: end; visibility: inherit; font-family: Roboto, sans-serif; font-size: 12px; font-weight: 200;" fill="rgb(50, 49, 63)" stroke="none" stroke-width="1px">0.013</text><text x="0" y="145.63636363636363" dx="0em" dy="0.3em" style="text-anchor: end; visibility: hidden; font-family: Roboto, sans-serif; font-size: 12px; font-weight: 200;" fill="rgb(50, 49, 63)" stroke="none" stroke-width="1px">0.014</text><text x="0" y="129.45454545454547" dx="0em" dy="0.3em" style="text-anchor: end; visibility: inherit; font-family: Roboto, sans-serif; font-size: 12px; font-weight: 200;" fill="rgb(50, 49, 63)" stroke="none" stroke-width="1px">0.015</text><text x="0" y="113.27272727272727" dx="0em" dy="0.3em" style="text-anchor: end; visibility: hidden; font-family: Roboto, sans-serif; font-size: 12px; font-weight: 200;" fill="rgb(50, 49, 63)" stroke="none" stroke-width="1px">0.016</text><text x="0" y="97.09090909090908" dx="0em" dy="0.3em" style="text-anchor: end; visibility: inherit; font-family: Roboto, sans-serif; font-size: 12px; font-weight: 200;" fill="rgb(50, 49, 63)" stroke="none" stroke-width="1px">0.017</text><text x="0" y="80.90909090909093" dx="0em" dy="0.3em" style="text-anchor: end; visibility: hidden; font-family: Roboto, sans-serif; font-size: 12px; font-weight: 200;" fill="rgb(50, 49, 63)" stroke="none" stroke-width="1px">0.018</text><text x="0" y="64.72727272727273" dx="0em" dy="0.3em" style="text-anchor: end; visibility: inherit; font-family: Roboto, sans-serif; font-size: 12px; font-weight: 200;" fill="rgb(50, 49, 63)" stroke="none" stroke-width="1px">0.019</text><text x="0" y="48.54545454545454" dx="0em" dy="0.3em" style="text-anchor: end; visibility: hidden; font-family: Roboto, sans-serif; font-size: 12px; font-weight: 200;" fill="rgb(50, 49, 63)" stroke="none" stroke-width="1px">0.02</text><text x="0" y="32.36363636363633" dx="0em" dy="0.3em" style="text-anchor: end; visibility: inherit; font-family: Roboto, sans-serif; font-size: 12px; font-weight: 200;" fill="rgb(50, 49, 63)" stroke="none" stroke-width="1px">0.021</text><text x="0" y="16.18181818181821" dx="0em" dy="0.3em" style="text-anchor: end; visibility: hidden; font-family: Roboto, sans-serif; font-size: 12px; font-weight: 200;" fill="rgb(50, 49, 63)" stroke="none" stroke-width="1px">0.022</text><text x="0" y="0" dx="0em" dy="0.3em" style="text-anchor: end; visibility: hidden; font-family: Roboto, sans-serif; font-size: 12px; font-weight: 200;" fill="rgb(50, 49, 63)" stroke="none" stroke-width="1px">0.023</text></g><line x1="60" y1="0" x2="60" y2="178" fill="rgb(0, 0, 0)" stroke="rgb(204, 204, 204)" stroke-width="1px"></line></g></g><g transform="translate(60, 0)" clip-path="url(#clip_0)"><clipPath id="clip_0"><rect width="270" height="178"></rect></clipPath><g><g><g><line x1="0" y1="0" x2="0" y2="178" fill="rgb(0, 0, 0)" stroke="rgb(60, 60, 60)" stroke-width="1px" opacity="0.25"></line><line x1="22.5" y1="0" x2="22.5" y2="178" fill="rgb(0, 0, 0)" stroke="rgb(60, 60, 60)" stroke-width="1px" opacity="0.25"></line><line x1="45" y1="0" x2="45" y2="178" fill="rgb(0, 0, 0)" stroke="rgb(60, 60, 60)" stroke-width="1px" opacity="0.25"></line><line x1="67.5" y1="0" x2="67.5" y2="178" fill="rgb(0, 0, 0)" stroke="rgb(60, 60, 60)" stroke-width="1px" opacity="0.25"></line><line x1="90" y1="0" x2="90" y2="178" fill="rgb(0, 0, 0)" stroke="rgb(60, 60, 60)" stroke-width="1px" opacity="0.25"></line><line x1="112.5" y1="0" x2="112.5" y2="178" fill="rgb(0, 0, 0)" stroke="rgb(60, 60, 60)" stroke-width="1px" opacity="0.25"></line><line x1="135" y1="0" x2="135" y2="178" fill="rgb(0, 0, 0)" stroke="rgb(60, 60, 60)" stroke-width="1px" opacity="0.25"></line><line x1="157.5" y1="0" x2="157.5" y2="178" fill="rgb(0, 0, 0)" stroke="rgb(60, 60, 60)" stroke-width="1px" opacity="0.25"></line><line x1="180" y1="0" x2="180" y2="178" fill="rgb(0, 0, 0)" stroke="rgb(60, 60, 60)" stroke-width="1px" opacity="0.25"></line><line x1="202.5" y1="0" x2="202.5" y2="178" fill="rgb(0, 0, 0)" stroke="rgb(60, 60, 60)" stroke-width="1px" opacity="0.25"></line><line x1="225" y1="0" x2="225" y2="178" fill="rgb(0, 0, 0)" stroke="rgb(60, 60, 60)" stroke-width="1px" opacity="0.25"></line><line x1="247.5" y1="0" x2="247.5" y2="178" fill="rgb(0, 0, 0)" stroke="rgb(60, 60, 60)" stroke-width="1px" opacity="0.25"></line><line x1="270" y1="0" x2="270" y2="178" fill="rgb(0, 0, 0)" stroke="rgb(60, 60, 60)" stroke-width="1px" opacity="0.25"></line></g><g><line x1="0" y1="178" x2="270" y2="178" fill="rgb(0, 0, 0)" stroke="rgb(60, 60, 60)" stroke-width="1px" opacity="0.25"></line><line x1="0" y1="161.81818181818184" x2="270" y2="161.81818181818184" fill="rgb(0, 0, 0)" stroke="rgb(60, 60, 60)" stroke-width="1px" opacity="0.25"></line><line x1="0" y1="145.63636363636363" x2="270" y2="145.63636363636363" fill="rgb(0, 0, 0)" stroke="rgb(60, 60, 60)" stroke-width="1px" opacity="0.25"></line><line x1="0" y1="129.45454545454547" x2="270" y2="129.45454545454547" fill="rgb(0, 0, 0)" stroke="rgb(60, 60, 60)" stroke-width="1px" opacity="0.25"></line><line x1="0" y1="113.27272727272727" x2="270" y2="113.27272727272727" fill="rgb(0, 0, 0)" stroke="rgb(60, 60, 60)" stroke-width="1px" opacity="0.25"></line><line x1="0" y1="97.09090909090908" x2="270" y2="97.09090909090908" fill="rgb(0, 0, 0)" stroke="rgb(60, 60, 60)" stroke-width="1px" opacity="0.25"></line><line x1="0" y1="80.90909090909093" x2="270" y2="80.90909090909093" fill="rgb(0, 0, 0)" stroke="rgb(60, 60, 60)" stroke-width="1px" opacity="0.25"></line><line x1="0" y1="64.72727272727273" x2="270" y2="64.72727272727273" fill="rgb(0, 0, 0)" stroke="rgb(60, 60, 60)" stroke-width="1px" opacity="0.25"></line><line x1="0" y1="48.54545454545454" x2="270" y2="48.54545454545454" fill="rgb(0, 0, 0)" stroke="rgb(60, 60, 60)" stroke-width="1px" opacity="0.25"></line><line x1="0" y1="32.36363636363633" x2="270" y2="32.36363636363633" fill="rgb(0, 0, 0)" stroke="rgb(60, 60, 60)" stroke-width="1px" opacity="0.25"></line><line x1="0" y1="16.18181818181821" x2="270" y2="16.18181818181821" fill="rgb(0, 0, 0)" stroke="rgb(60, 60, 60)" stroke-width="1px" opacity="0.25"></line><line x1="0" y1="0" x2="270" y2="0" fill="rgb(0, 0, 0)" stroke="rgb(60, 60, 60)" stroke-width="1px" opacity="0.25"></line></g></g></g><g><g><line x1="0" y1="372.1818181818182" x2="270" y2="372.1818181818182" fill="rgb(0, 0, 0)" stroke="rgb(153, 153, 153)" stroke-width="1.5px"></line></g></g><g><g><line x1="22.5" y1="0" x2="22.5" y2="178" fill="rgb(0, 0, 0)" stroke="rgb(153, 153, 153)" stroke-width="1.5px"></line></g></g><g><g><g><g><g><path stroke="rgb(255, 112, 67)" stroke-width="2px" d="M32.625,-4.748153732271552L33.75,1.504343450314991L34.875,23.109704965674233L36,35.134713799745015L37.125,43.10347449134114L38.25,49.861654156555986L39.375,49.01685288149662L40.5,60.04947361667249L41.625,65.6645757635144L42.75,65.35563588505553L43.875,73.0553287127169L45,74.63449618137115L46.125,71.7478096701896L47.25,67.3697625475351L48.375,80.1677421145274L49.5,80.39931583752507L50.625,80.98122460246474L51.75,84.3504162707507L52.875,78.50095090319337L54,84.3989820251823L55.125,88.34102462813125L56.25,84.50839328454634L57.375,89.00949023116536L58.5,91.76675279162981L59.625,90.28858156485123L60.75,93.27744798245668L61.875,98.23451030984448L63,103.05646239837247L64.125,100.88487506537038L65.25,98.07685066010185L66.375,102.0018520779718L67.5,96.29183661553945L68.625,96.2011323103126L69.75,97.3358077608333L70.875,106.26918462410124L72,103.03000576247109L73.125,106.52700654653718L74.25,103.45635358719106L75.375,102.95284848455623L76.5,101.7137465896569L77.625,103.40730466544734L78.75,100.42113865779562L79.875,99.49582358654294L81,103.21682050067483L82.125,105.33601620664814L83.25,112.68827845215309L84.375,111.00403750005236L85.5,109.37016529965967L86.625,105.49832082358961L87.75,108.59232077720408L88.875,107.73479027799526L90,101.37926252417607L91.125,106.82430405240791L92.25,109.0162000293282L93.375,111.80858346647686L94.5,111.99667647594393L95.625,110.44238616783834L96.75,109.88055815661691L97.875,113.09547999772819L99,119.40181440277928L100.125,115.99090763861724L101.25,118.00341388002451L102.375,115.45448281579105L103.5,116.44708068606084L104.625,117.06086867603659L105.75,112.25213791840892L106.875,110.07604450586155L108,113.57323387678639L109.125,116.21989038563746L110.25,113.31638922081578L111.375,115.1436563208147L112.5,111.3808919149035L113.625,117.46720438562375L114.75,116.6667765297608L115.875,117.19057631329663L117,118.66277035322821L118.125,123.33272888157443L119.25,125.52731492239262L120.375,123.18264817936762L121.5,125.91702658977238L122.625,119.77531155429506L123.75,120.78864121236825L124.875,119.5967459666635L126,121.10638124274645L127.125,115.8803225884664L128.25,120.48749656150615L129.375,116.51004623465575L130.5,114.65238153827255L131.625,112.21434028842924L132.75,114.34500818192288L133.875,117.34468221292306L135,114.67593487928107L136.125,120.28695402423234L137.25,122.7298648805383L138.375,118.09743905479579L139.5,117.72638089253881L140.625,116.12189033396577L141.75,122.39124808660577L142.875,118.81950077114631L144,119.71820223585011L145.125,124.35626554316156L146.25,125.84583824985927L147.375,126.73864750333847L148.5,123.64229009202961L149.625,126.35561525451611L150.75,125.12573859198643L151.875,120.41319925034115L153,129.96701966301134L154.125,127.43230881600533L155.25,124.56806845903319L156.375,126.24961424298671L157.5,127.31675601206231L158.625,123.92352018801841L159.75,122.7338290488358L160.875,120.97641289576615L162,118.86315862145857L163.125,122.02457452843147L164.25,121.0897809978643L165.375,124.01367898951611L166.5,126.9892883050859L167.625,126.67745017643746L168.75,124.9782042156543L169.875,126.22936392404678L171,125.54725979477625L172.125,123.93306923877928L173.25,123.44373628697022L174.375,122.78547279304455L175.5,128.9948024023273L176.625,124.8209483025057L177.75,128.39392047943534L178.875,126.37859144321381L180,123.44161630198322L181.125,127.98689652940065L182.25,129.56909906325814L183.375,127.12947069354428L184.5,129.94373028507192L185.625,121.97963554823073L186.75,123.36781930750088L187.875,128.36925192100364L189,126.97958269100197L190.125,126.65204722403877L191.25,126.50159945374902L192.375,133.82834604878207L193.5,129.74758554181662L194.625,124.44166739501371L195.75,122.66559803371862L196.875,132.44059575348422L198,134.31198619237952L199.125,130.5340047791576L200.25,128.53507886618232L201.375,129.1172846117824L202.5,130.60464726334973L203.625,134.72310874782247L204.75,136.78231510473634L205.875,138.44125947816087L207,140.70271626770065L208.125,142.45976014476216L209.25,141.22138477452947L210.375,144.74324263982984L211.5,146.06742310111255L212.625,143.26098788295545L213.75,141.82553066701126L214.875,141.29979181224365L216,139.81570413886243L217.125,147.4146589306084L218.25,145.52956365963527L219.375,143.2210669970663L220.5,141.33363934114664L221.625,144.55264882895403L222.75,142.92794272801206L223.875,141.44197618501306L225,143.18828102507706L226.125,145.0675994554128L227.25,140.90284946825625L228.375,138.75830675630772L229.5,134.4196858195603L230.625,139.90257399011492L231.75,139.94055876678618L232.875,143.56984509717896L234,143.30315178990702L235.125,147.72442689861154L236.25,147.6867232352919L237.375,144.59846143849703L238.5,147.5770801659108L239.625,147.11077873280095L240.75,144.68656323122704L241.875,143.90428037830102L243,142.6943225488159L244.125,139.99574696571187L245.25,142.53407428863704L246.375,141.00428319965368L247.5,142.24865048199362L248.625,141.6689529694016" style="fill: none;" fill="none"></path></g></g></g></g><g opacity="0.2"><g><g><g><path stroke="rgb(255, 112, 67)" stroke-width="2px" d="M30.375,-2.503028693524281L31.5,21.654609206047912L32.625,30.539538665251296L33.75,10.788573075424532L34.875,55.321788199923255L36,53.10678748380053L37.125,55.03059614246541L38.25,59.98568367687138L39.375,47.75064400109377L40.5,76.59062366052108L41.625,74.08485286073251L42.75,64.89230450716884L43.875,84.60369498350404L45,77.00310304219073L46.125,67.41793821616606L47.25,60.80283592505888L48.375,99.36445879123427L49.5,80.74667367880994L50.625,81.85408361391588L51.75,89.40418940511616L52.875,69.72676781903613L54,93.24601965329863L55.125,94.2540849013762L56.25,78.7594483874061L57.375,95.76113415848124L58.5,95.90264608372343L59.625,88.07132490114732L60.75,97.7607473947785L61.875,105.67010358788751L63,110.28939040682532L64.125,97.6274940994653L65.25,93.86481407826597L66.375,107.88935418291526L67.5,87.7268134409731L68.625,96.0650758526542L69.75,99.03782093524933L70.875,119.66924991255458L72,98.1712374714288L73.125,111.77250772172754L74.25,98.8503741486506L75.375,102.19759083065121L76.5,99.8550937473774L77.625,105.94764177907598L78.75,95.94188964637844L79.875,98.10785097967494L81,108.7983158718456L82.125,108.514809765599L83.25,123.7166718203913L84.375,108.47767607190393L85.5,106.91935699907215L86.625,99.69055410948665L87.75,113.2333207076246L88.875,106.44849452918227L90,91.84597089344804L91.125,114.99186634475534L92.25,112.3040439947085L93.375,115.99715862219985L94.5,112.27881599014457L95.625,108.11095070567997L96.75,109.03781613978474L97.875,117.91786275939508L99,128.86131601035595L100.125,110.87454749237406L101.25,121.02217324213548L102.375,111.63108621944082L103.5,117.9359774914655L104.625,117.98155066100033L105.75,105.03904178196733L106.875,106.81190438704057L108,118.81901793317361L109.125,120.18987514891408L110.25,108.96113747358322L111.375,117.88455697081305L112.5,105.7367453060367L113.625,126.5966730917042L114.75,115.46613474596631L115.875,117.97627598860048L117,120.87106141312556L118.125,130.33766667409375L119.25,128.81919398361987L120.375,119.66564806483008L121.5,130.0185942053795L122.625,110.56273900107904L123.75,122.30863569947807L124.875,117.80890309810638L126,123.37083415687084L127.125,108.04123460704629L128.25,127.39825752106579L129.375,110.54387074438007L130.5,111.86588449369776L131.625,108.55727841366422L132.75,117.54101002216339L133.875,121.84419325942343L135,110.67281387881799L136.125,128.70348274165934L137.25,126.39423116499728L138.375,111.14880031618206L139.5,117.16979364915328L140.625,113.71515449610622L141.75,131.79528471556577L142.875,113.46187979795717L144,121.0662544329058L145.125,131.31336050412872L146.25,128.08019730990586L147.375,128.07786138355732L148.5,118.99775397506626L149.625,130.42560299824584L150.75,123.28092359819196L151.875,113.34439023787324L153,144.29775028201666L154.125,123.63024254549634L155.25,120.27170792357488L156.375,128.77193291891706L157.5,128.91746866567567L158.625,118.83366645195268L159.75,120.94929234006189L160.875,118.34028866616161L162,115.69327720999718L163.125,126.76669838889079L164.25,119.68759070201354L165.375,128.39952597699383L166.5,131.45270227844065L167.625,126.20969298346476L168.75,122.42933527447961L169.875,128.10610348663548L171,124.52410360087049L172.125,121.51178340478377L173.25,122.70973685925658L174.375,121.79807755215602L175.5,138.3087968162515L176.625,118.56016715277326L177.75,133.75337874482977L178.875,123.35559788888152L180,119.03615359013732L181.125,134.80481687052682L182.25,131.94240286404437L183.375,123.47002813897349L184.5,134.16511967236346L185.625,110.03349344296889L186.75,125.45009494640611L187.875,135.87140084125778L189,124.89507884599946L190.125,126.16074402359398L191.25,126.27592779831453L192.375,144.8184659413316L193.5,123.62644478136843L194.625,116.48279017480938L195.75,120.00149399177594L196.875,147.1030923331326L198,137.1190718507225L199.125,124.86703265932472L200.25,125.53668999671936L201.375,129.9905932301825L202.5,132.8356912407008L203.625,140.90080097453162L204.75,139.87112464010715L205.875,140.92967603829774L207,144.09490145201033L208.125,145.09532596035436L209.25,139.36382171918046L210.375,150.02602943778038L211.5,148.05369379303673L212.625,139.05133505571973L213.75,139.672344843095L214.875,140.51118353009224L216,137.58957262879068L217.125,158.81309111822736L218.25,142.70192075317556L219.375,139.75832200321284L220.5,138.5024978572672L221.625,149.38116306066513L222.75,140.49088357659903L223.875,139.21302637051454L225,145.8077382851731L226.125,147.88657710091636L227.25,134.65572448752144L228.375,135.54149268838492L229.5,127.9117544144392L230.625,148.12690624594688L231.75,139.99753593179312L232.875,149.01377459276807L234,142.90311182899907L235.125,154.3563395616683L236.25,147.6301677403125L237.375,139.96606874330476L238.5,152.04500825703144L239.625,146.41132658313623L240.75,141.05023997886613L241.875,142.73085609891197L243,140.87938580458814L244.125,135.94788359105587L245.25,146.34156527302483L246.375,138.7095965661786L247.5,144.11520140550354L248.625,140.79940670051357" style="fill: none;" fill="none"></path></g></g></g></g></g></g><g transform="translate(60, 178)" clip-path="url(#clip_1)"><clipPath id="clip_1"><rect width="270" height="22"></rect></clipPath><g><g><line x1="0" y1="0" x2="0" y2="5" style="visibility: inherit;" fill="rgb(0, 0, 0)" stroke="rgb(204, 204, 204)" stroke-width="1px"></line><line x1="22.5" y1="0" x2="22.5" y2="5" style="visibility: inherit;" fill="rgb(0, 0, 0)" stroke="rgb(204, 204, 204)" stroke-width="1px"></line><line x1="45" y1="0" x2="45" y2="5" style="visibility: inherit;" fill="rgb(0, 0, 0)" stroke="rgb(204, 204, 204)" stroke-width="1px"></line><line x1="67.5" y1="0" x2="67.5" y2="5" style="visibility: inherit;" fill="rgb(0, 0, 0)" stroke="rgb(204, 204, 204)" stroke-width="1px"></line><line x1="90" y1="0" x2="90" y2="5" style="visibility: inherit;" fill="rgb(0, 0, 0)" stroke="rgb(204, 204, 204)" stroke-width="1px"></line><line x1="112.5" y1="0" x2="112.5" y2="5" style="visibility: inherit;" fill="rgb(0, 0, 0)" stroke="rgb(204, 204, 204)" stroke-width="1px"></line><line x1="135" y1="0" x2="135" y2="5" style="visibility: inherit;" fill="rgb(0, 0, 0)" stroke="rgb(204, 204, 204)" stroke-width="1px"></line><line x1="157.5" y1="0" x2="157.5" y2="5" style="visibility: inherit;" fill="rgb(0, 0, 0)" stroke="rgb(204, 204, 204)" stroke-width="1px"></line><line x1="180" y1="0" x2="180" y2="5" style="visibility: inherit;" fill="rgb(0, 0, 0)" stroke="rgb(204, 204, 204)" stroke-width="1px"></line><line x1="202.5" y1="0" x2="202.5" y2="5" style="visibility: inherit;" fill="rgb(0, 0, 0)" stroke="rgb(204, 204, 204)" stroke-width="1px"></line><line x1="225" y1="0" x2="225" y2="5" style="visibility: inherit;" fill="rgb(0, 0, 0)" stroke="rgb(204, 204, 204)" stroke-width="1px"></line><line x1="247.5" y1="0" x2="247.5" y2="5" style="visibility: inherit;" fill="rgb(0, 0, 0)" stroke="rgb(204, 204, 204)" stroke-width="1px"></line><line x1="270" y1="0" x2="270" y2="5" style="visibility: inherit;" fill="rgb(0, 0, 0)" stroke="rgb(204, 204, 204)" stroke-width="1px"></line></g><g transform="translate(0, 8)"><text x="0" y="0" dx="0em" dy="0.95em" style="text-anchor: middle; visibility: hidden; font-family: Roboto, sans-serif; font-size: 12px; font-weight: 200;" fill="rgb(50, 49, 63)" stroke="none" stroke-width="1px">-20</text><text x="22.5" y="0" dx="0em" dy="0.95em" style="text-anchor: middle; visibility: inherit; font-family: Roboto, sans-serif; font-size: 12px; font-weight: 200;" fill="rgb(50, 49, 63)" stroke="none" stroke-width="1px">0</text><text x="45" y="0" dx="0em" dy="0.95em" style="text-anchor: middle; visibility: hidden; font-family: Roboto, sans-serif; font-size: 12px; font-weight: 200;" fill="rgb(50, 49, 63)" stroke="none" stroke-width="1px">20</text><text x="67.5" y="0" dx="0em" dy="0.95em" style="text-anchor: middle; visibility: inherit; font-family: Roboto, sans-serif; font-size: 12px; font-weight: 200;" fill="rgb(50, 49, 63)" stroke="none" stroke-width="1px">40</text><text x="90" y="0" dx="0em" dy="0.95em" style="text-anchor: middle; visibility: hidden; font-family: Roboto, sans-serif; font-size: 12px; font-weight: 200;" fill="rgb(50, 49, 63)" stroke="none" stroke-width="1px">60</text><text x="112.5" y="0" dx="0em" dy="0.95em" style="text-anchor: middle; visibility: inherit; font-family: Roboto, sans-serif; font-size: 12px; font-weight: 200;" fill="rgb(50, 49, 63)" stroke="none" stroke-width="1px">80</text><text x="135" y="0" dx="0em" dy="0.95em" style="text-anchor: middle; visibility: hidden; font-family: Roboto, sans-serif; font-size: 12px; font-weight: 200;" fill="rgb(50, 49, 63)" stroke="none" stroke-width="1px">100</text><text x="157.5" y="0" dx="0em" dy="0.95em" style="text-anchor: middle; visibility: inherit; font-family: Roboto, sans-serif; font-size: 12px; font-weight: 200;" fill="rgb(50, 49, 63)" stroke="none" stroke-width="1px">120</text><text x="180" y="0" dx="0em" dy="0.95em" style="text-anchor: middle; visibility: hidden; font-family: Roboto, sans-serif; font-size: 12px; font-weight: 200;" fill="rgb(50, 49, 63)" stroke="none" stroke-width="1px">140</text><text x="202.5" y="0" dx="0em" dy="0.95em" style="text-anchor: middle; visibility: inherit; font-family: Roboto, sans-serif; font-size: 12px; font-weight: 200;" fill="rgb(50, 49, 63)" stroke="none" stroke-width="1px">160</text><text x="225" y="0" dx="0em" dy="0.95em" style="text-anchor: middle; visibility: hidden; font-family: Roboto, sans-serif; font-size: 12px; font-weight: 200;" fill="rgb(50, 49, 63)" stroke="none" stroke-width="1px">180</text><text x="247.5" y="0" dx="0em" dy="0.95em" style="text-anchor: middle; visibility: inherit; font-family: Roboto, sans-serif; font-size: 12px; font-weight: 200;" fill="rgb(50, 49, 63)" stroke="none" stroke-width="1px">200</text><text x="270" y="0" dx="0em" dy="0.95em" style="text-anchor: middle; visibility: hidden; font-family: Roboto, sans-serif; font-size: 12px; font-weight: 200;" fill="rgb(50, 49, 63)" stroke="none" stroke-width="1px">220</text></g><line x1="0" y1="0" x2="270" y2="0" fill="rgb(0, 0, 0)" stroke="rgb(204, 204, 204)" stroke-width="1px"></line></g></g></g></g></svg>