<svg viewBox="0 0 1281.2222900390625 400" xmlns="http://www.w3.org/2000/svg"><g><g><g><g><g><line x1="70" y1="378" x2="65" y2="378" style="visibility: inherit;" fill="rgb(0, 0, 0)" stroke="rgb(204, 204, 204)" stroke-width="1px"></line><line x1="70" y1="324" x2="65" y2="324" style="visibility: inherit;" fill="rgb(0, 0, 0)" stroke="rgb(204, 204, 204)" stroke-width="1px"></line><line x1="70" y1="269.99999999999994" x2="65" y2="269.99999999999994" style="visibility: inherit;" fill="rgb(0, 0, 0)" stroke="rgb(204, 204, 204)" stroke-width="1px"></line><line x1="70" y1="216.0000000000001" x2="65" y2="216.0000000000001" style="visibility: inherit;" fill="rgb(0, 0, 0)" stroke="rgb(204, 204, 204)" stroke-width="1px"></line><line x1="70" y1="162.00000000000009" x2="65" y2="162.00000000000009" style="visibility: inherit;" fill="rgb(0, 0, 0)" stroke="rgb(204, 204, 204)" stroke-width="1px"></line><line x1="70" y1="108.00000000000004" x2="65" y2="108.00000000000004" style="visibility: inherit;" fill="rgb(0, 0, 0)" stroke="rgb(204, 204, 204)" stroke-width="1px"></line><line x1="70" y1="54.00000000000002" x2="65" y2="54.00000000000002" style="visibility: inherit;" fill="rgb(0, 0, 0)" stroke="rgb(204, 204, 204)" stroke-width="1px"></line><line x1="70" y1="0" x2="65" y2="0" style="visibility: inherit;" fill="rgb(0, 0, 0)" stroke="rgb(204, 204, 204)" stroke-width="1px"></line></g><g transform="translate(60, 0)"><text x="0" y="378" dx="0em" dy="0.3em" style="text-anchor: end; visibility: hidden; font-family: Roboto, sans-serif; font-size: 12px; font-weight: 200;" fill="rgb(50, 49, 63)" stroke="none" stroke-width="1px">0.0135</text><text x="0" y="324" dx="0em" dy="0.3em" style="text-anchor: end; visibility: inherit; font-family: Roboto, sans-serif; font-size: 12px; font-weight: 200;" fill="rgb(50, 49, 63)" stroke="none" stroke-width="1px">0.014</text><text x="0" y="269.99999999999994" dx="0em" dy="0.3em" style="text-anchor: end; visibility: inherit; font-family: Roboto, sans-serif; font-size: 12px; font-weight: 200;" fill="rgb(50, 49, 63)" stroke="none" stroke-width="1px">0.0145</text><text x="0" y="216.0000000000001" dx="0em" dy="0.3em" style="text-anchor: end; visibility: inherit; font-family: Roboto, sans-serif; font-size: 12px; font-weight: 200;" fill="rgb(50, 49, 63)" stroke="none" stroke-width="1px">0.015</text><text x="0" y="162.00000000000009" dx="0em" dy="0.3em" style="text-anchor: end; visibility: inherit; font-family: Roboto, sans-serif; font-size: 12px; font-weight: 200;" fill="rgb(50, 49, 63)" stroke="none" stroke-width="1px">0.0155</text><text x="0" y="108.00000000000004" dx="0em" dy="0.3em" style="text-anchor: end; visibility: inherit; font-family: Roboto, sans-serif; font-size: 12px; font-weight: 200;" fill="rgb(50, 49, 63)" stroke="none" stroke-width="1px">0.016</text><text x="0" y="54.00000000000002" dx="0em" dy="0.3em" style="text-anchor: end; visibility: inherit; font-family: Roboto, sans-serif; font-size: 12px; font-weight: 200;" fill="rgb(50, 49, 63)" stroke="none" stroke-width="1px">0.0165</text><text x="0" y="0" dx="0em" dy="0.3em" style="text-anchor: end; visibility: hidden; font-family: Roboto, sans-serif; font-size: 12px; font-weight: 200;" fill="rgb(50, 49, 63)" stroke="none" stroke-width="1px">0.017</text></g><line x1="70" y1="0" x2="70" y2="378" fill="rgb(0, 0, 0)" stroke="rgb(204, 204, 204)" stroke-width="1px"></line></g></g><g transform="translate(70, 0)" clip-path="url(#clip_0)"><clipPath id="clip_0"><rect width="1211" height="378"></rect></clipPath><g><g><g><line x1="0" y1="0" x2="0" y2="378" fill="rgb(0, 0, 0)" stroke="rgb(60, 60, 60)" stroke-width="1px" opacity="0.25"></line><line x1="121.12200000000001" y1="0" x2="121.12200000000001" y2="378" fill="rgb(0, 0, 0)" stroke="rgb(60, 60, 60)" stroke-width="1px" opacity="0.25"></line><line x1="242.24400000000003" y1="0" x2="242.24400000000003" y2="378" fill="rgb(0, 0, 0)" stroke="rgb(60, 60, 60)" stroke-width="1px" opacity="0.25"></line><line x1="363.366" y1="0" x2="363.366" y2="378" fill="rgb(0, 0, 0)" stroke="rgb(60, 60, 60)" stroke-width="1px" opacity="0.25"></line><line x1="484.48800000000006" y1="0" x2="484.48800000000006" y2="378" fill="rgb(0, 0, 0)" stroke="rgb(60, 60, 60)" stroke-width="1px" opacity="0.25"></line><line x1="605.61" y1="0" x2="605.61" y2="378" fill="rgb(0, 0, 0)" stroke="rgb(60, 60, 60)" stroke-width="1px" opacity="0.25"></line><line x1="726.732" y1="0" x2="726.732" y2="378" fill="rgb(0, 0, 0)" stroke="rgb(60, 60, 60)" stroke-width="1px" opacity="0.25"></line><line x1="847.8539999999999" y1="0" x2="847.8539999999999" y2="378" fill="rgb(0, 0, 0)" stroke="rgb(60, 60, 60)" stroke-width="1px" opacity="0.25"></line><line x1="968.9760000000001" y1="0" x2="968.9760000000001" y2="378" fill="rgb(0, 0, 0)" stroke="rgb(60, 60, 60)" stroke-width="1px" opacity="0.25"></line><line x1="1090.098" y1="0" x2="1090.098" y2="378" fill="rgb(0, 0, 0)" stroke="rgb(60, 60, 60)" stroke-width="1px" opacity="0.25"></line><line x1="1211.22" y1="0" x2="1211.22" y2="378" fill="rgb(0, 0, 0)" stroke="rgb(60, 60, 60)" stroke-width="1px" opacity="0.25"></line></g><g><line x1="0" y1="378" x2="1211.22" y2="378" fill="rgb(0, 0, 0)" stroke="rgb(60, 60, 60)" stroke-width="1px" opacity="0.25"></line><line x1="0" y1="324" x2="1211.22" y2="324" fill="rgb(0, 0, 0)" stroke="rgb(60, 60, 60)" stroke-width="1px" opacity="0.25"></line><line x1="0" y1="269.99999999999994" x2="1211.22" y2="269.99999999999994" fill="rgb(0, 0, 0)" stroke="rgb(60, 60, 60)" stroke-width="1px" opacity="0.25"></line><line x1="0" y1="216.0000000000001" x2="1211.22" y2="216.0000000000001" fill="rgb(0, 0, 0)" stroke="rgb(60, 60, 60)" stroke-width="1px" opacity="0.25"></line><line x1="0" y1="162.00000000000009" x2="1211.22" y2="162.00000000000009" fill="rgb(0, 0, 0)" stroke="rgb(60, 60, 60)" stroke-width="1px" opacity="0.25"></line><line x1="0" y1="108.00000000000004" x2="1211.22" y2="108.00000000000004" fill="rgb(0, 0, 0)" stroke="rgb(60, 60, 60)" stroke-width="1px" opacity="0.25"></line><line x1="0" y1="54.00000000000002" x2="1211.22" y2="54.00000000000002" fill="rgb(0, 0, 0)" stroke="rgb(60, 60, 60)" stroke-width="1px" opacity="0.25"></line><line x1="0" y1="0" x2="1211.22" y2="0" fill="rgb(0, 0, 0)" stroke="rgb(60, 60, 60)" stroke-width="1px" opacity="0.25"></line></g></g></g><g><g><line x1="0" y1="1835.9999999999995" x2="1211.22" y2="1835.9999999999995" fill="rgb(0, 0, 0)" stroke="rgb(153, 153, 153)" stroke-width="1.5px"></line></g></g><g><g><line x1="121.12200000000001" y1="0" x2="121.12200000000001" y2="378" fill="rgb(0, 0, 0)" stroke="rgb(153, 153, 153)" stroke-width="1.5px"></line></g></g><g><g><g><g><g><path stroke="rgb(187, 187, 187)" stroke-width="2px" d="M150.19128,-20.072141019726004L152.61372,14.532888874210126L155.03616,24.7137445728428L157.45860000000002,30.788731623780787L159.88104,34.25731467145195L162.30348,38.32907165048602L164.72592,57.97969588419045L167.14836000000003,58.815378762884045L169.57080000000002,81.12664844659109L171.99324,84.15560589952041L174.41567999999998,91.43385316658845L176.83812,95.89850750661647L179.26056,97.71226103886147L181.683,118.1151228640277L184.10544,128.9577334044582L186.52788,138.9378250056234L188.95032,119.4439601881807L191.37276,127.77353846277285L193.79520000000002,127.90959079439443L196.21764000000002,130.5952719637291L198.64008,133.66529263781044L201.06252,125.13898404490014L203.48496000000003,139.3006650455262L205.90740000000002,141.77509480483084L208.32984,165.3616245304501L210.75227999999998,170.30417750049415L213.17471999999998,167.1117462621926L215.59716,157.92358505507494L218.0196,173.55549422076922L220.44204,166.1041938672598L222.86448000000001,167.10729264129597L225.28692,179.3300102204172L227.70936,180.9873488816563L230.1318,190.3898738437499L232.55424000000002,195.27206885926208L234.97668000000002,202.23805679175874L237.39912,202.1654497223697L239.82156,198.4086889646503L242.24400000000003,192.54443282015663L244.66644000000002,168.6973633653412L247.08888,192.17157618329745L249.51131999999998,188.05069065168263L251.93376,194.39187133357473L254.3562,211.71261988906488L256.77864,212.85382167594744L259.20108,206.5004799371773L261.62352,209.04651725326897L264.04596,211.43295614740205L266.46840000000003,196.5661752392107L268.89084,216.81118688400164L271.31328,222.8079556549526L273.73572,224.35110953598817L276.15816,211.0240113803719L278.5806,217.16523364001378L281.00304,224.36006664522787L283.42548000000005,229.01283266120157L285.84792,222.2940228341401L288.27036,210.16819222917442L290.6928,209.05890463680174L293.11524,206.87107117706637L295.53768,210.50185665925795L297.96012,220.3798637356785L300.38256,218.92473256387882L302.805,219.11433166145426L305.22744,210.6791131489225L307.64988,214.80328727917365L310.07232,221.66505422089395L312.49476000000004,233.41228824790653L314.91720000000004,224.7577566858311L317.33964000000003,228.72053023315542L319.76208,227.5205835112157L322.18452,248.2977831249368L324.60696,242.34376426249324L327.0294,247.1304305178498L329.45184,234.83421642676447L331.87428000000006,230.19865776953355L334.29672000000005,226.60352694903173L336.71916000000004,229.3129680270812L339.14160000000004,233.8239117333212L341.56404,236.50424595289934L343.98648,235.19823980101066L346.40891999999997,241.75939611058314L348.83135999999996,245.88735822117863L351.25379999999996,247.78586463497L353.67624,248.2858248970863L356.09868,255.8515834106181L358.52112,254.52303574640592L360.94356,238.8550161728803L363.366,270.4214736705748L365.78844,259.00786163125787L368.21088,240.42344746419417L370.63332,222.56665951865088L373.05576,224.69303209100468L375.4782,241.40695334979455L377.90064,250.27192476694916L380.32308,238.982468231351L382.74552,254.6985536359733L385.16796,250.7506069506995L387.59040000000005,257.530532024252L390.01284000000004,265.094223488538L392.43528000000003,250.59613043616318L394.85772000000003,257.3876753959066L397.28016,265.0609735198621L399.7026,267.0844795672776L402.12504,253.34630058817157L404.54748,260.30274749167023L406.96992000000006,254.14567187051338L409.39236000000005,253.92250000608183L411.81480000000005,248.49773843987114L414.23724000000004,261.3972094887694L416.65968,258.29048142637026L419.08212,254.68326353910697L421.50455999999997,250.72570173670724L423.92699999999996,246.27738793331307L426.34943999999996,253.06572111629214L428.77188,241.83661130775656L431.19432,242.0304697257856L433.61676,254.33203350916983L436.0392,262.7521936620204L438.46164,251.68568878918472L440.88408,253.54161586493007L443.30652,266.4806159146413L445.72896000000003,255.36851985500965L448.1514,260.3079182341499L450.57384,275.18591629474173L452.99628,279.0657499492695L455.41872,270.05514797333075L457.84116,256.9878748104763L460.2636,263.12949099813653L462.68604,272.5162201683209L465.10848000000004,274.38110852005985L467.53092000000004,283.03297190524876L469.95336000000003,279.90222801362125L472.3758,277.03485121485386L474.79824,274.6346058497236L477.22068,278.1933452158812L479.64312,282.5091442984132L482.06556000000006,276.0817344142074L484.48800000000006,260.6348866553948L486.91044000000005,263.4472596485524L489.33288000000005,287.43096162313867L491.75532000000004,281.517852982489L494.17776,274.80106513536435L496.6002,278.1375587870864L499.02263999999997,281.00973792613684L501.44507999999996,275.87735940063664L503.86752,282.22274537709166L506.28996,275.51247215167757L508.7124,272.0630099767214L511.13484,273.8572827454664L513.55728,292.6861138270054L515.97972,286.49229833637185L518.40216,285.4700600096851L520.8246,282.59533318217217L523.24704,283.02461937865974L525.66948,289.9973025310122L528.09192,281.9749033920814L530.51436,269.5611027999431L532.9368000000001,281.29022798083486L535.35924,280.16222736324244L537.78168,275.19480451992354L540.20412,277.7952901664447L542.62656,287.07660183567225L545.049,291.9501602605487L547.47144,284.5138204309647L549.8938800000001,282.81949297269017L552.31632,284.7804301362029L554.7387600000001,271.6417210567469L557.1612,277.6290299098773L559.5836400000001,276.11635339266564L562.00608,287.975445485154L564.42852,287.12473996641575L566.8509600000001,269.65419943429424L569.2733999999999,274.6243762928093L571.69584,275.4579525207188L574.11828,277.9248548397245L576.54072,283.9237405806076L578.96316,281.37025888856016L581.3856,274.9357623463617L583.80804,280.4898594621269L586.23048,274.8240965726046L588.65292,279.08611408007556L591.07536,271.31334641654746L593.4978,286.8663132374255L595.92024,301.877805029438L598.34268,295.1614299268044L600.76512,291.14118035140723L603.18756,292.4452446073478L605.61,305.20721987308195L608.0324400000001,304.4060723151035L610.45488,289.02894476445124L612.87732,293.1969629132248L615.29976,277.126923012942L617.7222,293.0784838486968L620.14464,290.674188583449L622.56708,281.8716835316154L624.9895200000001,282.3901892743191L627.41196,280.26417055378454L629.8344000000001,285.5242712059622L632.25684,290.43775517696156L634.6792800000001,291.1704079684853L637.10172,290.9178287850165L639.52416,289.59219792284625L641.9466000000001,287.17136050938416L644.36904,282.6135037522248L646.7914800000001,284.22288200740405L649.21392,281.52150008371103L651.6363600000001,298.5533961492219L654.0588,301.9973945163154L656.4812400000001,293.63777887478255L658.90368,297.63028893265L661.3261200000001,288.03503321047344L663.7485600000001,304.0640822674973L666.171,305.988654615053L668.5934400000001,289.75849936101935L671.01588,304.99496396597675L673.4383200000001,287.86271447072284L675.86076,310.2488081939808L678.2832000000001,304.7282437496061L680.7056400000001,298.84714009837353L683.12808,292.7569951205016L685.55052,295.4882687919476L687.97296,295.5668724771224L690.3954,296.0532195923259L692.8178399999999,295.3206922386604L695.24028,287.0692286595415L697.6627199999999,297.00501287607625L700.08516,287.2457076825398L702.5075999999999,283.52227956758134L704.93004,287.82011243525847L707.35248,288.28468159928144L709.77492,289.3169494872941L712.19736,300.94232575927094L714.6197999999999,299.7515929987068L717.04224,298.76734993756037L719.4646799999999,297.5276826971783L721.88712,310.96867767298306L724.30956,293.5438534696346L726.732,287.96903708454636L729.15444,281.6779954604905L731.57688,292.7823885543703L733.99932,304.92876050851106L736.42176,310.544776213058L738.8442,305.8178292702961L741.26664,298.8913594121533L743.68908,308.6985882422207L746.11152,296.4402760088967L748.53396,292.1851310384589L750.9564,291.0989039333057L753.37884,299.10018852897826L755.80128,283.2983351680539L758.2237200000001,290.46750499802243L760.64616,289.31922756431936L763.0686000000001,292.05196855544125L765.49104,295.5215770726148L767.91348,304.9635919406856L770.33592,295.09321825950417L772.75836,286.04331035166433L775.1808000000001,300.51126612871565L777.60324,303.08493129998266L780.0256800000001,309.5386994277825L782.44812,306.0838224169845L784.8705600000001,300.27637613280035L787.293,295.0587453631366L789.7154400000001,298.37991223262594L792.13788,296.8494369359423L794.56032,293.01646227667385L796.9827600000001,300.52414792197743L799.4052,305.29240704427826L801.8276400000001,308.13968325168287L804.25008,312.6788121373082L806.6725200000001,317.8952552265301L809.09496,323.1903879515156L811.5174000000001,322.6133539719478L813.9398400000001,315.5217668320595L816.36228,300.3372017327463L818.7847200000001,314.2588462938974L821.20716,320.4010222500627L823.6296000000001,318.99192777550604L826.05204,306.45629108712893L828.4744800000001,303.57242163876197L830.8969200000001,298.43290502345263L833.31936,293.4059748561126L835.7417999999999,303.0100259131757L838.16424,309.20383622327853L840.58668,309.01642199802063L843.0091199999999,298.74683684377476L845.43156,294.1133816258227L847.8539999999999,319.29272232151726L850.27644,319.0986998182339L852.6988799999999,303.2651315749766L855.12132,298.02998459464817L857.54376,306.8781293042094L859.9662,306.08280462071843L862.38864,304.64914748695816L864.81108,314.29990001694745L867.23352,315.04189772711027L869.6559599999999,310.31657521310945L872.0784,317.3828769825907L874.50084,305.95064488071273L876.92328,312.30093020807544L879.34572,302.58604903585234L881.76816,308.6570356700808L884.1906,309.56703333938066L886.61304,296.9190982752081L889.03548,306.53837103682963L891.4579200000001,297.7410336317909L893.88036,311.7682597268995L896.3028,304.8025021928179L898.72524,313.54979308710244L901.14768,319.3208765164957L903.57012,320.1986683354346L905.99256,317.94334282550625L908.415,308.279068077048L910.83744,306.63220068480996L913.2598800000001,303.7913041392948L915.68232,315.7051996874801L918.10476,322.5598753623957L920.5272,317.6379681547162L922.94964,306.4210585546301L925.37208,304.8972414250258L927.79452,298.31498752326274L930.2169600000001,300.4060771721035L932.6394,317.7981610332387L935.0618400000001,301.29418913331364L937.48428,301.1630666125222L939.9067200000001,300.5349694054367L942.32916,315.1429422951365L944.7516,317.03771702388667L947.1740400000001,312.0501330848917L949.59648,309.62736438252836L952.0189200000001,307.6300730379719L954.44136,303.28180584146355L956.8638000000001,317.36376283665777L959.28624,304.9656552201526L961.7086800000001,310.51183387792213L964.1311200000001,321.23712717983784L966.5535600000001,313.35554315742047L968.9760000000001,311.6004249340068L971.39844,311.95599653039994L973.8208800000001,308.5630021793521L976.24332,304.26376984732605L978.6657600000001,308.42955696712283L981.0882000000001,314.0261357553623L983.5106400000001,319.1253328876389L985.9330799999999,337.7008804653104L988.35552,322.6644157990228L990.77796,307.06916690018244L993.2004,313.6795028695254L995.62284,336.8979838519566L998.0452799999999,317.9844306367203L1000.46772,317.07587193593764L1002.8901599999999,311.43891158786664L1005.3126,314.96818451337367L1007.73504,315.12253220231725L1010.15748,308.0880018434012L1012.57992,315.3365032530478L1015.00236,322.58307379821844L1017.4248,330.63041267597623L1019.8472399999999,317.8036713707682L1022.26968,326.61455777336573L1024.69212,313.4897632065381L1027.11456,301.46664905923393L1029.537,316.1638264797794L1031.95944,308.8475594128768L1034.38188,316.6784128311634L1036.80432,320.49481339236263L1039.22676,315.2883757411252L1041.6492,305.4525801336057L1044.0716400000001,304.95199884148167L1046.49408,323.7878971050485L1048.91652,325.3417922944011L1051.33896,320.98379399121904L1053.7614,318.60999148929795L1056.18384,314.95578846838896L1058.60628,313.90250811282885L1061.02872,309.29369564833684L1063.45116,307.77728492011084L1065.8736000000001,319.1690816759436L1068.29604,302.8410586523633L1070.71848,312.30654228971133L1073.14092,323.80893506554213L1075.56336,315.99208403794427L1077.9858000000002,313.3633583376911L1080.40824,315.5893611902062L1082.83068,305.4685374137202L1085.25312,317.7294782064222L1087.6755600000001,315.2579326428092L1090.098,336.149939262695" style="fill: none;" fill="none"></path></g></g></g></g><g opacity="0.2"><g><g><g><path stroke="rgb(187, 187, 187)" stroke-width="2px" d="M147.76884,-22.791768550872682L150.19128,25.110405743122225L152.61372,66.32744228839884L155.03616,39.96508276462568L157.45860000000002,39.8940712809564L159.88104,39.45774292945872L162.30348,44.43498408794414L164.72592,87.45064294338236L167.14836000000003,60.06877577304849L169.57080000000002,114.59151363372813L171.99324,88.698875963688L174.41567999999998,102.35098457336436L176.83812,102.59540086984644L179.26056,100.43286985158929L181.683,148.71927058696755L184.10544,145.22160297632226L186.52788,153.90793687105185L188.95032,90.20319288969047L191.37276,140.2678982019425L193.79520000000002,128.11366921663293L196.21764000000002,134.62379282712945L198.64008,138.27032303810128L201.06252,112.34952217340478L203.48496000000003,160.5431855320931L205.90740000000002,145.4867393374444L208.32984,200.74141851067546L210.75227999999998,177.71800687909132L213.17471999999998,162.32309943437582L215.59716,144.14134329557427L218.0196,197.00335791707045L220.44204,154.92724335193643L222.86448000000001,168.6119408011437L225.28692,197.66408658027652L227.70936,183.4733568727971L230.1318,204.49366128444674L232.55424000000002,202.59536138176927L234.97668000000002,212.6870386898518L237.39912,202.05653911829L239.82156,192.7735478281975L242.24400000000003,183.74804860353473L244.66644000000002,132.92675918340692L247.08888,227.38289541006088L249.51131999999998,181.86936235427865L251.93376,203.90364235639575L254.3562,237.6937427222729L256.77864,214.56562435626986L259.20108,196.97046732902535L261.62352,212.8655732274056L264.04596,215.0126144886017L266.46840000000003,174.2660038769246L268.89084,247.1787043511868L271.31328,231.80310881137848L273.73572,226.66584035754207L276.15816,191.03336414694792L278.5806,226.37706702947625L281.00304,235.15231615304953L283.42548000000005,235.99198168516162L285.84792,212.21580809354785L288.27036,191.97944632172593L290.6928,207.39497324824336L293.11524,203.58932098746305L295.53768,215.94803488254553L297.96012,235.19687435030943L300.38256,216.7420358061791L302.805,219.39873030781752L305.22744,198.0262853801251L307.64988,220.98954847455028L310.07232,231.95770463347438L312.49476000000004,251.03313928842547L314.91720000000004,211.77595934271815L317.33964000000003,234.66469055414203L319.76208,225.72066342830664L322.18452,279.46358254551893L324.60696,233.41273596882826L327.0294,254.31042990088463L329.45184,216.38989529013637L331.87428000000006,223.24531978368768L334.29672000000005,221.21083071827894L336.71916000000004,233.37712964415553L339.14160000000004,240.59032729268077L341.56404,240.52474728226665L343.98648,233.23923057317737L346.40891999999997,251.60113057494164L348.83135999999996,252.07930138707167L351.25379999999996,250.63362425565725L353.67624,249.03576529026034L356.09868,267.20022118091583L358.52112,252.53021425008777L360.94356,215.3529868125916L363.366,317.77115991711617L365.78844,241.88744357228282L368.21088,212.54682621359834L370.63332,195.78147760033616L373.05576,227.8825909495354L375.4782,266.4778352379799L377.90064,263.5693818926812L380.32308,222.04828342795375L382.74552,278.2726817429066L385.16796,244.82868692278868L387.59040000000005,267.7004196345806L390.01284000000004,276.43976068496704L392.43528000000003,228.8489908576012L394.85772000000003,267.57499283552175L397.28016,276.57092070579534L399.7026,270.1197386384011L402.12504,232.7390321195126L404.54748,270.7374178469181L406.96992000000006,244.91005843877795L409.39236000000005,253.58774220943454L411.81480000000005,240.36059609055525L414.23724000000004,280.7464160621167L416.65968,253.63038933277136L419.08212,249.27243670821193L421.50455999999997,244.7893590331078L423.92699999999996,239.60491722822195L426.34943999999996,263.2482208907604L428.77188,224.99294659495357L431.19432,242.32125735282904L433.61676,272.7843791842461L436.0392,275.38243389129644L438.46164,235.0859314799309L440.88408,256.32550647854805L443.30652,285.8891159892082L445.72896000000003,238.70037576556211L448.1514,267.71701580286026L450.57384,297.50291338562965L452.99628,284.88550043106085L455.41872,256.53924500942236L457.84116,237.38696506619456L460.2636,272.34191527962685L462.68604,286.5963139235974L465.10848000000004,277.17844104766846L467.53092000000004,296.0107669830322L469.95336000000003,275.2061121761799L472.3758,272.7337860167027L474.79824,271.03423780202866L477.22068,283.5314542651177L479.64312,288.9828429222107L482.06556000000006,266.4406195878983L484.48800000000006,237.46461501717567L486.91044000000005,267.66581913828855L489.33288000000005,323.40651458501816L491.75532000000004,272.6481900215149L494.17776,264.72588336467743L496.6002,283.1422992646694L499.02263999999997,285.3180066347122L501.44507999999996,268.1787916123867L503.86752,291.740824341774L506.28996,265.44706231355667L508.7124,266.8888167142868L511.13484,276.5486918985844L513.55728,320.9293604493141L515.97972,277.2015751004219L518.40216,283.9367025196552L520.8246,278.28324294090277L523.24704,283.66854867339134L525.66948,300.45632725954056L528.09192,269.94130468368536L530.51436,250.94040191173556L532.9368000000001,298.8839157521725L535.35924,278.4702264368534L537.78168,267.74367025494576L540.20412,281.6960186362267L542.62656,300.9985693395138L545.049,299.2604978978634L547.47144,273.3593106865883L549.8938800000001,280.2780017852784L552.31632,287.72183588147163L554.7387600000001,251.93365743756297L557.1612,286.6099931895733L559.5836400000001,273.847338616848L562.00608,305.7640836238861L564.42852,285.8486816883088L566.8509600000001,243.44838863611224L569.2733999999999,282.0796415805817L571.69584,276.7083168625832L574.11828,281.6252083182335L576.54072,292.9220691919327L578.96316,277.5400363504887L581.3856,265.2840175330639L583.80804,288.8210051357746L586.23048,266.32545223832136L588.65292,285.4791403412819L591.07536,259.6541949212551L593.4978,310.1957634687424L595.92024,324.3950427174568L598.34268,285.0868672728539L600.76512,285.1108059883118L603.18756,294.4013409912586L605.61,324.35018277168274L608.0324400000001,303.20435097813606L610.45488,265.9632534384728L612.87732,299.44899013638496L615.29976,253.0218631625176L617.7222,317.00582510232925L620.14464,287.0677456855774L622.56708,268.6679259538651L624.9895200000001,283.16794788837433L627.41196,277.07514247298246L629.8344000000001,293.4144221842289L632.25684,297.807981133461L634.6792800000001,292.26938715577126L637.10172,290.5389600098133L639.52416,287.603751629591L641.9466000000001,283.5401043891907L644.36904,275.77671861648565L646.7914800000001,286.63694939017296L649.21392,277.4694271981717L651.6363600000001,324.101240247488L654.0588,307.16339206695557L656.4812400000001,281.0983554124832L658.90368,303.61905401945114L661.3261200000001,273.6421496272087L663.7485600000001,328.10765585303307L666.171,308.87551313638687L668.5934400000001,265.413266479969L671.01588,327.8496608734131L673.4383200000001,262.1643402278424L675.86076,343.8279487788677L678.2832000000001,296.44739708304405L680.7056400000001,290.0254846215248L683.12808,283.62177765369415L685.55052,299.5851792991162L687.97296,295.6847780048847L690.3954,296.782740265131L692.8178399999999,294.2219012081623L695.24028,274.6920332908631L697.6627199999999,311.90868920087814L700.08516,272.6067498922348L702.5075999999999,277.93713739514357L704.93004,294.26686173677444L707.35248,288.98153534531593L709.77492,290.86535131931305L712.19736,318.3803901672363L714.6197999999999,297.96549385786057L717.04224,297.29098534584045L719.4646799999999,295.6681818366051L721.88712,331.13017013669014L724.30956,267.4066171646119L726.732,279.60681250691414L729.15444,272.24143302440643L731.57688,309.43897819519043L733.99932,323.14831843972206L736.42176,318.9687997698784L738.8442,298.7274088561535L741.26664,288.501654624939L743.68908,323.40943148732185L746.11152,278.05280765891075L748.53396,285.8024135828018L750.9564,289.46956327557564L753.37884,311.10211542248726L755.80128,259.5955551266671L758.2237200000001,301.22125974297523L760.64616,287.596811413765L763.0686000000001,296.1510800421238L765.49104,300.7259898483753L767.91348,319.12661424279213L770.33592,280.28765773773193L772.75836,272.4684484899044L775.1808000000001,322.21319979429245L777.60324,306.94542905688286L780.0256800000001,319.21935161948204L782.44812,300.90150690078735L784.8705600000001,291.5652067065239L787.293,287.23229920864105L789.7154400000001,303.3616625368595L792.13788,294.5537239909172L794.56032,287.2670002877712L796.9827600000001,311.78567638993263L799.4052,312.4447957277298L801.8276400000001,312.4105975627899L804.25008,319.4875054657459L806.6725200000001,325.719919860363L809.09496,331.13308703899384L811.5174000000001,321.7478030025959L813.9398400000001,304.8843861222267L816.36228,277.5603540837765L818.7847200000001,335.14131313562393L821.20716,329.6142861843109L823.6296000000001,316.8782860636711L826.05204,287.6528360545635L828.4744800000001,299.2466174662114L830.8969200000001,290.7236301004887L833.31936,285.8655796051026L835.7417999999999,317.41610249876976L838.16424,318.4945516884327L840.58668,308.73530066013336L843.0091199999999,283.3424591124058L845.43156,287.16319879889494L847.8539999999999,357.0617333650589L850.27644,318.8076660633087L852.6988799999999,279.5147792100907L855.12132,290.1772641241551L857.54376,320.15034636855125L859.9662,304.88981759548193L862.38864,302.4986617863178L864.81108,328.7760288119316L867.23352,316.1548942923546L869.6559599999999,303.22859144210815L872.0784,327.9823296368122L874.50084,288.8022967278958L876.92328,321.82635819911957L879.34572,288.0137272775174L881.76816,317.7635156214237L884.1906,310.9320298433304L886.61304,277.94719567894936L889.03548,320.96728017926216L891.4579200000001,284.54502752423286L893.88036,332.80909886956215L896.3028,294.3538658916951L898.72524,326.67072942852974L901.14768,327.9775016605854L903.57012,321.5153560638428L905.99256,314.56035456061363L908.415,293.78265595436096L910.83744,304.1618995964527L913.2598800000001,299.52995932102203L915.68232,333.576043009758L918.10476,332.8418888747692L920.5272,310.25510734319687L922.94964,289.595694154501L925.37208,302.61151573061943L927.79452,288.44160667061806L930.2169600000001,303.54271164536476L932.6394,343.88628682494164L935.0618400000001,276.5382312834263L937.48428,300.96638283133507L939.9067200000001,299.5928235948086L942.32916,337.05490162968636L944.7516,319.879879117012L947.1740400000001,304.5687571763993L949.59648,305.9932113289833L952.0189200000001,304.63413602113724L954.44136,296.75940504670143L956.8638000000001,338.4866983294487L959.28624,286.3684937953949L961.7086800000001,318.83110186457634L964.1311200000001,337.3250671327114L966.5535600000001,301.53316712379456L968.9760000000001,308.9677475988865L971.39844,312.4893539249897L973.8208800000001,303.47351065278053L976.24332,297.81492134928703L978.6657600000001,314.67823764681816L981.0882000000001,322.42100393772125L983.5106400000001,326.77412858605385L985.9330799999999,365.56420183181757L988.35552,300.10971879959106L990.77796,283.67629355192184L993.2004,323.59500682353973L995.62284,371.7257053256035L998.0452799999999,289.6141008138657L1000.46772,315.7130338847637L1002.8901599999999,302.98347106575966L1005.3126,320.2620939016342L1007.73504,315.35405373573303L1010.15748,297.536206305027L1012.57992,326.20925536751747L1015.00236,333.4529296159744L1017.4248,342.70142099261284L1019.8472399999999,298.5635594129563L1022.26968,339.8308873772621L1024.69212,293.8025713562966L1027.11456,283.4319778382778L1029.537,338.2095926105976L1031.95944,297.8731588125229L1034.38188,328.42469295859337L1036.80432,326.2194142341614L1039.22676,307.47871926426893L1041.6492,290.6988867223263L1044.0716400000001,304.2011269032955L1046.49408,352.04174450039864L1048.91652,327.6726350784302L1051.33896,314.4467965364456L1053.7614,315.04928773641586L1056.18384,309.47448393702507L1058.60628,312.32258757948875L1061.02872,302.3804769515992L1063.45116,305.50266882777214L1065.8736000000001,336.2567768096924L1068.29604,278.349024116993L1070.71848,326.50476774573326L1073.14092,341.0625242292881L1075.56336,304.2668074965477L1077.9858000000002,309.42026978731155L1080.40824,318.9283654689789L1082.83068,290.287301748991L1085.25312,336.1208893954754L1087.6755600000001,311.55061429739L1090.098,367.48794919252396" style="fill: none;" fill="none"></path></g></g></g></g></g></g><g transform="translate(70, 378)" clip-path="url(#clip_1)"><clipPath id="clip_1"><rect width="1211" height="22"></rect></clipPath><g><g><line x1="0" y1="0" x2="0" y2="5" style="visibility: inherit;" fill="rgb(0, 0, 0)" stroke="rgb(204, 204, 204)" stroke-width="1px"></line><line x1="121.12200000000001" y1="0" x2="121.12200000000001" y2="5" style="visibility: inherit;" fill="rgb(0, 0, 0)" stroke="rgb(204, 204, 204)" stroke-width="1px"></line><line x1="242.24400000000003" y1="0" x2="242.24400000000003" y2="5" style="visibility: inherit;" fill="rgb(0, 0, 0)" stroke="rgb(204, 204, 204)" stroke-width="1px"></line><line x1="363.366" y1="0" x2="363.366" y2="5" style="visibility: inherit;" fill="rgb(0, 0, 0)" stroke="rgb(204, 204, 204)" stroke-width="1px"></line><line x1="484.48800000000006" y1="0" x2="484.48800000000006" y2="5" style="visibility: inherit;" fill="rgb(0, 0, 0)" stroke="rgb(204, 204, 204)" stroke-width="1px"></line><line x1="605.61" y1="0" x2="605.61" y2="5" style="visibility: inherit;" fill="rgb(0, 0, 0)" stroke="rgb(204, 204, 204)" stroke-width="1px"></line><line x1="726.732" y1="0" x2="726.732" y2="5" style="visibility: inherit;" fill="rgb(0, 0, 0)" stroke="rgb(204, 204, 204)" stroke-width="1px"></line><line x1="847.8539999999999" y1="0" x2="847.8539999999999" y2="5" style="visibility: inherit;" fill="rgb(0, 0, 0)" stroke="rgb(204, 204, 204)" stroke-width="1px"></line><line x1="968.9760000000001" y1="0" x2="968.9760000000001" y2="5" style="visibility: inherit;" fill="rgb(0, 0, 0)" stroke="rgb(204, 204, 204)" stroke-width="1px"></line><line x1="1090.098" y1="0" x2="1090.098" y2="5" style="visibility: inherit;" fill="rgb(0, 0, 0)" stroke="rgb(204, 204, 204)" stroke-width="1px"></line><line x1="1211.22" y1="0" x2="1211.22" y2="5" style="visibility: inherit;" fill="rgb(0, 0, 0)" stroke="rgb(204, 204, 204)" stroke-width="1px"></line></g><g transform="translate(0, 8)"><text x="0" y="0" dx="0em" dy="0.95em" style="text-anchor: middle; visibility: hidden; font-family: Roboto, sans-serif; font-size: 12px; font-weight: 200;" fill="rgb(50, 49, 63)" stroke="none" stroke-width="1px">-50</text><text x="121.12200000000001" y="0" dx="0em" dy="0.95em" style="text-anchor: middle; visibility: inherit; font-family: Roboto, sans-serif; font-size: 12px; font-weight: 200;" fill="rgb(50, 49, 63)" stroke="none" stroke-width="1px">0</text><text x="242.24400000000003" y="0" dx="0em" dy="0.95em" style="text-anchor: middle; visibility: inherit; font-family: Roboto, sans-serif; font-size: 12px; font-weight: 200;" fill="rgb(50, 49, 63)" stroke="none" stroke-width="1px">50</text><text x="363.366" y="0" dx="0em" dy="0.95em" style="text-anchor: middle; visibility: inherit; font-family: Roboto, sans-serif; font-size: 12px; font-weight: 200;" fill="rgb(50, 49, 63)" stroke="none" stroke-width="1px">100</text><text x="484.48800000000006" y="0" dx="0em" dy="0.95em" style="text-anchor: middle; visibility: inherit; font-family: Roboto, sans-serif; font-size: 12px; font-weight: 200;" fill="rgb(50, 49, 63)" stroke="none" stroke-width="1px">150</text><text x="605.61" y="0" dx="0em" dy="0.95em" style="text-anchor: middle; visibility: inherit; font-family: Roboto, sans-serif; font-size: 12px; font-weight: 200;" fill="rgb(50, 49, 63)" stroke="none" stroke-width="1px">200</text><text x="726.732" y="0" dx="0em" dy="0.95em" style="text-anchor: middle; visibility: inherit; font-family: Roboto, sans-serif; font-size: 12px; font-weight: 200;" fill="rgb(50, 49, 63)" stroke="none" stroke-width="1px">250</text><text x="847.8539999999999" y="0" dx="0em" dy="0.95em" style="text-anchor: middle; visibility: inherit; font-family: Roboto, sans-serif; font-size: 12px; font-weight: 200;" fill="rgb(50, 49, 63)" stroke="none" stroke-width="1px">300</text><text x="968.9760000000001" y="0" dx="0em" dy="0.95em" style="text-anchor: middle; visibility: inherit; font-family: Roboto, sans-serif; font-size: 12px; font-weight: 200;" fill="rgb(50, 49, 63)" stroke="none" stroke-width="1px">350</text><text x="1090.098" y="0" dx="0em" dy="0.95em" style="text-anchor: middle; visibility: inherit; font-family: Roboto, sans-serif; font-size: 12px; font-weight: 200;" fill="rgb(50, 49, 63)" stroke="none" stroke-width="1px">400</text><text x="1211.22" y="0" dx="0em" dy="0.95em" style="text-anchor: middle; visibility: hidden; font-family: Roboto, sans-serif; font-size: 12px; font-weight: 200;" fill="rgb(50, 49, 63)" stroke="none" stroke-width="1px">450</text></g><line x1="0" y1="0" x2="1211.22" y2="0" fill="rgb(0, 0, 0)" stroke="rgb(204, 204, 204)" stroke-width="1px"></line></g></g></g></g></svg>