<svg viewBox="0 0 1281.2222900390625 400" xmlns="http://www.w3.org/2000/svg"><g><g><g><g><g><line x1="61.953125" y1="378" x2="56.953125" y2="378" style="visibility: inherit;" fill="rgb(0, 0, 0)" stroke="rgb(204, 204, 204)" stroke-width="1px"></line><line x1="61.953125" y1="343.6363636363637" x2="56.953125" y2="343.6363636363637" style="visibility: inherit;" fill="rgb(0, 0, 0)" stroke="rgb(204, 204, 204)" stroke-width="1px"></line><line x1="61.953125" y1="309.27272727272725" x2="56.953125" y2="309.27272727272725" style="visibility: inherit;" fill="rgb(0, 0, 0)" stroke="rgb(204, 204, 204)" stroke-width="1px"></line><line x1="61.953125" y1="274.90909090909093" x2="56.953125" y2="274.90909090909093" style="visibility: inherit;" fill="rgb(0, 0, 0)" stroke="rgb(204, 204, 204)" stroke-width="1px"></line><line x1="61.953125" y1="240.54545454545453" x2="56.953125" y2="240.54545454545453" style="visibility: inherit;" fill="rgb(0, 0, 0)" stroke="rgb(204, 204, 204)" stroke-width="1px"></line><line x1="61.953125" y1="206.18181818181816" x2="56.953125" y2="206.18181818181816" style="visibility: inherit;" fill="rgb(0, 0, 0)" stroke="rgb(204, 204, 204)" stroke-width="1px"></line><line x1="61.953125" y1="171.81818181818187" x2="56.953125" y2="171.81818181818187" style="visibility: inherit;" fill="rgb(0, 0, 0)" stroke="rgb(204, 204, 204)" stroke-width="1px"></line><line x1="61.953125" y1="137.45454545454547" x2="56.953125" y2="137.45454545454547" style="visibility: inherit;" fill="rgb(0, 0, 0)" stroke="rgb(204, 204, 204)" stroke-width="1px"></line><line x1="61.953125" y1="103.09090909090908" x2="56.953125" y2="103.09090909090908" style="visibility: inherit;" fill="rgb(0, 0, 0)" stroke="rgb(204, 204, 204)" stroke-width="1px"></line><line x1="61.953125" y1="68.72727272727266" x2="56.953125" y2="68.72727272727266" style="visibility: inherit;" fill="rgb(0, 0, 0)" stroke="rgb(204, 204, 204)" stroke-width="1px"></line><line x1="61.953125" y1="34.36363636363642" x2="56.953125" y2="34.36363636363642" style="visibility: inherit;" fill="rgb(0, 0, 0)" stroke="rgb(204, 204, 204)" stroke-width="1px"></line><line x1="61.953125" y1="0" x2="56.953125" y2="0" style="visibility: inherit;" fill="rgb(0, 0, 0)" stroke="rgb(204, 204, 204)" stroke-width="1px"></line></g><g transform="translate(51.953125, 0)"><text x="0" y="378" dx="0em" dy="0.3em" style="text-anchor: end; visibility: hidden; font-family: Roboto, sans-serif; font-size: 12px; font-weight: 200;" fill="rgb(50, 49, 63)" stroke="none" stroke-width="1px">0.012</text><text x="0" y="343.6363636363637" dx="0em" dy="0.3em" style="text-anchor: end; visibility: inherit; font-family: Roboto, sans-serif; font-size: 12px; font-weight: 200;" fill="rgb(50, 49, 63)" stroke="none" stroke-width="1px">0.013</text><text x="0" y="309.27272727272725" dx="0em" dy="0.3em" style="text-anchor: end; visibility: inherit; font-family: Roboto, sans-serif; font-size: 12px; font-weight: 200;" fill="rgb(50, 49, 63)" stroke="none" stroke-width="1px">0.014</text><text x="0" y="274.90909090909093" dx="0em" dy="0.3em" style="text-anchor: end; visibility: inherit; font-family: Roboto, sans-serif; font-size: 12px; font-weight: 200;" fill="rgb(50, 49, 63)" stroke="none" stroke-width="1px">0.015</text><text x="0" y="240.54545454545453" dx="0em" dy="0.3em" style="text-anchor: end; visibility: inherit; font-family: Roboto, sans-serif; font-size: 12px; font-weight: 200;" fill="rgb(50, 49, 63)" stroke="none" stroke-width="1px">0.016</text><text x="0" y="206.18181818181816" dx="0em" dy="0.3em" style="text-anchor: end; visibility: inherit; font-family: Roboto, sans-serif; font-size: 12px; font-weight: 200;" fill="rgb(50, 49, 63)" stroke="none" stroke-width="1px">0.017</text><text x="0" y="171.81818181818187" dx="0em" dy="0.3em" style="text-anchor: end; visibility: inherit; font-family: Roboto, sans-serif; font-size: 12px; font-weight: 200;" fill="rgb(50, 49, 63)" stroke="none" stroke-width="1px">0.018</text><text x="0" y="137.45454545454547" dx="0em" dy="0.3em" style="text-anchor: end; visibility: inherit; font-family: Roboto, sans-serif; font-size: 12px; font-weight: 200;" fill="rgb(50, 49, 63)" stroke="none" stroke-width="1px">0.019</text><text x="0" y="103.09090909090908" dx="0em" dy="0.3em" style="text-anchor: end; visibility: inherit; font-family: Roboto, sans-serif; font-size: 12px; font-weight: 200;" fill="rgb(50, 49, 63)" stroke="none" stroke-width="1px">0.02</text><text x="0" y="68.72727272727266" dx="0em" dy="0.3em" style="text-anchor: end; visibility: inherit; font-family: Roboto, sans-serif; font-size: 12px; font-weight: 200;" fill="rgb(50, 49, 63)" stroke="none" stroke-width="1px">0.021</text><text x="0" y="34.36363636363642" dx="0em" dy="0.3em" style="text-anchor: end; visibility: inherit; font-family: Roboto, sans-serif; font-size: 12px; font-weight: 200;" fill="rgb(50, 49, 63)" stroke="none" stroke-width="1px">0.022</text><text x="0" y="0" dx="0em" dy="0.3em" style="text-anchor: end; visibility: hidden; font-family: Roboto, sans-serif; font-size: 12px; font-weight: 200;" fill="rgb(50, 49, 63)" stroke="none" stroke-width="1px">0.023</text></g><line x1="61.953125" y1="0" x2="61.953125" y2="378" fill="rgb(0, 0, 0)" stroke="rgb(204, 204, 204)" stroke-width="1px"></line></g></g><g transform="translate(61, 0)" clip-path="url(#clip_0)"><clipPath id="clip_0"><rect width="1219" height="378"></rect></clipPath><g><g><g><line x1="0" y1="0" x2="0" y2="378" fill="rgb(0, 0, 0)" stroke="rgb(60, 60, 60)" stroke-width="1px" opacity="0.25"></line><line x1="121.92668750000001" y1="0" x2="121.92668750000001" y2="378" fill="rgb(0, 0, 0)" stroke="rgb(60, 60, 60)" stroke-width="1px" opacity="0.25"></line><line x1="243.85337500000003" y1="0" x2="243.85337500000003" y2="378" fill="rgb(0, 0, 0)" stroke="rgb(60, 60, 60)" stroke-width="1px" opacity="0.25"></line><line x1="365.7800625" y1="0" x2="365.7800625" y2="378" fill="rgb(0, 0, 0)" stroke="rgb(60, 60, 60)" stroke-width="1px" opacity="0.25"></line><line x1="487.70675000000006" y1="0" x2="487.70675000000006" y2="378" fill="rgb(0, 0, 0)" stroke="rgb(60, 60, 60)" stroke-width="1px" opacity="0.25"></line><line x1="609.6334375" y1="0" x2="609.6334375" y2="378" fill="rgb(0, 0, 0)" stroke="rgb(60, 60, 60)" stroke-width="1px" opacity="0.25"></line><line x1="731.560125" y1="0" x2="731.560125" y2="378" fill="rgb(0, 0, 0)" stroke="rgb(60, 60, 60)" stroke-width="1px" opacity="0.25"></line><line x1="853.4868124999999" y1="0" x2="853.4868124999999" y2="378" fill="rgb(0, 0, 0)" stroke="rgb(60, 60, 60)" stroke-width="1px" opacity="0.25"></line><line x1="975.4135000000001" y1="0" x2="975.4135000000001" y2="378" fill="rgb(0, 0, 0)" stroke="rgb(60, 60, 60)" stroke-width="1px" opacity="0.25"></line><line x1="1097.3401875" y1="0" x2="1097.3401875" y2="378" fill="rgb(0, 0, 0)" stroke="rgb(60, 60, 60)" stroke-width="1px" opacity="0.25"></line><line x1="1219.266875" y1="0" x2="1219.266875" y2="378" fill="rgb(0, 0, 0)" stroke="rgb(60, 60, 60)" stroke-width="1px" opacity="0.25"></line></g><g><line x1="0" y1="378" x2="1219.266875" y2="378" fill="rgb(0, 0, 0)" stroke="rgb(60, 60, 60)" stroke-width="1px" opacity="0.25"></line><line x1="0" y1="343.6363636363637" x2="1219.266875" y2="343.6363636363637" fill="rgb(0, 0, 0)" stroke="rgb(60, 60, 60)" stroke-width="1px" opacity="0.25"></line><line x1="0" y1="309.27272727272725" x2="1219.266875" y2="309.27272727272725" fill="rgb(0, 0, 0)" stroke="rgb(60, 60, 60)" stroke-width="1px" opacity="0.25"></line><line x1="0" y1="274.90909090909093" x2="1219.266875" y2="274.90909090909093" fill="rgb(0, 0, 0)" stroke="rgb(60, 60, 60)" stroke-width="1px" opacity="0.25"></line><line x1="0" y1="240.54545454545453" x2="1219.266875" y2="240.54545454545453" fill="rgb(0, 0, 0)" stroke="rgb(60, 60, 60)" stroke-width="1px" opacity="0.25"></line><line x1="0" y1="206.18181818181816" x2="1219.266875" y2="206.18181818181816" fill="rgb(0, 0, 0)" stroke="rgb(60, 60, 60)" stroke-width="1px" opacity="0.25"></line><line x1="0" y1="171.81818181818187" x2="1219.266875" y2="171.81818181818187" fill="rgb(0, 0, 0)" stroke="rgb(60, 60, 60)" stroke-width="1px" opacity="0.25"></line><line x1="0" y1="137.45454545454547" x2="1219.266875" y2="137.45454545454547" fill="rgb(0, 0, 0)" stroke="rgb(60, 60, 60)" stroke-width="1px" opacity="0.25"></line><line x1="0" y1="103.09090909090908" x2="1219.266875" y2="103.09090909090908" fill="rgb(0, 0, 0)" stroke="rgb(60, 60, 60)" stroke-width="1px" opacity="0.25"></line><line x1="0" y1="68.72727272727266" x2="1219.266875" y2="68.72727272727266" fill="rgb(0, 0, 0)" stroke="rgb(60, 60, 60)" stroke-width="1px" opacity="0.25"></line><line x1="0" y1="34.36363636363642" x2="1219.266875" y2="34.36363636363642" fill="rgb(0, 0, 0)" stroke="rgb(60, 60, 60)" stroke-width="1px" opacity="0.25"></line><line x1="0" y1="0" x2="1219.266875" y2="0" fill="rgb(0, 0, 0)" stroke="rgb(60, 60, 60)" stroke-width="1px" opacity="0.25"></line></g></g></g><g><g><line x1="0" y1="790.3636363636364" x2="1219.266875" y2="790.3636363636364" fill="rgb(0, 0, 0)" stroke="rgb(153, 153, 153)" stroke-width="1.5px"></line></g></g><g><g><line x1="121.92668750000001" y1="0" x2="121.92668750000001" y2="378" fill="rgb(0, 0, 0)" stroke="rgb(153, 153, 153)" stroke-width="1.5px"></line></g></g><g><g><g><g><g><path stroke="rgb(0, 153, 136)" stroke-width="2px" d="M151.18909250000002,-9.665808491854781L153.62762625,11.377104682689081L156.06616,30.13415043074133L158.50469375,31.49195490343427L160.9432275,33.043442060606736L163.38176125,49.30800160244976L165.82029500000002,59.050815354653345L168.25882875000002,77.19925075218063L170.69736250000003,73.55453156095801L173.13589625,65.80184788146751L175.57442999999998,78.18269792068298L178.01296374999998,85.57408155782407L180.4514975,92.43839668234506L182.89003125,96.59501096437938L185.328565,95.69399547504938L187.76709875,106.45290767557056L190.2056325,108.96854743440873L192.64416625,124.18552545481629L195.08270000000002,115.20403099989127L197.52123375000002,115.50673877238611L199.95976750000003,121.03955004110861L202.39830125,133.0404136733747L204.836835,129.38709198347425L207.27536875,136.16384774935426L209.7139025,137.27455786821884L212.15243625,141.67040539749078L214.59097,134.5820362188976L217.02950375,147.08442579477833L219.4680375,155.195157438233L221.90657125,154.79300517715694L224.345105,141.48547646231856L226.78363875,126.66951551936256L229.2221725,139.07689555335628L231.66070625,142.99257769318362L234.09924,142.2884310003683L236.53777375,139.6751280723061L238.97630750000002,146.26098003553147L241.41484125000002,158.527904861916L243.85337500000003,171.6797183271538L246.29190875000003,179.42033813804989L248.73044249999998,161.06736214942183L251.16897625,158.75252468360733L253.60751,146.78734409737754L256.04604375,147.3301740739619L258.4845775,152.55613991560162L260.92311125,164.35502533173707L263.361645,175.40802973000586L265.80017875,165.65824934480983L268.2387125,171.80009017804696L270.67724625,157.29986144770965L273.11578000000003,153.67365656460822L275.55431375,166.8865592240316L277.99284750000004,171.33875777585538L280.43138125,168.65195231486206L282.86991500000005,162.59105719292018L285.30844875,176.38308270671277L287.7469825,151.82820597501308L290.18551625,166.96403766075528L292.62405,173.69385871258498L295.06258375,173.93207553226205L297.5011175,169.9604140905808L299.93965125,170.60242596361286L302.37818500000003,188.59825792639137L304.81671875,194.23108805635601L307.2552525,178.3508990133943L309.69378625,181.07956151949583L312.13232,176.13215290668848L314.57085375,167.96913449915732L317.0093875,178.631027650008L319.44792125000004,180.60925588731672L321.886455,179.15497162611467L324.32498875000005,190.4573245164389L326.7635225,174.66870084720844L329.20205625000006,177.42708371687908L331.64059000000003,173.78159538111834L334.07912375,172.14112920827165L336.51765750000004,174.1175437471712L338.95619125,175.45391194449707L341.39472500000005,171.58379170715554L343.83325874999997,180.0371626635124L346.2717925,177.29884008070033L348.71032625,178.02931256213094L351.14885999999996,181.7882159213052L353.58739375,183.549575502537L356.02592749999997,184.37847419779334L358.46446125,180.5628505794619L360.902995,184.9549383116449L363.34152875,184.03558613885275L365.7800625,193.44071386527864L368.21859625,188.21627935875028L370.65713,183.75024203180968L373.09566375,184.71086616240666L375.5341975,192.77496360115026L377.97273125,188.3449915116972L380.411265,178.94371534112042L382.84979875,185.38275829659395L385.2883325,184.51743006964782L387.72686625,179.88533139167205L390.16540000000003,183.6016826062407L392.60393375,187.681866429714L395.04246750000004,202.1504634525095L397.48100125,200.15702840719902L399.91953500000005,208.89069534614796L402.35806875000003,197.6640036084578L404.7966025,184.5514572520775L407.23513625000004,187.81049076566347L409.67367,192.60430004290114L412.11220375000005,192.20402833711296L414.5507375,193.70540046247731L416.98927125000006,193.83196631078388L419.427805,192.3807693909781L421.86633874999995,203.32597076298404L424.3048725,203.24040734736363L426.74340624999996,201.43224921532695L429.18194,197.24108198002813L431.62047375,211.90390774980145L434.0590075,216.1271579152478L436.49754125,220.20637129950234L438.936075,212.0815896734783L441.37460875,200.43480373402667L443.8131425,200.4786466266797L446.25167625,196.2848512604396L448.69021,191.87185968930157L451.12874375,196.7467868770908L453.5672775,194.83174457064135L456.00581125,202.95168740045995L458.444345,213.81419502789964L460.88287875000003,210.5017973618329L463.3214125,210.19565027736977L465.75994625000004,197.844335407353L468.19848,201.39330489167855L470.63701375,194.08962935535598L473.0755475,196.38952600935013L475.51408125,204.69976053116977L477.95261500000004,210.5229369923531L480.39114875,208.1146053562145L482.82968250000005,193.20788096073207L485.26821625,197.42389271666372L487.70675000000006,201.81047841424692L490.14528375000003,208.3103117810945L492.58381750000007,209.596590528379L495.02235125000004,212.7712159419272L497.46088499999996,209.61265843730814L499.89941875,219.5123722682423L502.3379525,214.94200355589544L504.77648625,220.6514546332478L507.21502,220.97602471023754L509.65355375,218.723641169835L512.0920875,217.17588797593427L514.53062125,209.32101039194387L516.969155,201.48301895376588L519.40768875,201.90185465654574L521.8462225,202.5749383225491L524.28475625,205.35059036449377L526.72329,211.49853806278583L529.16182375,205.32353179693015L531.6003575,208.8190120152114L534.03889125,202.47276956496594L536.477425,197.92003078744494L538.9159587500001,197.609398145211L541.3544925,195.44882982026743L543.79302625,205.70795000442772L546.2315600000001,200.50835486722977L548.67009375,205.45384545608158L551.1086275,209.31949451312246L553.54716125,222.06223590709564L555.9856950000001,218.58308601645766L558.42422875,202.13533674421612L560.8627625,204.06491509793557L563.3012962500001,207.2619078294267L565.7398300000001,215.0339514921694L568.17836375,217.53319462113203L570.6168975,203.23513411700654L573.05543125,213.55060106592794L575.493965,217.15864763631149L577.93249875,226.30863913173613L580.3710325,224.83479769502256L582.80956625,215.40298885768973L585.2481,218.80838137286878L587.6866337499999,222.5212846786313L590.1251675,212.5457608000575L592.56370125,206.16424152990652L595.002235,207.43343146451232L597.44076875,215.33743882498263L599.8793025,213.24228043097375L602.31783625,212.16857899758998L604.7563700000001,218.1669292292116L607.19490375,216.39032799250592L609.6334375,224.10309105391605L612.07197125,226.99794433226822L614.510505,227.16061052670105L616.94903875,224.7048582071013L619.3875725,227.08438787337542L621.8261062500001,226.93627252049907L624.26464,210.69965160897874L626.70317375,221.40065078471278L629.1417075,216.4437292954466L631.5802412500001,234.75872410943592L634.018775,235.07184759363008L636.45730875,227.96811697018646L638.8958425000001,228.09821043472806L641.33437625,219.1304788159644L643.77291,219.6582220545707L646.2114437500001,229.9668878298687L648.6499775000001,225.00322583804646L651.08851125,225.84062946080692L653.527045,223.09342301468138L655.9655787500001,222.6268780005958L658.4041125000001,229.68354000884213L660.84264625,229.6801541516007L663.2811800000001,225.4220238520722L665.7197137500001,225.38153008837168L668.1582475,224.96799287709604L670.59678125,220.3795382102202L673.0353150000001,226.6617559168479L675.4738487500001,233.63667256242118L677.9123825,235.24110583211444L680.3509162500001,233.2675223248656L682.7894500000001,233.422890567086L685.2279837500001,224.24299562824413L687.6665174999999,212.71143778312157L690.10505125,204.6130796896476L692.543585,203.77630669148212L694.9821187499999,191.43947963117793L697.4206525,202.58164373971738L699.85918625,210.60190323445735L702.2977199999999,219.69227862574238L704.73625375,226.76903671047546L707.1747875,230.25494133463556L709.61332125,229.09396796407572L712.0518549999999,226.35865028056497L714.49038875,229.24308022850366L716.9289225,227.3446289338468L719.36745625,216.72354817724118L721.80599,215.42626584101524L724.24452375,209.51210746755214L726.6830575,211.23404708856344L729.1215912499999,214.58673157306907L731.560125,226.27798106135907L733.99865875,231.45905075316085L736.4371925,231.90217420853753L738.87572625,240.747274255413L741.31426,232.31184742191923L743.75279375,229.66937449343334L746.1913275,224.23674714047291L748.62986125,229.9693459447213L751.068395,233.6521328174844L753.50692875,227.53694382104825L755.9454625,230.15185844395867L758.38399625,230.7670478292148L760.82253,237.70448412974451L763.2610637500001,231.00921507709546L765.6995975,233.25070918818315L768.13813125,230.52348933947084L770.576665,229.62580121736744L773.0151987500001,228.94350484554937L775.4537325,219.70465826283518L777.89226625,212.11736805666413L780.3308000000001,221.6009668858041L782.76933375,228.08258876184485L785.2078675,221.7546461445518L787.64640125,226.62149372017768L790.0849350000001,226.3332767332035L792.52346875,223.13441609842565L794.9620025,228.79786065845755L797.4005362500001,235.7315092487333L799.8390700000001,234.26594665286305L802.27760375,229.07523363991808L804.7161375000001,228.28388534773836L807.1546712500001,233.23917072831713L809.593205,225.67953758131935L812.03173875,231.39021918752314L814.4702725000001,226.0245908376107L816.9088062500001,228.8052800375864L819.34734,229.2762713294955L821.7858737500001,226.03099072455854L824.2244075000001,224.17522472970833L826.6629412500001,219.99801920065264L829.101475,224.4906081959869L831.5400087500001,225.5323419942526L833.9785425000001,222.20954245499465L836.41707625,226.95260130486085L838.85561,224.53245687502795L841.29414375,221.00697022362186L843.7326774999999,218.2785398822047L846.1712112499999,224.27706140968576L848.609745,225.1092940686113L851.04827875,231.7835933127057L853.4868124999999,238.00973685946556L855.92534625,241.75387194591835L858.36388,231.42433445302945L860.80241375,234.6154273656993L863.2409475,230.57495000030713L865.67948125,236.10021172801325L868.118015,240.2905528400358L870.5565487499999,227.97053720622807L872.9950825,231.59970759953424L875.43361625,222.88235479141315L877.87215,214.4173745973518L880.31068375,224.18891583193283L882.7492175,225.67141408454194L885.18775125,226.2308147918306L887.626285,233.6136034005466L890.06481875,235.68985760867278L892.5033525,224.55243266347134L894.94188625,242.25012562760114L897.38042,239.03314958321636L899.81895375,236.6083670526112L902.2574875,231.40236482925314L904.6960212500001,232.9183425800248L907.134555,228.0339663996409L909.57308875,227.86133674120478L912.0116225,227.59049517278848L914.45015625,232.67896666961087L916.88869,241.4808104711278L919.32722375,242.4838890793786L921.7657575000001,242.94013252795574L924.20429125,243.77156105710662L926.642825,246.06674353849323L929.08135875,249.53540547993285L931.5198925000001,245.86337403458444L933.95842625,249.65154199276353L936.39696,246.1078981752904L938.8354937500001,249.44530764088213L941.2740275,239.09375035953357L943.71256125,233.98614754574413L946.151095,232.3965435674332L948.5896287500001,229.98756330964767L951.0281625,221.3779960953842L953.46669625,218.2612561925982L955.9052300000001,207.42138837029768L958.3437637500001,218.39055371433628L960.7822975,230.36678966590034L963.2208312500001,233.1101713233595L965.6593650000001,242.35639683651627L968.09789875,235.52138992370516L970.5364325,238.5949596147293L972.9749662500001,233.5620077349169L975.4135000000001,236.5669328108248L977.85203375,229.2375111367648L980.2905675000001,234.10014696148193L982.7291012500001,236.37381541485064L985.1676350000001,236.16159446743353L987.60616875,240.61664409571316L990.0447025000001,239.4659825370895L992.48323625,227.79334784566308L994.9217699999999,234.2880533918513L997.36030375,232.93497560366993L999.7988375,233.66199148968943L1002.2373712499999,231.82371581794828L1004.675905,234.99195491358483L1007.11443875,236.86942050778504L1009.5529725,236.20321011281015L1011.9915062499999,231.85574646922464L1014.43004,228.08576692963604L1016.86857375,231.08471517350165L1019.3071075,225.86043940156418L1021.74564125,225.92027149084856L1024.184175,239.55067281957116L1026.62270875,241.86339066862627L1029.0612425,245.70429166167176L1031.49977625,235.82702162921484L1033.93831,231.7911268525019L1036.37684375,229.22739145636362L1038.8153775,240.51923918359816L1041.25391125,237.87302952461178L1043.692445,233.0263356522972L1046.13097875,234.4020692506638L1048.5695125,247.09213845887658L1051.00804625,238.27583622853734L1053.44658,237.26755175651675L1055.88511375,229.47715160319868L1058.3236475,230.19367980619256L1060.76218125,240.65222871317644L1063.200715,246.1994418871164L1065.63924875,251.54668680477874L1068.0777825,246.1600875985277L1070.51631625,238.69325409720253L1072.95485,230.77634814668193L1075.39338375,238.77872954291297L1077.8319175000001,237.0401781262615L1080.27045125,235.23208370359512L1082.708985,232.55444477475214L1085.14751875,222.76606932620678L1087.5860525,229.59812684207893L1090.02458625,233.15452857605285L1092.4631200000001,227.03414690912223L1094.9016537500002,226.61819768094216L1097.3401875,234.51580510875044" style="fill: none;" fill="none"></path></g><g><path stroke="rgb(238, 51, 119)" stroke-width="2px" d="M129.24228875,-91.36301040804233L131.6808225,4.259574113991489L134.11935625,70.15978169404383L136.55789000000001,101.19586771055393L138.99642375000002,131.7536520639924L141.43495750000002,154.11753186045908L143.87349125,172.58968474287354L146.312025,183.41883150071976L148.75055875,187.92759830328578L151.18909250000002,198.9212043179901L153.62762625,209.53532813605003L156.06616,212.22317537987314L158.50469375,213.19305991157717L160.9432275,216.51639106637154L163.38176125,219.28699492806146L165.82029500000002,222.54230839398377L168.25882875000002,224.97879957754316L170.69736250000003,231.0428383586661L173.13589625,232.85116321135743L175.57442999999998,234.55040569791794L178.01296374999998,237.84203334946852L180.4514975,236.96409937255243L182.89003125,243.84846898831785L185.328565,246.73307236706378L187.76709875,248.38702245380784L190.2056325,244.80532736069995L192.64416625,244.58569608060427L195.08270000000002,246.45583449179793L197.52123375000002,249.134318028689L199.95976750000003,250.6798585367661L202.39830125,246.99200302545304L204.836835,252.09063459397322L207.27536875,254.3316470198564L209.7139025,259.33193956645084L212.15243625,261.2292443518306L214.59097,259.8655833900768L217.02950375,255.74338322343553L219.4680375,261.95323690577146L221.90657125,260.87576263993816L224.345105,258.1664520859404L226.78363875,263.2201770155312L229.2221725,264.4829056503332L231.66070625,265.6065107442198L234.09924,267.85864479571995L236.53777375,269.5842524878837L238.97630750000002,267.98190349737393L241.41484125000002,269.0312821943226L243.85337500000003,267.8354735464589L246.29190875000003,261.6936802581907L248.73044249999998,265.46799763212204L251.16897625,266.08167438716634L253.60751,268.675297677585L256.04604375,271.9325670134366L258.4845775,272.81707285721086L260.92311125,271.53830390825505L263.361645,272.7865287630131L265.80017875,272.40806539086896L268.2387125,269.2134955539011L270.67724625,276.02400281619356L273.11578000000003,277.8727541595723L275.55431375,277.19447419930736L277.99284750000004,276.8588359143418L280.43138125,277.6852815337989L282.86991500000005,278.2927391635729L285.30844875,276.88763061101264L287.7469825,275.45924468435226L290.18551625,274.8640668313997L292.62405,274.4725242134347L295.06258375,272.9483772014518L297.5011175,272.9762038845601L299.93965125,275.54244989940577L302.37818500000003,275.3045110586989L304.81671875,275.2015090645486L307.2552525,273.78149940139855L309.69378625,274.33853663652314L312.13232,275.70876769593684L314.57085375,279.84106741552165L317.0093875,278.9168355628852L319.44792125000004,279.47479384603844L321.886455,279.35909851740183L324.32498875000005,284.98689077597L326.7635225,282.9539540986107L329.20205625000006,283.5045049053905L331.64059000000003,279.59619778496165L334.07912375,278.07336117198446L336.51765750000004,278.98847465356596L338.95619125,278.9071864388447L341.39472500000005,278.656176169475L343.83325874999997,281.11640056411574L346.2717925,281.7347867032841L348.71032625,282.78785415264963L351.14885999999996,285.4370754613134L353.58739375,286.4914947465884L356.02592749999997,285.29325703314277L358.46446125,288.11376229787123L360.902995,288.0048115337474L363.34152875,282.3136765237852L365.7800625,287.2696474321227L368.21859625,287.3789818747637L370.65713,283.1450484281333L373.09566375,278.06650604465364L375.5341975,278.9558015374955L377.97273125,284.9386497643579L380.411265,285.18659083126283L382.84979875,283.2088038487116L385.2883325,286.45371274997797L387.72686625,284.86654840347444L390.16540000000003,286.28953363289077L392.60393375,289.2783253516316L395.04246750000004,286.75125110951967L397.48100125,287.9466869602892L399.91953500000005,291.25612731127967L402.35806875000003,290.60455156989497L404.7966025,285.0368269036594L407.23513625000004,288.91118012696074L409.67367,287.90014328584084L412.11220375000005,284.9396157688852L414.5507375,285.25686153930155L416.98927125000006,289.05638640402606L419.427805,287.2213305690437L421.86633874999995,285.29108300720577L424.3048725,286.16684198382995L426.74340624999996,286.1932071561372L429.18194,287.44003949795155L431.62047375,284.3662781751014L434.0590075,284.20833106579795L436.49754125,287.6923751582701L438.936075,291.3281801118092L441.37460875,288.3065512755242L443.8131425,288.99537456233935L446.25167625,291.585785892983L448.69021,287.4159145832699L451.12874375,290.15576399124245L453.5672775,294.3055578878372L456.00581125,295.33679836728L458.444345,291.97859233461514L460.88287875000003,287.48741982485467L463.3214125,289.3451047134193L465.75994625000004,292.4201300236838L468.19848,293.4097649808679L470.63701375,295.77960662037407L473.0755475,295.5843681654567L475.51408125,293.41944080468505L477.95261500000004,293.14151540758473L480.39114875,293.80630409445814L482.82968250000005,296.18196474096504L485.26821625,294.2590133132689L487.70675000000006,289.10265082773117L490.14528375000003,290.55304160292695L492.58381750000007,296.4739481846491L495.02235125000004,296.6584300818226L497.46088499999996,292.601222440026L499.89941875,294.3189336358764L502.3379525,294.5079288839852L504.77648625,293.48148473639435L507.21502,293.2201032583988L509.65355375,292.5564136764994L512.0920875,296.62053010614085L514.53062125,301.58518731879377L516.969155,308.7193586063163L519.40768875,307.85948948724456L521.8462225,308.1993066854353L524.28475625,307.6696353937162L526.72329,308.83493205219344L529.16182375,311.125791397641L531.6003575,309.28063938598467L534.03889125,307.206308861422L536.477425,310.0694533032895L538.9159587500001,310.0555211217291L541.3544925,308.8251607966529L543.79302625,308.2636302437196L546.2315600000001,311.35353262903425L548.67009375,311.7222367842108L551.1086275,312.0870275628036L553.54716125,311.3004759807268L555.9856950000001,312.10611715125856L558.42422875,307.8177861800443L560.8627625,308.2669800158911L563.3012962500001,307.41433382631595L565.7398300000001,311.5963601267413L568.17836375,310.6914030246129L570.6168975,305.87091314876136L573.05543125,307.2876520129359L575.493965,307.62915764611137L577.93249875,307.83019498747746L580.3710325,310.04605666311426L582.80956625,310.63965659067316L585.2481,307.4829700719108L587.6866337499999,308.5611097029051L590.1251675,306.13536334158727L592.56370125,308.7680080524029L595.002235,308.09672835469433L597.44076875,310.53967213576607L599.8793025,313.497447648591L602.31783625,313.03975733184853L604.7563700000001,312.81459515132923L607.19490375,312.12845933666154L609.6334375,311.55551795554896L612.07197125,314.3286378867627" style="fill: none;" fill="none"></path></g><g><path style="fill: none;" fill="none" stroke="none" stroke-width="1px"></path></g><g><path stroke="rgb(255, 112, 67)" stroke-width="2px" d="M143.87349125,-10.083157925835094L146.312025,3.1946169899947563L148.75055875,49.07566560126326L151.18909250000002,74.61192031631245L153.62762625,91.53434470633118L156.06616,105.88598466954024L158.50469375,104.09196847868382L160.9432275,127.52079228709103L163.38176125,139.44499796971036L165.82029500000002,138.78893463230895L168.25882875000002,155.1399677157696L170.69736250000003,158.49348065482187L173.13589625,152.36332615354868L175.57442999999998,143.06612496049587L178.01296374999998,170.24385684995147L180.4514975,170.7356257673285L182.89003125,171.9713646052341L185.328565,179.1261648895717L187.76709875,166.70426652475894L190.2056325,179.22929890740963L192.64416625,187.6006028619866L195.08270000000002,179.46164416605907L197.52123375000002,189.02015341225L199.95976750000003,194.87546379346108L202.39830125,191.73642601974024L204.836835,198.08356931105968L207.27536875,208.61036459056862L209.7139025,218.8502403740719L212.15243625,214.2386672736517L214.59097,208.27555926695786L217.02950375,216.61067463749066L219.4680375,204.4849114644602L221.90657125,204.29229220954025L224.345105,206.7018838966011L226.78363875,225.67276285342848L229.2221725,218.79405718097794L231.66070625,226.22027232916324L234.09924,219.69944750538326L236.53777375,218.6302063323722L238.97630750000002,215.9988551173613L241.41484125000002,219.5952874356129L243.85337500000003,213.25387872273453L246.29190875000003,211.28888379614173L248.73044249999998,219.19077611941057L251.16897625,223.6910905961404L253.60751,239.3043216568195L256.04604375,235.72767514056062L258.4845775,232.25799147905255L260.92311125,224.03575995121838L263.361645,230.6061643470963L265.80017875,228.7851164330461L268.2387125,215.28854625920536L270.67724625,226.85161197646173L273.11578000000003,231.5063124218318L275.55431375,237.43620533892278L277.99284750000004,237.8356388084652L280.43138125,234.53495489574658L282.86991500000005,233.34185945618646L285.30844875,240.16905302888347L287.7469825,253.56115642837398L290.18551625,246.31777015391754L292.62405,250.59151936319813L295.06258375,245.1786208110619L297.5011175,247.2864971872528L299.93965125,248.5899346041676L302.37818500000003,238.37813557954254L304.81671875,233.75699338885207L307.2552525,241.183609019243L309.69378625,246.80403688635369L312.13232,240.63817486218184L314.57085375,244.5185510633031L317.0093875,236.5279614822108L319.44792125000004,249.45282729081896L321.886455,247.75304229353696L324.32498875000005,248.86538115969734L326.7635225,251.9917258062936L329.20205625000006,261.90882874851195L331.64059000000003,266.5692418014854L334.07912375,261.5901180438256L336.51765750000004,267.39683174682L338.95619125,254.354313300694L341.39472500000005,256.5062156082876L343.83325874999997,253.9751122213416L346.2717925,257.1809669087537L348.71032625,246.08293223842864L351.14885999999996,255.86670618117597L353.58739375,247.4202105432577L356.02592749999997,243.47528214307317L358.46446125,238.29786870239468L360.902995,242.8225454649823L363.34152875,249.19263975553324L365.7800625,243.52529991218114L368.21859625,255.44083495033613L370.65713,260.6285894654128L373.09566375,250.79119080175735L375.5341975,250.00321335606554L377.97273125,246.59592441707338L380.411265,259.9095043636909L382.84979875,252.32455781737812L385.2883325,254.23303620871542L387.72686625,264.0824066028936L390.16540000000003,267.2456565081281L392.60393375,269.1416222261907L395.04246750000004,262.56621154374824L397.48100125,268.3282166640848L399.91953500000005,265.7164561110723L402.35806875000003,255.70892874510648L404.7966025,275.9973788349342L407.23513625000004,270.6146782721911L409.67367,264.5321903231154L412.11220375000005,268.10311339240997L414.5507375,270.3692908570761L416.98927125000006,263.1634305116346L419.427805,260.6370077553929L421.86633874999995,256.9049667112337L424.3048725,252.41726943208616L426.74340624999996,259.130838043523L429.18194,257.14571470332976L431.62047375,263.35489133728703L434.0590075,269.673881906306L436.49754125,269.0116638578279L438.936075,265.40315277256923L441.37460875,268.0601099061218L443.8131425,266.61159664283946L446.25167625,263.1837088329133L448.69021,262.14456357570083L451.12874375,260.74667817848785L453.5672775,273.9327826296614L456.00581125,265.06920482217504L458.444345,272.6567524788009L460.88287875000003,268.37700879513943L463.3214125,262.1400615851104L465.75994625000004,271.7923982478284L468.19848,275.15235643770546L470.63701375,269.971572596403L473.0755475,275.94792161661337L475.51408125,259.0354058271417L477.95261500000004,261.9833466192996L480.39114875,272.60436643898527L482.82968250000005,269.65327110785813L485.26821625,268.9577182622846L487.70675000000006,268.63822805346706L490.14528375000003,284.197274193481L492.58381750000007,275.53138952138585L495.02235125000004,264.26376559165834L497.46088499999996,260.4921126783463L499.89941875,281.25025390346644L502.3379525,285.224330228761L504.77648625,277.2014258793347L507.21502,272.95651579447707L509.65355375,274.19288529917833L512.0920875,277.35144194127076L514.53062125,286.09738823975783L516.969155,290.4703096044401L519.40768875,293.9932364199147L521.8462225,298.7956558943306L524.28475625,302.526906374832L526.72329,299.89709800433786L529.16182375,307.37609953851506L531.6003575,310.18812321472217L534.03889125,304.22838999863575L536.477425,301.1800595063498L538.9159587500001,300.06360283723654L541.3544925,296.9120009241011L543.79302625,313.04910716724703L546.2315600000001,309.04592732214684L548.67009375,304.1436141847812L551.1086275,300.13548129749114L553.54716125,306.9713553783406L555.9856950000001,303.5211368044301L558.42422875,300.3655449322187L560.8627625,304.07399004201756L563.3012962500001,308.0649022143036L565.7398300000001,299.22065785955544L568.17836375,294.6665165948557L570.6168975,285.45304067299884L573.05543125,297.0964773497946L575.493965,297.1771416508156L577.93249875,304.88427779063846L580.3710325,304.3179290819374L582.80956625,313.7069290318829L585.2481,313.62686170191205L587.6866337499999,307.0686428300667L590.1251675,313.3940241725521L592.56370125,312.40378854493684L595.002235,307.25573540114505L597.44076875,305.59448305054934L599.8793025,303.02502204186743L602.31783625,297.29433906201734L604.7563700000001,302.6847195567686L607.19490375,299.43606207566904L609.6334375,302.07859484378423L612.07197125,300.8475518114259" style="fill: none;" fill="none"></path></g></g></g></g><g opacity="0.2"><g><g><g><path stroke="rgb(0, 153, 136)" stroke-width="2px" d="M146.312025,-17.844841743057408L148.75055875,18.425640553236008L151.18909250000002,22.71169473637231L153.62762625,42.872765681960345L156.06616,58.23297204754567L158.50469375,33.52706556428559L160.9432275,35.36957856741818L163.38176125,73.69795829870482L165.82029500000002,73.66256228360264L168.25882875000002,104.41913911700249L170.69736250000003,68.08778591589494L173.13589625,54.17324753782964L175.57442999999998,96.7535655823621L178.01296374999998,96.66101108355956L180.4514975,102.73478805476968L182.89003125,102.82990284399553L185.328565,94.34247608347373L187.76709875,122.59124844724481L190.2056325,112.74200321056624L192.64416625,147.0109784684398L195.08270000000002,101.73179428143935L197.52123375000002,115.96080033074725L199.95976750000003,129.33876584334806L202.39830125,151.04170768911186L204.836835,123.90710971030323L207.27536875,146.32898110693154L209.7139025,138.94062301787463L212.15243625,148.26417662338778L214.59097,123.94948251680894L217.02950375,165.83801008896396L219.4680375,167.3612548763102L221.90657125,154.18977678634903L224.345105,121.52418340607123L226.78363875,104.44557411562312L229.2221725,157.68796559897336L231.66070625,148.86610090190712L234.09924,141.23221096125516L236.53777375,135.7551736804572L238.97630750000002,156.1397579799999L241.41484125000002,176.9282921010798L243.85337500000003,191.40743852474475L246.29190875000003,191.0312678543004L248.73044249999998,133.53789816661313L251.16897625,155.28026848489586L253.60751,128.83957321806386L256.04604375,148.14441903883758L258.4845775,160.39508867805657L260.92311125,182.05335345593366L263.361645,191.98753632740542L265.80017875,151.03357876701787L268.2387125,181.01285142790186L270.67724625,135.54951835220513L273.11578000000003,148.23434923995626L275.55431375,186.70591321316633L277.99284750000004,178.01705560359088L280.43138125,164.62174412337217L282.86991500000005,153.49971451000735L285.30844875,197.07112097740173L287.7469825,114.99589087746358L290.18551625,189.6677851893685L292.62405,183.78859029032967L295.06258375,174.28940076177773L297.5011175,164.00292192805898L299.93965125,171.5654437731613L302.37818500000003,215.59200587055898L304.81671875,202.68033325130287L307.2552525,154.53061544895172L309.69378625,185.17255527864802L312.13232,168.7110399874774L314.57085375,155.72460688786074L317.0093875,194.62386737628415L319.44792125000004,183.5765982432799L321.886455,176.9735452343117L324.32498875000005,207.41085385192522L326.7635225,150.98576534336266L329.20205625000006,181.56465802138504L331.64059000000003,168.3133628774773L334.07912375,169.68042994900182L336.51765750000004,177.0821655555205L338.95619125,177.458464240486L341.39472500000005,165.77861135114324L343.83325874999997,192.71721909804776L346.2717925,173.19135620648208L348.71032625,179.1250212842768L351.14885999999996,187.42657096006653L353.58739375,186.1916148743846L356.02592749999997,185.62182224067774L358.46446125,174.83941515196454L360.902995,191.54306990991938L363.34152875,182.65655787966466L365.7800625,207.5484054549174L368.21859625,180.37962759895757L370.65713,177.0511860413985L373.09566375,186.1518023583022L375.5341975,204.87110975926575L377.97273125,181.70003337751734L380.411265,164.84180108525536L382.84979875,195.04132272980428L385.2883325,183.21943772922862L387.72686625,172.93718337470833L390.16540000000003,189.17620942809367L392.60393375,193.8021421649239L395.04246750000004,223.85335898670283L397.48100125,197.1668758392334L399.91953500000005,221.9911957545714L402.35806875000003,180.82396600192246L404.7966025,164.8826377175071L407.23513625000004,192.6990410360423L409.67367,199.79501395875755L412.11220375000005,191.60362077843058L414.5507375,195.957458650524L416.98927125000006,194.0218150832436L419.427805,190.20397401126948L421.86633874999995,219.74377282099292L424.3048725,203.11206222393298L426.74340624999996,198.72001201727176L429.18194,190.95433112708005L431.62047375,233.89814640446141L434.0590075,222.4620331634175L436.49754125,226.32519137588415L438.936075,199.89441723444247L441.37460875,182.96462482484904L443.8131425,200.54441096565938L446.25167625,189.9941582110795L448.69021,185.2523723325946L451.12874375,204.05917765877462L453.5672775,191.95918111096728L456.00581125,215.13160164518789L458.444345,230.107956469059L460.88287875000003,205.5332008627328L463.3214125,209.73642965067515L465.75994625000004,179.3173631023277L468.19848,206.71675911816683L470.63701375,183.13411605087194L473.0755475,199.83937099034134L475.51408125,217.16511231389913L477.95261500000004,219.25770168412814L480.39114875,204.50210790200666L482.82968250000005,170.84779436750844L485.26821625,203.74791035056114L487.70675000000006,208.39035696062174L490.14528375000003,218.0600618313659L492.58381750000007,211.52600864930585L495.02235125000004,217.53315406224942L497.46088499999996,204.8748221803795L499.89941875,234.36194301464343L502.3379525,208.08645048737526L504.77648625,229.21563124927607L507.21502,221.46287982572207L509.65355375,215.34506585923108L512.0920875,214.85425818508324L514.53062125,197.53869401595807L516.969155,189.72603179649875L519.40768875,202.53010821071538L521.8462225,203.58456382155418L524.28475625,209.514068427411L526.72329,220.72045961022377L529.16182375,196.06102239814672L531.6003575,214.06223234263334L534.03889125,192.9534058895978L536.477425,191.09092262116346L538.9159587500001,197.14344918186012L541.3544925,192.20797733285212L543.79302625,221.0966302806681L546.2315600000001,192.7089621614326L548.67009375,212.87208133935928L551.1086275,215.1179680986838L553.54716125,241.17634799805555L555.9856950000001,213.36436118050054L558.42422875,177.46371283585373L560.8627625,206.95928262851453L563.3012962500001,212.05739692666316L565.7398300000001,226.6920169862834L568.17836375,221.28205931457606L570.6168975,181.7880433608185L573.05543125,229.02380148930982L575.493965,222.57071749188685L577.93249875,240.03362637487325L580.3710325,222.6240355399522L582.80956625,201.25527560169044L585.2481,223.91647014563736L587.6866337499999,228.0906396372752L590.1251675,197.58247498219666L592.56370125,196.5919626246799L595.002235,209.33721636642107L597.44076875,227.193449865688L599.8793025,210.0995428399606L602.31783625,210.55802684751424L604.7563700000001,227.16445457664403L607.19490375,213.72542613744736L609.6334375,235.67223564603114L612.07197125,231.34022424979642L614.510505,227.40460981835017L616.94903875,221.0212297277017L619.3875725,230.65368237278676L621.8261062500001,226.71409949118438L624.26464,186.34472024169835L626.70317375,237.45214954831386L629.1417075,209.00834706154737L631.5802412500001,262.2312163304199L634.018775,235.54153281992134L636.45730875,217.31252103502098L638.8958425000001,228.29335063154045L641.33437625,205.67888138781893L643.77291,220.44983691248027L646.2114437500001,245.42988649281588L648.6499775000001,217.5577328503132L651.08851125,227.09673489494756L653.527045,218.972613345493L655.9655787500001,221.92706047946754L658.4041125000001,240.26853302121162L660.84264625,229.67507536573842L663.2811800000001,219.03482840277934L665.7197137500001,225.320789442821L668.1582475,224.34768706018272L670.59678125,213.49685620990667L673.0353150000001,236.08508247678932L675.4738487500001,244.09904753078112L677.9123825,237.64775573665443L680.3509162500001,230.30714706399226L682.7894500000001,233.65594293041661L685.2279837500001,210.47315321998164L687.6665174999999,195.41410101543772L690.10505125,192.46554254943672L692.543585,202.5211471942338L694.9821187499999,172.93423904072154L697.4206525,219.2948899025267L699.85918625,222.63229247656736L702.2977199999999,233.32784171266988L704.73625375,237.38417383757505L707.1747875,235.48379827087578L709.61332125,227.35250790823588L712.0518549999999,222.25567375529894L714.49038875,233.56972515041176L716.9289225,224.4969519918615L719.36745625,200.79192704233256L721.80599,213.48034233667636L724.24452375,200.64086990735746L726.6830575,213.81695652008057L729.1215912499999,219.61575829982758L731.560125,243.81485529379412L733.99865875,239.23065529086375L736.4371925,232.5668593916026L738.87572625,254.01492432572627L741.31426,219.65870717167854L743.75279375,225.70566510070452L746.1913275,216.08780611103234L748.62986125,238.56824415109372L751.068395,239.17631312662903L753.50692875,218.36416032639417L755.9454625,234.07423037832436L758.38399625,231.68983190709892L760.82253,248.110638580539L763.2610637500001,220.96631149812177L765.6995975,236.61295035481453L768.13813125,226.43265956640244L770.576665,228.27926903421226L773.0151987500001,227.9200602878224L775.4537325,205.84638838876376L777.89226625,200.7364327474074L780.3308000000001,235.8263651295142L782.76933375,237.80502157590604L785.2078675,212.2627322186123L787.64640125,233.9217650836164L790.0849350000001,225.90095125274226L792.52346875,218.33612514625898L794.9620025,237.29302749850535L797.4005362500001,246.13198213414714L799.8390700000001,232.06760275905785L802.27760375,221.28916412050071L804.7161375000001,227.09686290946874L807.1546712500001,240.6720987991853L809.593205,214.34008786082268L812.03173875,239.9562415968288L814.4702725000001,217.97614831274208L816.9088062500001,232.97631383754992L819.34734,229.9827582673593L821.7858737500001,221.1630698171529L824.2244075000001,221.391575737433L826.6629412500001,213.73221090706912L829.101475,231.22949168898845L831.5400087500001,227.09494269165126L833.9785425000001,217.22534314610743L836.41707625,234.06718957966027L838.85561,220.90224023027852L841.29414375,215.71874024651265L843.7326774999999,214.18589437007904L846.1712112499999,233.27484370090747L848.609745,226.35764305699954L851.04827875,241.79504217884755L853.4868124999999,247.34895217960533L855.92534625,247.3700745755976L858.36388,215.93002821369603L860.80241375,239.4020667347041L863.2409475,224.51423395221886L865.67948125,244.38810431957245L868.118015,246.57606450806966L870.5565487499999,209.49051375551656L872.9950825,237.0434631894935L875.43361625,209.8063255792314L877.87215,201.71990430626002L880.31068375,238.84622768380427L882.7492175,227.8951614634557L885.18775125,227.06991585276342L887.626285,244.68778631362048L890.06481875,238.80423892086205L892.5033525,207.84629524566913L894.94188625,268.79666507379574L897.38042,234.2076855166392L899.81895375,232.9711932567033L902.2574875,223.59336149421605L904.6960212500001,235.19230920618233L907.134555,220.7074021290649L909.57308875,227.60239225355062L912.0116225,227.18423282016406L914.45015625,240.31167391484436L916.88869,254.68357617340303L919.32722375,243.98850699175486L921.7657575000001,243.62449770082125L924.20429125,245.01870385083285L926.642825,249.50951726057315L929.08135875,254.7383983920921L931.5198925000001,240.35532686656174L933.95842625,255.33379393003202L936.39696,240.7924324490807L938.8354937500001,254.45142183926973L941.2740275,223.56641443751073L943.71256125,226.32474332506004L946.151095,230.01213759996676L948.5896287500001,226.3740929229693L951.0281625,208.46364527398887L953.46669625,213.58614633841947L955.9052300000001,191.1615866368467L958.3437637500001,234.84430173039436L960.7822975,248.3311435932463L963.2208312500001,237.2252438095483L965.6593650000001,256.2257351062515L968.09789875,225.26887955448842L970.5364325,243.20531415126538L972.9749662500001,226.01257991519842L975.4135000000001,241.07432042468676L977.85203375,218.2433786256747L980.2905675000001,241.39410069855776L982.7291012500001,239.7843180949038L985.1676350000001,235.843263046308L987.60616875,247.29921853813258L990.0447025000001,237.73999019915405L992.48323625,210.28439580852333L994.9217699999999,244.03011171113363L997.36030375,230.90535892139783L999.7988375,234.75251531871882L1002.2373712499999,229.06630231033674L1004.675905,239.7443135570396L1007.11443875,239.68561889908528L1009.5529725,235.20389452034775L1011.9915062499999,225.33455100384626L1014.43004,222.43079762025312L1016.86857375,235.58313753930005L1019.3071075,218.02402574365792L1021.74564125,226.01001962477508L1024.184175,259.99627481265503L1026.62270875,245.3324674422091L1029.0612425,251.4656431512399L1031.49977625,221.01111658052966L1033.93831,225.73728468743238L1036.37684375,225.38178836215624L1038.8153775,257.4570107744499L1041.25391125,233.9037150361321L1043.692445,225.75629484382543L1046.13097875,236.46566964821383L1048.5695125,266.12724227119577L1051.00804625,225.05138288302854L1053.44658,235.75512504848567L1055.88511375,217.79155137322164L1058.3236475,231.2684721106833L1060.76218125,256.3400520736521L1063.200715,254.52026164802638L1065.63924875,259.5675541812723L1068.0777825,238.08018878915095L1070.51631625,227.49300384521484L1072.95485,218.90098922090098L1075.39338375,250.7823016372594L1077.8319175000001,234.43235100128436L1080.27045125,232.5199420695955L1082.708985,228.5379863814874L1085.14751875,208.08350615338847L1087.5860525,239.8462131158872L1090.02458625,238.48913117701355L1092.4631200000001,217.85357440872625L1094.9016537500002,225.99427383867177L1097.3401875,246.36221625046298" style="fill: none;" fill="none"></path></g><g><path stroke="rgb(238, 51, 119)" stroke-width="2px" d="M126.803755,-17.384117481383402L129.24228875,76.19897799871183L131.6808225,116.71173351190305L134.11935625,156.19909271056L136.55789000000001,144.12994766235352L138.99642375000002,175.45177261395887L141.43495750000002,186.72428329695356L143.87349125,199.83252221345901L146.312025,199.49885236404157L148.75055875,194.6498543240807L151.18909250000002,215.35178662159228L153.62762625,225.421856907281L156.06616,216.24968047304586L158.50469375,214.64674664627424L160.9432275,221.4990439279513L163.38176125,223.44172829389572L165.82029500000002,227.4244520691308L168.25882875000002,228.63316517797384L170.69736250000003,240.13834225318647L173.13589625,235.56355131756177L175.57442999999998,237.09921351346102L178.01296374999998,242.77940983934835L180.4514975,235.6472088071433L182.89003125,254.17497448081318L185.328565,251.059965133667L187.76709875,250.86794335191902L190.2056325,239.43279021978378L192.64416625,244.25624936277214L195.08270000000002,249.26104107499123L197.52123375000002,253.15204244581136L199.95976750000003,252.99816899137065L202.39830125,241.46022019873968L204.836835,259.7385815815492L207.27536875,257.6931655623696L209.7139025,266.8323782574047L212.15243625,264.07520150054586L214.59097,257.820091960105L217.02950375,249.5600829964334L219.4680375,271.26801740852267L221.90657125,259.25955124334854L224.345105,254.10248625820336L226.78363875,270.80076440626925L229.2221725,266.3769986019893L231.66070625,267.29191838475793L234.09924,271.2368458726189L236.53777375,272.1726640259678L238.97630750000002,265.57838001169944L241.41484125000002,270.6053502397104L243.85337500000003,266.04176057468766L246.29190875000003,252.48099032586273L248.73044249999998,271.1294736929915L251.16897625,267.0021895197305L253.60751,272.5657326132059L256.04604375,276.818471017209L258.4845775,274.14383162287146L260.92311125,269.62015048482203L263.361645,274.65886604514986L265.80017875,271.84037033265287L268.2387125,264.4216407984495L270.67724625,286.23976370963186L273.11578000000003,280.64588117464024L275.55431375,276.1770542589101L277.99284750000004,276.3553784868934L280.43138125,278.92494996298444L282.86991500000005,279.203925608234L285.30844875,274.77996778217226L287.7469825,273.31666579436177L290.18551625,273.9713000519709L292.62405,273.8852102864873L295.06258375,270.66215668347746L297.5011175,273.0179439092224L299.93965125,279.3918189216744L302.37818500000003,274.9476027976383L304.81671875,275.0470060733232L307.2552525,271.65148490667343L309.69378625,275.17409248921007L312.13232,277.76411428505725L314.57085375,286.039516994899L317.0093875,277.53048778393054L319.44792125000004,280.3117312707684L321.886455,279.1855555244467L324.32498875000005,293.42857916382223L326.7635225,279.9045490825718L329.20205625000006,284.3303311155601L331.64059000000003,273.7337371043184L334.07912375,275.7891062525186L336.51765750000004,280.36114487593824L338.95619125,278.7852541167628L341.39472500000005,278.2796607654203L343.83325874999997,284.80673715607685L346.2717925,282.6623659120365L348.71032625,284.36745532669806L351.14885999999996,289.4109074243091L353.58739375,288.07312367450106L356.02592749999997,283.49590046297425L358.46446125,292.344520194964L360.902995,287.84138538756156L363.34152875,273.77697400884193L365.7800625,294.7036037946289L368.21859625,287.54298353872514L370.65713,276.79414825818753L373.09566375,270.4486924694343L375.5341975,280.28974477675825L377.97273125,293.9129221046513L380.411265,285.55850243162024L382.84979875,280.2421233748848L385.2883325,291.3210761018775L387.72686625,282.4858018837192L390.16540000000003,288.42401147701526L392.60393375,293.761512929743L395.04246750000004,282.96063974635166L397.48100125,289.73984073644334L399.91953500000005,296.22028783776545L402.35806875000003,289.62718795781785L404.7966025,276.6852399043062L407.23513625000004,294.72270996191287L409.67367,286.3835880241611L412.11220375000005,280.49882449345154L414.5507375,285.73273019492626L416.98927125000006,294.7556737011129L419.427805,284.4687468165701L421.86633874999995,282.3957116644491L424.3048725,287.4804804487662L426.74340624999996,286.23275491459805L429.18194,289.3102880106731L431.62047375,279.75563619082624L434.0590075,283.97141040184283L436.49754125,292.9184412969784L438.936075,296.7818875421177L441.37460875,283.77410802109677L443.8131425,290.02860949256205L446.25167625,295.47140288894826L448.69021,281.1611076187004L451.12874375,294.2655381032012L453.5672775,300.5302487327294L456.00581125,296.8836590864442L458.444345,286.9412832856178L460.88287875000003,280.75066106021404L463.3214125,292.131632046266L465.75994625000004,297.0326679890806L468.19848,294.8942174166441L470.63701375,299.3343690796332L473.0755475,295.2915104830807L475.51408125,290.1720497635278L477.95261500000004,292.7246273119341L480.39114875,294.8034871247682L482.82968250000005,299.74545571072537L485.26821625,291.3745861717246L487.70675000000006,281.3681070994247L490.14528375000003,292.72862776572055L492.58381750000007,305.3553080572323L495.02235125000004,296.9351529275829L497.46088499999996,286.5154109773311L499.89941875,296.895500429652L502.3379525,294.79142175614834L504.77648625,291.94181851500815L507.21502,292.82803104140544L509.65355375,291.56087930365044L512.0920875,302.7167047506029L514.53062125,309.0321731377732L516.969155,319.4206155376001L519.40768875,306.56968580863696L521.8462225,308.7090324827216L524.28475625,306.8751284561374L526.72329,310.58287703990936L529.16182375,314.56208041581243L531.6003575,306.5129113685001L534.03889125,304.094813074578L536.477425,314.36416996609086L538.9159587500001,310.03462284938854L541.3544925,306.9796203090386L543.79302625,307.4213344143196L546.2315600000001,315.9883862070062L548.67009375,312.2752930169756L551.1086275,312.63421373069286L553.54716125,310.12064860761166L555.9856950000001,313.3145789070563L558.42422875,301.3852897232229L560.8627625,308.9407707696611L563.3012962500001,306.13536454195327L565.7398300000001,317.8693995773792L568.17836375,309.33396737142044L570.6168975,298.6401783349839L573.05543125,309.4127603091977L575.493965,308.14141609587455L577.93249875,308.13175099952656L580.3710325,313.3698491765694L582.80956625,311.5300564820116L585.2481,302.7479402937673L587.6866337499999,310.17831914939666L590.1251675,302.49674379961056L592.56370125,312.7169751186263L595.002235,307.08980880813164L597.44076875,314.2040878073736L599.8793025,317.9341109178283L602.31783625,312.353221856735L604.7563700000001,312.4768518805504L607.19490375,311.09925561466L609.6334375,310.6961058838801L612.07197125,318.48831778358334" style="fill: none;" fill="none"></path></g><g><path style="fill: none;" fill="none" stroke="none" stroke-width="1px"></path></g><g><path stroke="rgb(255, 112, 67)" stroke-width="2px" d="M138.99642375000002,-5.3154204840010015L141.43495750000002,45.98563078587703L143.87349125,64.8536270531741L146.312025,22.91056529500266L148.75055875,117.48110078410669L151.18909250000002,112.77733521840787L153.62762625,116.86272663961756L156.06616,127.38532825762574L158.50469375,101.40305299108675L160.9432275,162.64750417796049L163.38176125,157.32626056942073L165.82029500000002,137.805006200617L168.25882875000002,179.6640264256434L170.69736250000003,163.52344353903425L173.13589625,143.16843059388074L175.57442999999998,129.12062909928235L178.01296374999998,211.00991810722783L180.4514975,171.47327331792224L182.89003125,173.8249640789899L185.328565,189.85833480412307L187.76709875,148.07145076177335L190.2056325,198.01682825251058L192.64416625,200.15755108269778L195.08270000000002,167.25321062044665L197.52123375000002,203.35791411183095L199.95976750000003,203.6584282002666L202.39830125,187.02786973389712L204.836835,207.60428379340604L207.27536875,224.40055705742404L209.7139025,234.21005378528073L212.15243625,207.32130769437012L214.59097,199.33089731227267L217.02950375,229.11334764686498L219.4680375,186.29626674543726L221.90657125,204.00336332754657L224.345105,210.31627142429352L226.78363875,254.12908127497545L229.2221725,208.47599867528137L231.66070625,237.35959504951128L234.09924,209.91821027072993L236.53777375,217.02634457295594L238.97630750000002,212.05182829499245L241.41484125000002,224.9899359128692L243.85337500000003,203.74176565354523L246.29190875000003,208.341391406276L248.73044249999998,231.0436146042564L251.16897625,230.44156231121585L253.60751,262.72416824779725L256.04604375,230.362705366178L258.4845775,227.05346598679367L260.92311125,211.70241265947166L263.361645,240.46177094091067L265.80017875,226.05354456197134L268.2387125,195.04369099844584L270.67724625,244.1962105523456L273.11578000000003,238.48836308988658L275.55431375,246.33104471455923L277.99284750000004,238.4347890127789L280.43138125,229.5839290266687L282.86991500000005,231.55221629684624L285.30844875,250.40984338792887L287.7469825,273.6493115276098L290.18551625,235.45269074223256L292.62405,257.0021431771192L295.06258375,237.05927298285746L297.5011175,250.44831175153908L299.93965125,250.54509072954002L302.37818500000003,223.06043704260478L304.81671875,226.8252801028165L307.2552525,252.32353246482936L309.69378625,255.2346786870198L312.13232,231.38938182592392L314.57085375,250.33911536498502L317.0093875,224.5420771105723L319.44792125000004,268.8401260037314L321.886455,245.20336479761386L324.32498875000005,250.5338894589381L326.7635225,256.68124277618796L329.20205625000006,276.78448316183955L331.64059000000003,273.55986138094556L334.07912375,254.1214324073358L336.51765750000004,276.1069023013115L338.95619125,234.79053563150492L341.39472500000005,259.7340690696781L343.83325874999997,250.17845714092255L346.2717925,261.9897489398718L348.71032625,229.435880232941L351.14885999999996,270.54236709529704L353.58739375,234.75046708638016L356.02592749999997,237.55788954279637L358.46446125,230.53174854137683L360.902995,249.60956060886383L363.34152875,258.7477811913599L365.7800625,235.0242901471528L368.21859625,273.3141375075687L370.65713,268.41022123802793L373.09566375,236.03509280627426L375.5341975,248.82124718752775L377.97273125,241.48499100858513L380.411265,279.8798742836172L382.84979875,240.94713799790904L385.2883325,257.0957537957213L387.72686625,278.856462194161L390.16540000000003,271.99053136597985L392.60393375,271.98557080328465L395.04246750000004,252.70309552008453L397.48100125,276.9712243445895L399.91953500000005,261.7988152815537L402.35806875000003,240.69763769615778L404.7966025,306.43005396967584L407.23513625000004,262.5406274280765L409.67367,255.4084583995017L412.11220375000005,273.45949799635196L414.5507375,273.7685570540753L416.98927125000006,252.35463999347255L419.427805,256.8473736210303L421.86633874999995,251.3069051449949L424.3048725,245.6857235133648L426.74340624999996,269.20119096067816L429.18194,254.16802969303998L431.62047375,272.66865628822285L434.0590075,279.15236775983465L436.49754125,268.01833678511053L438.936075,259.9903861446814L441.37460875,272.0455456064506L443.8131425,264.438826747916L446.25167625,258.04187711802393L448.69021,260.585845689882L451.12874375,258.64985008266837L453.5672775,293.7119393064217L456.00581125,251.77383811094546L458.444345,284.03807396373963L460.88287875000003,261.9573932696473L463.3214125,252.7846407700669L465.75994625000004,286.2709032419053L468.19848,280.1922937225212L470.63701375,262.20039683444935L473.0755475,284.91244514692914L475.51408125,233.66663214293393L477.95261500000004,266.40525780753654L480.39114875,288.5358961685137L482.82968250000005,265.2266281111674L485.26821625,267.9143889939243L487.70675000000006,268.158992740241L490.14528375000003,307.53584340350193L492.58381750000007,262.5325625132431L495.02235125000004,247.3623296970671L497.46088499999996,254.83463330837813L499.89941875,312.38746574114674L502.3379525,291.1854447167028L504.77648625,265.1670693551952L507.21502,266.58915066719055L509.65355375,276.04743955623024L512.0920875,282.0892769044096L514.53062125,299.2163076874885L516.969155,297.0296916514635L519.40768875,299.27762664312667L521.8462225,305.9992851059545L524.28475625,308.123782095584L526.72329,295.9523854485967L529.16182375,318.5946018397808L531.6003575,314.40615872903305L534.03889125,295.28879017450595L536.477425,296.60756376792085L538.9159587500001,298.38891783356667L541.3544925,292.1845980543982L543.79302625,337.25476653196597L546.2315600000001,303.0411575544964L548.67009375,296.7901444787329L551.1086275,294.1232819665562L553.54716125,317.2251664996147L555.9856950000001,298.34580894356424L558.42422875,295.63215712390166L560.8627625,309.6366577067159L563.3012962500001,314.0512704727325L565.7398300000001,285.95429132743317L568.17836375,287.8353046978062L570.6168975,271.6328267902136L573.05543125,314.5616323649883L575.493965,297.2981381023472L577.93249875,316.44498200037265L580.3710325,303.4684060188857L582.80956625,327.79042895680124L585.2481,313.50676070695573L587.6866337499999,297.2313145222989L590.1251675,322.88209618628025L592.56370125,310.918435103514L595.002235,299.5336556854573L597.44076875,303.10260452465576L599.8793025,299.1708305288445L602.31783625,288.69831459224224L604.7563700000001,310.7702902988954L607.19490375,294.5630758540197L609.6334375,306.04239399595696L612.07197125,299.0009872628884" style="fill: none;" fill="none"></path></g></g></g></g></g></g><g transform="translate(61, 378)" clip-path="url(#clip_1)"><clipPath id="clip_1"><rect width="1219" height="22"></rect></clipPath><g><g><line x1="0" y1="0" x2="0" y2="5" style="visibility: inherit;" fill="rgb(0, 0, 0)" stroke="rgb(204, 204, 204)" stroke-width="1px"></line><line x1="121.92668750000001" y1="0" x2="121.92668750000001" y2="5" style="visibility: inherit;" fill="rgb(0, 0, 0)" stroke="rgb(204, 204, 204)" stroke-width="1px"></line><line x1="243.85337500000003" y1="0" x2="243.85337500000003" y2="5" style="visibility: inherit;" fill="rgb(0, 0, 0)" stroke="rgb(204, 204, 204)" stroke-width="1px"></line><line x1="365.7800625" y1="0" x2="365.7800625" y2="5" style="visibility: inherit;" fill="rgb(0, 0, 0)" stroke="rgb(204, 204, 204)" stroke-width="1px"></line><line x1="487.70675000000006" y1="0" x2="487.70675000000006" y2="5" style="visibility: inherit;" fill="rgb(0, 0, 0)" stroke="rgb(204, 204, 204)" stroke-width="1px"></line><line x1="609.6334375" y1="0" x2="609.6334375" y2="5" style="visibility: inherit;" fill="rgb(0, 0, 0)" stroke="rgb(204, 204, 204)" stroke-width="1px"></line><line x1="731.560125" y1="0" x2="731.560125" y2="5" style="visibility: inherit;" fill="rgb(0, 0, 0)" stroke="rgb(204, 204, 204)" stroke-width="1px"></line><line x1="853.4868124999999" y1="0" x2="853.4868124999999" y2="5" style="visibility: inherit;" fill="rgb(0, 0, 0)" stroke="rgb(204, 204, 204)" stroke-width="1px"></line><line x1="975.4135000000001" y1="0" x2="975.4135000000001" y2="5" style="visibility: inherit;" fill="rgb(0, 0, 0)" stroke="rgb(204, 204, 204)" stroke-width="1px"></line><line x1="1097.3401875" y1="0" x2="1097.3401875" y2="5" style="visibility: inherit;" fill="rgb(0, 0, 0)" stroke="rgb(204, 204, 204)" stroke-width="1px"></line><line x1="1219.266875" y1="0" x2="1219.266875" y2="5" style="visibility: inherit;" fill="rgb(0, 0, 0)" stroke="rgb(204, 204, 204)" stroke-width="1px"></line></g><g transform="translate(0, 8)"><text x="0" y="0" dx="0em" dy="0.95em" style="text-anchor: middle; visibility: hidden; font-family: Roboto, sans-serif; font-size: 12px; font-weight: 200;" fill="rgb(50, 49, 63)" stroke="none" stroke-width="1px">-50</text><text x="121.92668750000001" y="0" dx="0em" dy="0.95em" style="text-anchor: middle; visibility: inherit; font-family: Roboto, sans-serif; font-size: 12px; font-weight: 200;" fill="rgb(50, 49, 63)" stroke="none" stroke-width="1px">0</text><text x="243.85337500000003" y="0" dx="0em" dy="0.95em" style="text-anchor: middle; visibility: inherit; font-family: Roboto, sans-serif; font-size: 12px; font-weight: 200;" fill="rgb(50, 49, 63)" stroke="none" stroke-width="1px">50</text><text x="365.7800625" y="0" dx="0em" dy="0.95em" style="text-anchor: middle; visibility: inherit; font-family: Roboto, sans-serif; font-size: 12px; font-weight: 200;" fill="rgb(50, 49, 63)" stroke="none" stroke-width="1px">100</text><text x="487.70675000000006" y="0" dx="0em" dy="0.95em" style="text-anchor: middle; visibility: inherit; font-family: Roboto, sans-serif; font-size: 12px; font-weight: 200;" fill="rgb(50, 49, 63)" stroke="none" stroke-width="1px">150</text><text x="609.6334375" y="0" dx="0em" dy="0.95em" style="text-anchor: middle; visibility: inherit; font-family: Roboto, sans-serif; font-size: 12px; font-weight: 200;" fill="rgb(50, 49, 63)" stroke="none" stroke-width="1px">200</text><text x="731.560125" y="0" dx="0em" dy="0.95em" style="text-anchor: middle; visibility: inherit; font-family: Roboto, sans-serif; font-size: 12px; font-weight: 200;" fill="rgb(50, 49, 63)" stroke="none" stroke-width="1px">250</text><text x="853.4868124999999" y="0" dx="0em" dy="0.95em" style="text-anchor: middle; visibility: inherit; font-family: Roboto, sans-serif; font-size: 12px; font-weight: 200;" fill="rgb(50, 49, 63)" stroke="none" stroke-width="1px">300</text><text x="975.4135000000001" y="0" dx="0em" dy="0.95em" style="text-anchor: middle; visibility: inherit; font-family: Roboto, sans-serif; font-size: 12px; font-weight: 200;" fill="rgb(50, 49, 63)" stroke="none" stroke-width="1px">350</text><text x="1097.3401875" y="0" dx="0em" dy="0.95em" style="text-anchor: middle; visibility: inherit; font-family: Roboto, sans-serif; font-size: 12px; font-weight: 200;" fill="rgb(50, 49, 63)" stroke="none" stroke-width="1px">400</text><text x="1219.266875" y="0" dx="0em" dy="0.95em" style="text-anchor: middle; visibility: hidden; font-family: Roboto, sans-serif; font-size: 12px; font-weight: 200;" fill="rgb(50, 49, 63)" stroke="none" stroke-width="1px">450</text></g><line x1="0" y1="0" x2="1219.266875" y2="0" fill="rgb(0, 0, 0)" stroke="rgb(204, 204, 204)" stroke-width="1px"></line></g></g></g></g></svg>