<svg viewBox="0 0 1112.5999755859375 400" xmlns="http://www.w3.org/2000/svg"><g><g><g><g><g><line x1="60" y1="378" x2="55" y2="378" style="visibility: inherit;" fill="rgb(0, 0, 0)" stroke="rgb(204, 204, 204)" stroke-width="1px"></line><line x1="60" y1="336" x2="55" y2="336" style="visibility: inherit;" fill="rgb(0, 0, 0)" stroke="rgb(204, 204, 204)" stroke-width="1px"></line><line x1="60" y1="294" x2="55" y2="294" style="visibility: inherit;" fill="rgb(0, 0, 0)" stroke="rgb(204, 204, 204)" stroke-width="1px"></line><line x1="60" y1="252.00000000000003" x2="55" y2="252.00000000000003" style="visibility: inherit;" fill="rgb(0, 0, 0)" stroke="rgb(204, 204, 204)" stroke-width="1px"></line><line x1="60" y1="210" x2="55" y2="210" style="visibility: inherit;" fill="rgb(0, 0, 0)" stroke="rgb(204, 204, 204)" stroke-width="1px"></line><line x1="60" y1="168" x2="55" y2="168" style="visibility: inherit;" fill="rgb(0, 0, 0)" stroke="rgb(204, 204, 204)" stroke-width="1px"></line><line x1="60" y1="126.0000000000001" x2="55" y2="126.0000000000001" style="visibility: inherit;" fill="rgb(0, 0, 0)" stroke="rgb(204, 204, 204)" stroke-width="1px"></line><line x1="60" y1="84.00000000000009" x2="55" y2="84.00000000000009" style="visibility: inherit;" fill="rgb(0, 0, 0)" stroke="rgb(204, 204, 204)" stroke-width="1px"></line><line x1="60" y1="42.00000000000002" x2="55" y2="42.00000000000002" style="visibility: inherit;" fill="rgb(0, 0, 0)" stroke="rgb(204, 204, 204)" stroke-width="1px"></line><line x1="60" y1="0" x2="55" y2="0" style="visibility: inherit;" fill="rgb(0, 0, 0)" stroke="rgb(204, 204, 204)" stroke-width="1px"></line></g><g transform="translate(50, 0)"><text x="0" y="378" dx="0em" dy="0.3em" style="text-anchor: end; visibility: hidden; font-family: Roboto, sans-serif; font-size: 12px; font-weight: 200;" fill="rgb(50, 49, 63)" stroke="none" stroke-width="1px">0.012</text><text x="0" y="336" dx="0em" dy="0.3em" style="text-anchor: end; visibility: inherit; font-family: Roboto, sans-serif; font-size: 12px; font-weight: 200;" fill="rgb(50, 49, 63)" stroke="none" stroke-width="1px">0.013</text><text x="0" y="294" dx="0em" dy="0.3em" style="text-anchor: end; visibility: inherit; font-family: Roboto, sans-serif; font-size: 12px; font-weight: 200;" fill="rgb(50, 49, 63)" stroke="none" stroke-width="1px">0.014</text><text x="0" y="252.00000000000003" dx="0em" dy="0.3em" style="text-anchor: end; visibility: inherit; font-family: Roboto, sans-serif; font-size: 12px; font-weight: 200;" fill="rgb(50, 49, 63)" stroke="none" stroke-width="1px">0.015</text><text x="0" y="210" dx="0em" dy="0.3em" style="text-anchor: end; visibility: inherit; font-family: Roboto, sans-serif; font-size: 12px; font-weight: 200;" fill="rgb(50, 49, 63)" stroke="none" stroke-width="1px">0.016</text><text x="0" y="168" dx="0em" dy="0.3em" style="text-anchor: end; visibility: inherit; font-family: Roboto, sans-serif; font-size: 12px; font-weight: 200;" fill="rgb(50, 49, 63)" stroke="none" stroke-width="1px">0.017</text><text x="0" y="126.0000000000001" dx="0em" dy="0.3em" style="text-anchor: end; visibility: inherit; font-family: Roboto, sans-serif; font-size: 12px; font-weight: 200;" fill="rgb(50, 49, 63)" stroke="none" stroke-width="1px">0.018</text><text x="0" y="84.00000000000009" dx="0em" dy="0.3em" style="text-anchor: end; visibility: inherit; font-family: Roboto, sans-serif; font-size: 12px; font-weight: 200;" fill="rgb(50, 49, 63)" stroke="none" stroke-width="1px">0.019</text><text x="0" y="42.00000000000002" dx="0em" dy="0.3em" style="text-anchor: end; visibility: inherit; font-family: Roboto, sans-serif; font-size: 12px; font-weight: 200;" fill="rgb(50, 49, 63)" stroke="none" stroke-width="1px">0.02</text><text x="0" y="0" dx="0em" dy="0.3em" style="text-anchor: end; visibility: hidden; font-family: Roboto, sans-serif; font-size: 12px; font-weight: 200;" fill="rgb(50, 49, 63)" stroke="none" stroke-width="1px">0.021</text></g><line x1="60" y1="0" x2="60" y2="378" fill="rgb(0, 0, 0)" stroke="rgb(204, 204, 204)" stroke-width="1px"></line></g></g><g transform="translate(60, 0)" clip-path="url(#clip_0)"><clipPath id="clip_0"><rect width="1052" height="378"></rect></clipPath><g><g><g><line x1="0" y1="0" x2="0" y2="378" fill="rgb(0, 0, 0)" stroke="rgb(60, 60, 60)" stroke-width="1px" opacity="0.25"></line><line x1="105.25999999999999" y1="0" x2="105.25999999999999" y2="378" fill="rgb(0, 0, 0)" stroke="rgb(60, 60, 60)" stroke-width="1px" opacity="0.25"></line><line x1="210.51999999999998" y1="0" x2="210.51999999999998" y2="378" fill="rgb(0, 0, 0)" stroke="rgb(60, 60, 60)" stroke-width="1px" opacity="0.25"></line><line x1="315.78" y1="0" x2="315.78" y2="378" fill="rgb(0, 0, 0)" stroke="rgb(60, 60, 60)" stroke-width="1px" opacity="0.25"></line><line x1="421.03999999999996" y1="0" x2="421.03999999999996" y2="378" fill="rgb(0, 0, 0)" stroke="rgb(60, 60, 60)" stroke-width="1px" opacity="0.25"></line><line x1="526.3" y1="0" x2="526.3" y2="378" fill="rgb(0, 0, 0)" stroke="rgb(60, 60, 60)" stroke-width="1px" opacity="0.25"></line><line x1="631.56" y1="0" x2="631.56" y2="378" fill="rgb(0, 0, 0)" stroke="rgb(60, 60, 60)" stroke-width="1px" opacity="0.25"></line><line x1="736.8199999999999" y1="0" x2="736.8199999999999" y2="378" fill="rgb(0, 0, 0)" stroke="rgb(60, 60, 60)" stroke-width="1px" opacity="0.25"></line><line x1="842.0799999999999" y1="0" x2="842.0799999999999" y2="378" fill="rgb(0, 0, 0)" stroke="rgb(60, 60, 60)" stroke-width="1px" opacity="0.25"></line><line x1="947.3399999999999" y1="0" x2="947.3399999999999" y2="378" fill="rgb(0, 0, 0)" stroke="rgb(60, 60, 60)" stroke-width="1px" opacity="0.25"></line><line x1="1052.6" y1="0" x2="1052.6" y2="378" fill="rgb(0, 0, 0)" stroke="rgb(60, 60, 60)" stroke-width="1px" opacity="0.25"></line></g><g><line x1="0" y1="378" x2="1052.6" y2="378" fill="rgb(0, 0, 0)" stroke="rgb(60, 60, 60)" stroke-width="1px" opacity="0.25"></line><line x1="0" y1="336" x2="1052.6" y2="336" fill="rgb(0, 0, 0)" stroke="rgb(60, 60, 60)" stroke-width="1px" opacity="0.25"></line><line x1="0" y1="294" x2="1052.6" y2="294" fill="rgb(0, 0, 0)" stroke="rgb(60, 60, 60)" stroke-width="1px" opacity="0.25"></line><line x1="0" y1="252.00000000000003" x2="1052.6" y2="252.00000000000003" fill="rgb(0, 0, 0)" stroke="rgb(60, 60, 60)" stroke-width="1px" opacity="0.25"></line><line x1="0" y1="210" x2="1052.6" y2="210" fill="rgb(0, 0, 0)" stroke="rgb(60, 60, 60)" stroke-width="1px" opacity="0.25"></line><line x1="0" y1="168" x2="1052.6" y2="168" fill="rgb(0, 0, 0)" stroke="rgb(60, 60, 60)" stroke-width="1px" opacity="0.25"></line><line x1="0" y1="126.0000000000001" x2="1052.6" y2="126.0000000000001" fill="rgb(0, 0, 0)" stroke="rgb(60, 60, 60)" stroke-width="1px" opacity="0.25"></line><line x1="0" y1="84.00000000000009" x2="1052.6" y2="84.00000000000009" fill="rgb(0, 0, 0)" stroke="rgb(60, 60, 60)" stroke-width="1px" opacity="0.25"></line><line x1="0" y1="42.00000000000002" x2="1052.6" y2="42.00000000000002" fill="rgb(0, 0, 0)" stroke="rgb(60, 60, 60)" stroke-width="1px" opacity="0.25"></line><line x1="0" y1="0" x2="1052.6" y2="0" fill="rgb(0, 0, 0)" stroke="rgb(60, 60, 60)" stroke-width="1px" opacity="0.25"></line></g></g></g><g><g><line x1="0" y1="881.9999999999999" x2="1052.6" y2="881.9999999999999" fill="rgb(0, 0, 0)" stroke="rgb(153, 153, 153)" stroke-width="1.5px"></line></g></g><g><g><line x1="105.25999999999999" y1="0" x2="105.25999999999999" y2="378" fill="rgb(0, 0, 0)" stroke="rgb(153, 153, 153)" stroke-width="1.5px"></line></g></g><g><g><g><g><g><path stroke="rgb(187, 187, 187)" stroke-width="2px" d="M115.78599999999999,-3.5638327354938375L117.8912,46.942331388032635L119.9964,80.43094998528109L122.10159999999999,105.35662976484815L124.20679999999999,123.355626055095L126.31199999999998,141.26145444987276L128.41719999999998,148.43752100911257L130.52239999999998,160.19416738121765L132.6276,173.65167900663727L134.7328,177.61090066721664L136.838,179.9733956314703L138.9432,181.322289038898L141.0484,182.90575008630012L143.1536,190.54765951051849L145.2588,190.87264729667712L147.364,199.5492521736743L149.46919999999997,200.7271800720357L151.57439999999997,203.5576095647844L153.67959999999997,205.29386403035085L155.7848,205.99921262622388L157.89,213.93365889156635L159.99519999999998,218.15022965728934L162.10039999999998,222.0313763910758L164.20559999999998,214.45042896207025L166.3108,217.6897094021894L168.416,217.74261864226452L170.5212,218.78705020811685L172.6264,219.98094713692626L174.7316,216.66516046190563L176.83679999999998,222.1724808510379L178.942,223.13475909076752L181.04719999999998,232.30729842850837L183.15239999999997,234.2294023613033L185.25759999999997,232.98790132418603L187.36279999999996,229.41472752141806L189.468,235.4938033080769L191.57319999999999,232.59607539282325L193.67839999999998,232.986169360504L195.78359999999998,237.73944841905114L197.88879999999997,238.383969009533L199.99399999999997,242.04050649479163L202.0992,243.93913788971304L204.2044,246.64813319679502L206.3096,246.61989711425488L208.41479999999999,245.15893459736404L210.51999999999998,242.87839054117205L212.6252,233.6045301976327L214.73039999999997,242.73339073794898L216.83559999999997,241.13082414232102L218.94079999999997,243.59683885194573L221.04599999999996,250.33268551241412L223.15119999999996,250.77648620731293L225.25639999999999,248.30574219779118L227.36159999999998,249.29586782071573L229.46679999999998,250.22392739065637L231.57199999999997,244.4424014819153L233.67719999999997,252.31546156600066L235.7824,254.64753831025936L237.8876,255.24765370843986L239.9928,250.06489331458909L242.09799999999998,252.4531464155609L244.20319999999998,255.2511370286997L246.3084,257.06054603491174L248.41359999999997,254.44767554661001L250.51879999999997,249.73207475579005L252.62399999999997,249.30068513653404L254.72919999999996,248.4498610133036L256.83439999999996,249.86183314526698L258.9396,253.70328034165274L261.04479999999995,253.137395997064L263.15,253.21112897945443L265.2552,249.93076622458096L267.36039999999997,251.53461171967862L269.4656,254.20307664145875L271.57079999999996,258.7714454297414L273.676,255.4057942667121L275.7812,256.94687286844936L277.8864,256.48022692102836L279.9916,264.560248993031L282.0968,262.2447972131918L284.202,264.10627853471937L286.3072,259.3244174992973L288.4124,257.52170024370747L290.5176,256.1235938135124L292.6228,257.1772653438649L294.728,258.93152122962493L296.8331999999999,259.9738734261275L298.93839999999994,259.4659821448375L301.04359999999997,262.01754293189344L303.14879999999994,263.62286153045835L305.25399999999996,264.3611695802661L307.35919999999993,264.5555985710891L309.46439999999996,267.49783799301815L311.5696,266.9811805680468L313.67479999999995,260.888061845009L315.78,273.1639064274458L317.88519999999994,268.7252795232669L319.99039999999997,261.4980073471866L322.0956,254.55370092391982L324.20079999999996,255.38062359094624L326.306,261.88048185825346L328.41119999999995,265.32797074270246L330.5164,260.9376265344143L332.6216,267.04943752510076L334.72679999999997,265.51412492527203L336.832,268.15076245387576L338.93719999999996,271.09219802332035L341.0424,265.45405072517457L343.1476,268.09520709840814L345.2528,271.0792674799464L347.358,271.86618649838573L349.4632,266.5235613398445L351.5684,269.22884624676067L353.67359999999996,266.83442794964407L355.7788,266.74763889125404L357.884,264.63800939328326L359.9892,269.6544703567437L362.09439999999995,268.44629833247734L364.1995999999999,267.04349137631937L366.30479999999994,265.50443956427506L368.40999999999997,263.774539751844L370.51519999999994,266.4144471007803L372.62039999999996,262.04757106412757L374.72559999999993,262.1229604489166L376.83079999999995,266.9069019202327L378.936,270.18140864634125L381.04119999999995,265.87776786246076L383.14639999999997,266.59951728080614L385.25159999999994,271.6313506334717L387.35679999999996,267.30997994361485L389.462,269.23085709105834L391.56719999999996,275.0167452257329L393.6724,276.52556942471597L395.77759999999995,273.0214464340731L397.8828,267.93972909296303L399.98799999999994,270.32813538816424L402.09319999999997,273.97853006545813L404.1984,274.70376442446775L406.30359999999996,278.06837796315233L408.4088,276.8508664497416L410.51399999999995,275.73577547244315L412.6192,274.802346719337L414.7244,276.1863009172871L416.82959999999997,277.8646672271607L418.9348,275.3651189388584L421.03999999999996,269.358011477098L423.1452,270.4517120855482L425.2504,279.77870729788725L427.3556,277.4791650487457L429.46079999999995,274.86708088597504L431.5659999999999,276.16460619497803L433.67119999999994,277.28156474905325L435.77639999999997,275.28563976691424L437.88159999999993,277.75328986886905L439.98679999999996,275.14373917009686L442.0919999999999,273.8022816576139L444.19719999999995,274.5000544010148L446.3023999999999,281.822377599391L448.40759999999995,279.41367157525576L450.51279999999997,279.0161344482109L452.61799999999994,277.8981851264003L454.72319999999996,278.0651297583677L456.82839999999993,280.7767287620603L458.93359999999996,277.65690687469834L461.0388,272.82931775553345L463.14399999999995,277.3906442147691L465.2492,276.9519773079276L467.35439999999994,275.02020175774805L469.45959999999997,276.03150173139517L471.5648,279.64090071387255L473.66999999999996,281.5361734346579L475.7752,278.6442635009307L477.88039999999995,277.9853583782684L479.9856,278.7479450529678L482.0908,273.6384470776238L484.19599999999997,275.96684496495226L486.3012,275.37858187492554L488.40639999999996,279.9904510220044L490.5116,279.6596210980506L492.6168,272.86552200222553L494.7219999999999,274.79836855831473L496.82719999999995,275.12253709139065L498.9323999999999,276.08188799322625L501.03759999999994,278.4147880035697L503.1427999999999,277.4217673455512L505.24799999999993,274.91946313469623L507.35319999999996,277.0793897908271L509.4583999999999,274.8760375560129L511.56359999999995,276.53348880891826L513.6687999999999,273.5107458286573L515.774,279.5591218145544L517.8792,285.3969241781148L519.9843999999999,282.78500052709063L522.0895999999999,281.2215701366584L524.1948,281.7287062361908L526.3,286.6916966173097L528.4051999999999,286.38013923365133L530.5104,280.4001451861755L532.6156,282.02104113292074L534.7207999999999,275.7715811716997L536.8259999999999,281.9749659411599L538.9312,281.0399622268968L541.0364,277.6167658178504L543.1415999999999,277.818406940013L545.2468,276.99162188202735L547.352,279.0372165800964L549.4572,280.9480159021517L551.5624,281.23293643218875L553.6676,281.1347111941731L555.7728,280.61918808110687L557.8779999999999,279.67775130920495L559.9832,277.90525145919855L562.0884,278.5311207806571L564.1936,277.48058336588764L566.2988,284.1040985024752L568.404,285.44343120078935L570.5092,282.19246956241545L572.6144,283.7451123626972L574.7196,280.01362402629525L576.8248,286.24714310402675L578.93,286.99558790585394L581.0352,280.68386086261864L583.1404,286.6091526534354L585.2456,279.94661118305885L587.3508,288.6523142976592L589.456,286.50542812484684L591.5612,284.21833226047863L593.6663999999998,281.8499425468617L595.7715999999999,282.9121045302019L597.8767999999999,282.94267262999205L599.9819999999999,283.13180761923786L602.0871999999999,282.8469358705902L604.1923999999999,279.6380333675995L606.2975999999999,283.50194945180743L608.4028,279.7066640987655L610.5079999999999,278.25866427628165L612.6131999999999,279.9300437248227L614.7183999999999,280.11070951083167L616.8235999999999,280.51214702283664L618.9287999999999,285.03312668416095L621.0339999999999,284.57006394394153L623.1392,284.1873027534957L625.2443999999999,283.70520993779155L627.3495999999999,288.9322635394934L629.4547999999999,282.15594301596906L631.56,279.9879588662125L633.6651999999999,277.54144267907964L635.7703999999999,281.85981777114404L637.8756,286.58340686442097L639.9807999999999,288.7674129717448L642.0859999999999,286.9291558273374L644.1912,284.23552866028183L646.2964,288.0494509830859L648.4015999999999,283.2823295590154L650.5067999999999,281.6275509594007L652.612,281.20512930739665L654.7171999999999,284.3167399834916L656.8223999999999,278.17157478757656L658.9276,280.9595852770087L661.0328,280.5130329416798L663.1379999999999,281.57576554933826L665.2432,282.9250577504613L667.3484,286.59695242137775L669.4535999999999,282.7584737675849L671.5587999999999,279.23906513675837L673.664,284.86549238338944L675.7692,285.8663621722155L677.8743999999999,288.3761608885821L679.9796,287.0325976066051L682.0848,284.7741462738668L684.1899999999999,282.7450676412198L686.2952,284.0366325349101L688.4004,283.44144769731093L690.5056,281.95084644092873L692.6107999999999,284.8705019696579L694.716,286.7248249616638L696.8212,287.83209904232115L698.9264,289.5973158311754L701.0316,291.62593258809505L703.1368,293.68515087003385L705.242,293.4607487668686L707.3471999999999,290.7029093235787L709.4524,284.7978006738458L711.5576,290.2117735587379L713.6628,292.60039754169105L715.768,292.0524163571413L717.8732,287.1774465338835L719.9784,286.05594174840746L722.0836,284.0572408424538L724.1887999999999,282.1023235551549L726.2939999999999,285.8372322995683L728.3991999999998,288.2459363090528L730.5043999999999,288.17305299923026L732.6095999999999,284.17932543924576L734.7147999999999,282.37742618782L736.8199999999999,292.1693920139234L738.9251999999999,292.0939388182021L741.0303999999999,285.93644005693534L743.1355999999998,283.9005495645854L745.2407999999999,287.3414947294148L747.3459999999999,287.0322017969461L749.4511999999999,286.4746684671504L751.5563999999999,290.22773889547955L753.6615999999999,290.51629356054286L755.7667999999999,288.6786681384314L757.872,291.4266743821186L759.9771999999999,286.9808063424994L762.0823999999999,289.4503617475849L764.1875999999999,285.6723524028315L766.2927999999999,288.03329164947587L768.3979999999999,288.3871796319814L770.5031999999999,283.4685382181365L772.6084,287.20936651432265L774.7135999999999,283.7881797456965L776.8187999999999,289.2432121160165L778.924,286.53430640831806L781.0292,289.9360306449843L783.1343999999999,292.1803408675261L785.2395999999999,292.521704352669L787.3448,291.64463332103026L789.4499999999999,287.88630425218537L791.5551999999999,287.2458558218705L793.6604,286.1410627208369L795.7656,290.774244322909L797.8707999999999,293.43995152982063L799.9759999999999,291.52587650461186L802.0812,287.1637449934673L804.1863999999999,286.5711494430656L806.2915999999999,284.01138403682444L808.3968,284.82458556692916L810.502,291.5881737351484L812.6071999999999,285.1699624407331L814.7124,285.1189703493142L816.8176,284.8747103243365L818.9227999999999,290.55558867033085L821.0279999999999,291.2924455092893L823.1332,289.35282953301345L825.2384,288.4106417043166L827.3435999999999,287.6339172925446L829.4488,285.9429244939025L831.554,291.4192411031447L833.6591999999999,286.59775480783713L835.7644,288.7546020636364L837.8696,292.92554945882586L839.9748,289.8604890056635L842.0799999999999,289.1779430298916L844.1852,289.31622087293334L846.2904,287.99672306974804L848.3956,286.3247993850713L850.5008,287.94482770943665L852.606,290.1212750159742L854.7112,292.1042961229707L856.8163999999998,299.3281201809541L858.9215999999999,293.48060614406444L861.0267999999999,287.4157871278488L863.1319999999998,289.98647333814876L865.2371999999999,299.01588260909426L867.3423999999999,291.66061191428014L869.4475999999999,291.30728353064245L871.5527999999999,289.11513228417033L873.6579999999999,290.48762731075647L875.7631999999999,290.5476514120123L877.8683999999998,287.81200071687823L879.9735999999999,290.63086237618523L882.0787999999999,293.44897314375163L884.1839999999999,296.5784938184352L886.2891999999999,291.5903166441877L888.3943999999999,295.01677246742L890.4995999999999,289.91268569143153L892.6047999999998,285.2370301897021L894.7099999999999,290.9525991865809L896.8151999999999,288.10738421611876L898.9203999999999,291.152716101008L901.0255999999999,292.6368718748077L903.1307999999999,290.6121461215487L905.2359999999999,286.7871144964022L907.3412,286.5924439939095L909.4463999999999,293.9175155408522L911.5515999999999,294.5218081144893L913.6567999999999,292.8270309965852L915.762,291.90388557917146L917.8671999999999,290.48280662659573L919.9723999999999,290.07319759943346L922.0776,288.2808816410199L924.1827999999999,287.6911663578209L926.2879999999999,292.12130954064475L928.3932,285.7715228092524L930.4984,289.45254422377667L932.6035999999999,293.9256969699331L934.7087999999999,290.88581045920057L936.814,289.86352824243545L938.9191999999999,290.7291960184135L941.0243999999999,286.7933201053357L943.1296,291.56146374694197L945.2348,290.6003071388703L947.3399999999999,298.724976379937" style="fill: none;" fill="none"></path></g><g><path stroke="rgb(0, 153, 136)" stroke-width="2px" d="M143.1536,-11.826781233201443L145.2588,10.35463980822087L147.364,5.899983018948722L149.46919999999997,-3.57551925598407L151.57439999999997,11.556630791945913L153.67959999999997,20.590544126229492L155.7848,28.980262611755155L157.89,34.06056895646374L159.99519999999998,32.959327802838175L162.10039999999998,46.10910938125298L164.20559999999998,49.18378019761074L166.3108,67.78230888921995L168.416,56.80492677764498L170.5212,57.174902944027515L172.6264,63.93722782802169L174.7316,78.6049500452358L176.83679999999998,74.13977909091302L178.942,82.42248058254414L181.04719999999998,83.78001517226754L183.15239999999997,89.15271770804434L185.25759999999997,80.48915537865263L187.36279999999996,95.76985374917359L189.468,105.68297020228482L191.57319999999999,105.19145077208076L193.67839999999998,88.92669345394494L195.78359999999998,70.81829674588762L197.88879999999997,85.98287234299103L199.99399999999997,90.76870606944668L202.0992,89.90808233378355L204.2044,86.71404542170754L206.3096,94.76342004342739L208.41479999999999,109.75632816456407L210.51999999999998,125.83076684429915L212.6252,135.29152439094995L214.73039999999997,112.86010929373784L216.83559999999997,110.03086350218678L218.94079999999997,95.40675389679478L221.04599999999996,96.07021275706458L223.15119999999996,102.45750434129091L225.25639999999999,116.87836429434537L227.36159999999998,130.38759189222944L229.46679999999998,118.47119364365649L231.57199999999997,125.97788799539076L233.67719999999997,108.25538621386742L235.7824,103.8233580234101L237.8876,119.97246127381644L239.9928,125.41403728160107L242.09799999999998,122.13016394038702L244.20319999999998,114.72240323579136L246.3084,131.57932330820455L248.41359999999997,101.5678073027938L250.51879999999997,120.06715714092314L252.62399999999997,128.2924939820484L254.72919999999996,128.58364787276477L256.83439999999996,123.7293949995988L258.9396,124.5140761777491L261.04479999999995,146.50898191003392L263.15,153.3935520688796L265.2552,133.984432127482L267.36039999999997,137.31946407938383L269.4656,131.27263133039705L271.57079999999996,121.29560883230343L273.676,134.32681157223203L275.7812,136.74464608449824L277.8864,134.96718754302907L279.9916,148.7811744089809L282.0968,129.48396770214367L284.202,132.85532454285223L286.3072,128.39972768803358L288.4124,126.39471347677653L290.5176,128.8103312465426L292.6228,130.44367015438536L294.728,125.71352319763454L296.8331999999999,136.04542103318184L298.93839999999994,132.698582320856L301.04359999999997,133.5913820203823L303.14879999999994,138.18559723715083L305.25399999999996,140.33837005865635L307.35919999999993,141.3514684639697L309.46439999999996,136.68792848600899L311.5696,142.05603571423268L313.67479999999995,140.93238305859782L315.78,152.42753916867395L317.88519999999994,146.04211921625034L319.99039999999997,140.58362914998963L322.0956,141.75772530960822L324.20079999999996,151.61384440140597L326.306,146.19943406985217L328.41119999999995,134.708985416925L330.5164,142.57892680694823L332.6216,141.52130341845847L334.72679999999997,135.85984947871034L336.832,140.4020565187387L338.93719999999996,145.38894785853935L341.0424,163.07278866417832L343.1476,160.63636805324327L345.2528,171.31084986751426L347.358,157.58933774367065L349.4632,141.56289219698365L351.5684,145.5461553802554L353.67359999999996,151.40525560799028L355.7788,150.9160346342492L357.884,152.75104500969454L359.9892,152.90573660206923L362.09439999999995,151.13205147786212L364.1995999999999,164.509519821425L366.30479999999994,164.40494231344448L368.40999999999997,162.1949712631774L370.51519999999994,157.07243353114552L372.62039999999996,174.99366502753517L374.72559999999993,180.1554152297473L376.83079999999995,185.14112047716952L378.936,175.2108318231402L381.04119999999995,160.97587123047705L383.14639999999997,161.0294569881641L385.25159999999994,155.90370709609292L387.35679999999996,150.51005073136864L389.462,156.46829507199988L391.56719999999996,154.12768780856172L393.6724,164.05206237833997L395.77759999999995,177.32846058965512L397.8828,173.27997455335137L399.98799999999994,172.90579478345194L402.09319999999997,157.80974327565374L404.1984,162.1473726453849L406.30359999999996,153.2206581009907L408.4088,156.03164290031685L410.51399999999995,166.1885962047631L412.6192,173.30581187954272L414.7244,170.36229543537328L416.82959999999997,152.14296561867255L418.9348,157.29586887592234L421.03999999999996,162.6572513951907L423.1452,170.60149217689332L425.2504,172.17361064579666L427.3556,176.0537083734666L429.46079999999995,172.19324920115443L431.5659999999999,184.2928994389629L433.67119999999994,178.7068932349834L435.77639999999997,185.68511121841402L437.88159999999993,186.08180797917927L439.98679999999996,183.32889476313173L442.0919999999999,181.43719641503085L444.19719999999995,171.83679047904255L446.3023999999999,162.25702316571386L448.40759999999995,162.76893346911146L450.51279999999997,163.59159128311558L452.61799999999994,166.98405488993689L454.72319999999996,174.49821318784936L456.82839999999993,166.9509833073591L458.93359999999996,171.22323690748064L461.0388,163.46671835718064L463.14399999999995,157.90225985132165L465.2492,157.5225977330357L467.35439999999994,154.8819031136602L469.45959999999997,167.42082778318945L471.5648,161.06576705994755L473.66999999999996,167.11025555743305L475.7752,171.83493773826083L477.88039999999995,187.40939944200582L479.9856,183.15710513122607L482.0908,163.05430046515312L484.19599999999997,165.41267400858794L486.3012,169.32010956929932L488.40639999999996,178.8192740459848L490.5116,181.87390453693916L492.6168,164.39849725411915L494.7219999999999,177.00629019168974L496.82719999999995,181.41612488882515L498.9323999999999,192.59944782767752L501.03759999999994,190.79808607169426L503.1427999999999,179.27031971495413L505.24799999999993,183.43246612239523L507.35319999999996,187.97045905166053L509.4583999999999,175.7781520889592L511.56359999999995,167.97851742544134L513.6687999999999,169.52974956773735L515.774,179.1902030083121L517.8792,176.62945386007908L519.9843999999999,175.31715210816554L522.0895999999999,182.64846905792533L524.1948,180.47706754639614L526.3,189.90377795478636L528.4051999999999,193.4419319616612L530.5104,193.64074619930128L532.6156,190.63927114201272L534.7207999999999,193.54758517856996L536.8259999999999,193.36655530283224L538.9312,173.52179641097408L541.0364,186.6007954035379L543.1415999999999,180.5423358055459L545.2468,202.92732946708838L547.352,203.31003594777005L549.4572,194.62769851911685L551.5624,194.7867016424455L553.6676,183.82614077506764L555.7728,184.47116028891978L557.8779999999999,197.07064068095067L559.9832,191.0039426909457L562.0884,192.02743600765294L564.1936,188.66973924016617L566.2988,188.09951755628379L568.404,196.72432667747375L570.5092,196.720188407512L572.6144,191.51580693031045L574.7196,191.4663145524543L576.8248,190.96088018311744L578.93,185.35276892360253L581.0352,193.03103500948077L583.1404,201.55593313184812L585.2456,203.51690712813988L587.3508,201.1047495081691L589.456,201.29464402643845L591.5612,190.07477243452064L593.6663999999998,175.98064617937084L595.7715999999999,166.08265295401378L597.8767999999999,165.0599304007004L599.9819999999999,149.9815862158842L602.0871999999999,163.59978679298794L604.1923999999999,173.40232617544788L606.2975999999999,184.51278498701848L608.4028,193.16215597947001L610.5079999999999,197.42270607566567L612.6131999999999,196.00373862275927L614.7183999999999,192.66057256513503L616.8235999999999,196.18598694594897L618.9287999999999,193.8656575858128L621.0339999999999,180.88433666107258L623.1392,179.29876936124086L625.2443999999999,172.07035357145267L627.3495999999999,174.1749464415776L629.4547999999999,178.27267192264L631.56,192.56197685277223L633.6651999999999,198.8943953649744L635.7703999999999,199.43599069932367L637.8756,210.2466685343937L639.9807999999999,199.93670240456797L642.0859999999999,196.7070132697519L644.1912,190.06713539391137L646.2964,197.07364504354823L648.4015999999999,201.5748289991476L650.5067999999999,194.10070911461457L652.612,197.29671587594953L654.7171999999999,198.0486140134847L656.8223999999999,206.52770282524327L658.9276,198.34459620533892L661.0328,201.08420011889055L663.1379999999999,197.75093141490882L665.2432,196.65375704344913L667.3484,195.81983925567152L669.4535999999999,184.52791565457633L671.5587999999999,175.25456095814505L673.664,186.8456261937606L675.7692,194.76760848669932L677.8743999999999,187.0334563988967L679.9796,192.98182565799502L682.0848,192.6295604516932L684.1899999999999,188.71984189807577L686.2952,195.6418296936703L688.4004,204.11628908178514L690.5056,202.3250459090549L692.6107999999999,195.9808411154555L694.716,195.0136376472358L696.8212,201.0700975568321L698.9264,191.83054593272365L701.0316,198.8102678958617L703.1368,192.25227769041305L705.242,195.65089782371678L707.3471999999999,196.22655384716123L709.4524,192.26009977446046L711.5576,189.99194133631022L713.6628,184.8864679119088L715.768,190.37741001731735L717.8732,191.65064021519768L719.9784,187.5894407783268L722.0836,193.38651270594107L724.1887999999999,190.428558402812L726.2939999999999,186.1196302733156L728.3991999999998,182.7848820782502L730.5043999999999,190.11640838961594L732.6095999999999,191.13358163941382L734.7147999999999,199.29105849330702L736.8199999999999,206.90078949490237L738.9251999999999,211.4769546005669L741.0303999999999,198.85196433148045L743.1355999999998,202.75218900252142L745.2407999999999,197.81382777815318L747.3459999999999,204.56692544534954L749.4511999999999,209.68845347115484L751.5563999999999,194.6306565853899L753.6615999999999,199.06630928831967L755.7667999999999,188.41176696728274L757.872,178.06568006343005L759.9771999999999,190.00867490569567L762.0823999999999,191.8206172144402L764.1875999999999,192.50432919001523L766.2927999999999,201.527737489557L768.3979999999999,204.0653815217112L770.5031999999999,190.45297325535387L772.6084,212.08348687817923L774.7135999999999,208.1516272683756L776.8187999999999,205.1880041754137L778.924,198.8251125690872L781.0292,200.67797426447478L783.1343999999999,194.70818115511665L785.2395999999999,194.49718935036142L787.3448,194.1661607667415L789.4499999999999,200.38540370730217L791.5551999999999,211.1432127980451L793.6604,212.369197763685L795.7656,212.9268286452793L797.8707999999999,213.94301906979706L799.9759999999999,216.74824210260286L802.0812,220.98771780880685L804.1863999999999,216.4996793756032L806.2915999999999,221.12966243559984L808.3968,216.79854221424378L810.502,220.87759822774484L812.6071999999999,208.2256948838744L814.7124,201.9830692225762L816.8176,200.0402199157518L818.9227999999999,197.09591071179165L821.0279999999999,186.5731063388029L823.1332,182.7637575687312L825.2384,169.51503023036386L827.3435999999999,182.9217878730777L829.4488,197.55940959165596L831.554,200.9124316174394L833.6591999999999,212.21337391129768L835.7644,203.85947657341748L837.8696,207.61606175133582L839.9748,201.46467612045407L842.0799999999999,205.13736232434147L844.1852,196.1791802782681L846.2904,202.12240184181124L848.3956,204.9013299514841L850.5008,204.64194879352988L852.606,210.0870094503161L854.7112,208.68064532310942L856.8163999999998,194.41409181136603L858.9215999999999,202.35206525670716L861.0267999999999,200.6983035155966L863.1319999999998,201.58687848739828L865.2371999999999,199.3400971108257L867.3423999999999,203.21238933882594L869.4475999999999,205.50706950951508L871.5527999999999,204.69281236010139L873.6579999999999,199.3792456846079L875.7631999999999,194.7714929139996L877.8683999999998,198.43687410094648L879.9735999999999,192.05164815746733L882.0787999999999,192.1247762665927L884.1839999999999,208.78415566836478L886.2891999999999,211.6108108172099L888.3943999999999,216.30524536426546L890.4995999999999,204.23302643570705L892.6047999999998,199.3002661530579L894.7099999999999,196.16681178000005L896.8151999999999,209.96795900217552L898.9203999999999,206.7337027523033L901.0255999999999,200.8099657972522L903.1307999999999,202.49141797303358L905.2359999999999,218.0015025608492L907.3412,207.22602205710118L909.4463999999999,205.99367436907605L911.5515999999999,196.47207418168733L913.6567999999999,197.34783087423537L915.762,210.13050176054898L917.8671999999999,216.91042897314227L919.9723999999999,223.44595053917405L922.0776,216.86232928708944L924.1827999999999,207.73619945213647L926.2879999999999,198.05998106816682L928.3932,207.84066944133806L930.4984,205.71577326543076L932.6035999999999,203.5058800821719L934.7087999999999,200.23321028025265L936.814,188.26964028758607L938.9191999999999,196.61993280698536L941.0243999999999,200.96664603739794L943.1296,193.48617955559385L945.2348,192.97779716559594L947.3399999999999,202.6304284662506" style="fill: none;" fill="none"></path></g><g><path stroke="rgb(238, 51, 119)" stroke-width="2px" d="M113.68079999999999,-78.79385386067702L115.78599999999999,1.7508442927203205L117.8912,39.683838312899304L119.9964,77.03224141154634L122.10159999999999,104.36587227389451L124.20679999999999,126.94294801906773L126.31199999999998,140.17857183421307L128.41719999999998,145.68928681512713L130.52239999999998,159.1259163886546L132.6276,172.0987343885056L134.7328,175.383881019845L136.838,176.56929544748323L138.9432,180.63114463667634L141.0484,184.01743824540847L143.1536,187.99615470375795L145.2588,190.97408837255279L147.364,198.3856913272586L149.46919999999997,200.59586614721468L151.57439999999997,202.6727180752331L153.67959999999997,206.69581853823934L155.7848,205.6227881220086L157.89,214.0370176523885L159.99519999999998,217.56264400418914L162.10039999999998,219.58413855465403L164.20559999999998,215.20651121863332L166.3108,214.93807298740526L168.416,217.2237977121975L170.5212,220.49749981284214L172.6264,222.38649376715856L174.7316,217.8791148088871L176.83679999999998,224.1107756148562L178.942,226.84979080204678L181.04719999999998,232.96125947010663L183.15239999999997,235.28018754112625L185.25759999999997,233.61349081009388L187.36279999999996,228.57524616197676L189.468,236.16506732927627L191.57319999999999,234.84815433770223L193.67839999999998,231.53677477170498L195.78359999999998,237.71354968564924L197.88879999999997,239.25688468374057L199.99399999999997,240.63017979849096L202.0992,243.3827880836578L204.2044,245.4918641518578L206.3096,243.53343760790156L208.41479999999999,244.81601157083878L210.51999999999998,243.3544676678943L212.6252,235.84783142667752L214.73039999999997,240.4608859948158L216.83559999999997,241.21093536209224L218.94079999999997,244.380919383715L221.04599999999996,248.3620263497559L223.15119999999996,249.4430890477022L225.25639999999999,247.8801492212006L227.36159999999998,249.40575737701602L229.46679999999998,248.94319103328436L231.57199999999997,245.03871678810134L233.67719999999997,253.36267010868107L235.7824,255.62225508392174L237.8876,254.79324624359793L239.9928,254.38302167308441L242.09799999999998,255.39312187464313L244.20319999999998,256.1355700888113L246.3084,254.41821519123772L248.41359999999997,252.67241016976388L250.51879999999997,251.9449705717108L252.62399999999997,251.46641848308693L254.72919999999996,249.60357213510784L256.83439999999996,249.6375825255735L258.9396,252.7741054326071L261.04479999999995,252.48329129396532L263.15,252.35739996778165L265.2552,250.62183260170934L267.36039999999997,251.3026558890839L269.4656,252.97738273947834L271.57079999999996,258.0279712856376L273.676,256.89835457685973L275.7812,257.5803035896026L277.8864,257.4388981879356L279.9916,264.3173109484078L282.0968,261.8326105649686L284.202,262.5055059954773L286.3072,257.7286861816198L288.4124,255.86744143242544L290.5176,256.98591346546954L292.6228,256.88656120303244L294.728,256.5797708738028L296.8331999999999,259.58671180058593L298.93839999999994,260.34251708179164L301.04359999999997,261.6295995199051L303.14879999999994,264.8675366749386L305.25399999999996,266.15627135694143L307.35919999999993,264.6917585960634L309.46439999999996,268.1390428085093L311.5696,268.00588076346907L313.67479999999995,261.0500490846264L315.78,267.10734686148334L317.88519999999994,267.24097784693345L319.99039999999997,262.0661703010518L322.0956,255.85906294346563L324.20079999999996,256.945979656939L326.306,264.258349711993L328.41119999999995,264.5613887937657L330.5164,262.1440935928698L332.6216,266.1100933610842L334.72679999999997,264.17022582646877L336.832,265.90942999575543L338.93719999999996,269.5623976519943L341.0424,266.47375135607956L343.1476,267.93483961813126L345.2528,271.97971115823077L347.358,271.1833408076494L349.4632,264.37834399336145L351.5684,269.1136645996187L353.67359999999996,267.87795290491664L355.7788,264.259530384193L357.884,264.64727521470195L359.9892,269.2911389382541L362.09439999999995,267.04829291772006L364.1995999999999,264.68910145325157L366.30479999999994,265.7594735357922L368.40999999999997,265.7916976352788L370.51519999999994,267.3156038308297L372.62039999999996,263.55878443623516L374.72559999999993,263.36573796930867L376.83079999999995,267.62401408233023L378.936,272.0677756922113L381.04119999999995,268.3746737811963L383.14639999999997,269.2165689095259L385.25159999999994,272.38262720253476L387.35679999999996,267.28611782399656L389.462,270.634822655963L391.56719999999996,275.7067929740233L393.6724,276.96719800445334L395.77759999999995,272.86272396452966L397.8828,267.37351311926693L399.98799999999994,269.64401687195686L402.09319999999997,273.40238114005797L404.1984,274.61193497661634L406.30359999999996,277.5084080915683L408.4088,277.26978331333595L410.51399999999995,274.62376098350404L412.6192,274.284074387048L414.7244,275.0965938932266L416.82959999999997,278.0001791278462L418.9348,275.649905160662L421.03999999999996,269.3476843450048L423.1452,271.1203841813552L425.2504,278.3570477812378L427.3556,278.582525655561L429.46079999999995,273.62371631558733L431.5659999999999,275.7231411105156L433.67119999999994,275.9541353026486L435.77639999999997,274.6995924555931L437.88159999999993,274.38012620470965L439.98679999999996,273.5689500490549L442.0919999999999,278.53620346306104L444.19719999999995,284.6041178340813L446.3023999999999,293.3236605188311L448.40759999999995,292.27270937329894L450.51279999999997,292.68804150442094L452.61799999999994,292.0406654812087L454.72319999999996,293.4649169526809L456.82839999999993,296.26485615267234L458.93359999999996,294.00967036064793L461.0388,291.4743774972935L463.14399999999995,294.9737762595761L465.2492,294.9567480376689L467.35439999999994,293.4529743070202L469.45959999999997,292.76665918676844L471.5648,296.54320654659745L473.66999999999996,296.9938449584799L475.7752,297.43970035453776L477.88039999999995,296.47835953199944L479.9856,297.46303207376053L482.0908,292.2217386644987L484.19599999999997,292.7707533527558L486.3012,291.72863023216394L488.40639999999996,296.83999571046155L490.5116,295.7339370300825L492.6168,289.84222718181945L494.7219999999999,291.57379690469946L496.82719999999995,291.9911926785806L498.9323999999999,292.23690498469466L501.03759999999994,294.9451803660286L503.1427999999999,295.67069138860063L505.24799999999993,291.81251897677987L507.35319999999996,293.1302451924396L509.4583999999999,290.1654440841623L511.56359999999995,293.3831209529369L513.6687999999999,292.56266798907086L515.774,295.5484881659363L517.8792,299.1635471260556L519.9843999999999,298.60414785003707L522.0895999999999,298.3289496294024L524.1948,297.49033918925295L526.3,296.79007750122656L528.4051999999999,300.1794463060433" style="fill: none;" fill="none"></path></g><g><path style="fill: none;" fill="none" stroke="none" stroke-width="1px"></path></g><g><path stroke="rgb(255, 112, 67)" stroke-width="2px" d="M128.41719999999998,-24.01863093178931L130.52239999999998,7.192347053270831L132.6276,27.875310196627023L134.7328,45.416203484993694L136.838,43.2235170295025L138.9432,71.85874612866685L141.0484,86.43277529631271L143.1536,85.63092010615543L145.2588,105.61551609705175L147.364,109.7142541336712L149.46919999999997,102.22184307655957L151.57439999999997,90.85859717393947L153.67959999999997,124.0758250388296L155.7848,124.67687593784598L157.89,126.18722340639728L159.99519999999998,134.9319793094766L162.10039999999998,119.74965908581655L164.20559999999998,135.05803199794514L166.3108,145.28962572020586L168.416,135.3420095362945L170.5212,147.02463194830563L172.6264,154.1811224142303L174.7316,150.34452069079364L176.83679999999998,158.102140269073L178.942,170.96822338847275L181.04719999999998,183.4836271238657L183.15239999999997,177.84726000112983L185.25759999999997,170.55901688183744L187.36279999999996,180.74638011248862L189.468,165.92600290100694L191.57319999999999,165.69057936721586L193.67839999999998,168.6356358736236L195.78359999999998,191.82226570974598L197.88879999999997,183.41495877675086L199.99399999999997,192.49144395786618L202.0992,184.52154695102402L204.2044,183.21469662845493L206.3096,179.99860069899722L208.41479999999999,184.39424019908247L210.51999999999998,176.6436295500089L212.6252,174.24196908417326L214.73039999999997,183.89983747927963L216.83559999999997,189.40022183972718L218.94079999999997,208.48305980277942L221.04599999999996,204.11160294957418L223.15119999999996,199.8708784743976L225.25639999999999,189.8214843848225L227.36159999999998,197.85197864645104L229.46679999999998,195.6262534181675L231.57199999999997,179.13044542791766L233.67719999999997,193.26308130456437L235.7824,198.95215962668337L237.8876,206.19980652535006L239.9928,206.68800298812417L242.09799999999998,202.65383376146804L244.20319999999998,201.1956060020057L246.3084,209.53995370196864L248.41359999999997,225.90808007912378L250.51879999999997,217.05505241034368L252.62399999999997,222.2785236661311L254.72919999999996,215.66275876907565L256.83439999999996,218.23905211775346L258.9396,219.83214229398263L261.04479999999995,207.35105459721868L263.15,201.7029919197081L265.2552,210.7799665790748L267.36039999999997,217.64937841665454L269.4656,210.11332483155562L271.57079999999996,214.85600685514825L273.676,205.0897307004799L275.7812,220.886788911001L277.8864,218.80927391432297L279.9916,220.16879919518564L282.0968,223.9898870965811L284.202,236.11079069262576L286.3072,241.80685109070447L288.4124,235.72125538689804L290.5176,242.81834991278004L292.6228,226.87749403418158L294.728,229.50759685457382L296.8331999999999,226.41402604830645L298.93839999999994,230.33229288847676L301.04359999999997,216.76802829141283L303.14879999999994,228.7259742214373L305.25399999999996,218.40247955287052L307.35919999999993,213.5809003970895L309.46439999999996,207.25295063626018L311.5696,212.7831111238673L313.67479999999995,220.5687819234296L315.78,213.6420332259992L317.88519999999994,228.2054649392997L319.99039999999997,234.54605379106007L322.0956,222.52256653548122L324.20079999999996,221.55948299074686L326.306,217.3950187319786L328.41119999999995,233.66717200006673L330.5164,224.3966817767955L332.6216,226.7292664773189L334.72679999999997,238.76738584798113L336.832,242.63358017660101L338.93719999999996,244.9508716097886L341.0424,236.91425855347012L343.1476,243.95670925610366L345.2528,240.76455746908843L347.358,228.53313513290797L349.4632,253.3301296871418L351.5684,246.75127344378913L353.67359999999996,239.31712150602993L355.7788,243.6815830351678L357.884,246.45135549198196L359.9892,237.64419284755348L362.09439999999995,234.5563428121469L364.1995999999999,229.9949593137301L366.30479999999994,224.50999597254977L368.40999999999997,232.71546871986152L370.51519999999994,230.28920685962532L372.62039999999996,237.8782005233508L374.72559999999993,245.6014112188185L376.83079999999995,244.7920336040119L378.936,240.38163116647354L381.04119999999995,243.62902321859337L383.14639999999997,241.85861811902603L385.25159999999994,237.66897746244965L387.35679999999996,236.39891103696766L389.462,234.69038444037406L391.56719999999996,250.8067343251417L393.6724,239.9734725604362L395.77759999999995,249.24714191853445L397.8828,244.01634408294822L399.98799999999994,236.39340860402385L402.09319999999997,248.19070896956802L404.1984,252.2973245349734L406.30359999999996,245.9652553956037L408.4088,253.26968197586086L410.51399999999995,232.59882934428427L412.6192,236.2018680902551L414.7244,249.18311453653754L416.82959999999997,245.57622024293775L418.9348,244.72610009834784L421.03999999999996,244.33561206534864L423.1452,263.3522240142546L425.2504,252.76058719280493L427.3556,238.98904683424908L429.46079999999995,234.37924882908993L431.5659999999999,259.75031032645904L433.67119999999994,264.6075147240412L435.77639999999997,254.80174274140913L437.88159999999993,249.61351930436086L439.98679999999996,251.1246375878846L442.0919999999999,254.98509570599765L444.19719999999995,265.6745856263707L446.3023999999999,271.01926729431574L448.40759999999995,275.3250667354513L450.51279999999997,281.1946905375152L452.61799999999994,285.75510779146134L454.72319999999996,282.54089756085745L456.82839999999993,291.68189943596286L458.93359999999996,295.11881726243826L461.0388,287.83469888722146L463.14399999999995,284.10896161887194L465.2492,282.74440346773355L467.35439999999994,278.8924455739014L469.45959999999997,298.6155754266353L471.5648,293.7228000604017L473.66999999999996,287.7310840036215L475.7752,282.8322549191559L477.88039999999995,291.1872121290829L479.9856,286.9702783165257L482.0908,283.11344380604515L484.19599999999997,287.64598782913254L486.3012,292.52376937303774L488.40639999999996,281.71413738390106L490.5116,276.14796472704586L492.6168,264.88704971144307L494.7219999999999,279.1179167608601L496.82719999999995,279.216506462108L498.9323999999999,288.63633952189144L501.03759999999994,287.94413554459015L503.1427999999999,299.41957992785694L505.24799999999993,299.3217198578925L507.35319999999996,291.3061190145261L509.4583999999999,299.03714065534155L511.56359999999995,297.826852666034L513.6687999999999,291.5347877125106L515.774,289.5043681728937L517.8792,286.36391582894913L519.9843999999999,279.3597477424657L522.0895999999999,285.9479905693838L524.1948,281.9774092035956L526.3,285.20717147573623L528.4051999999999,283.7025633250761" style="fill: none;" fill="none"></path></g></g></g></g><g opacity="0.2"><g><g><g><path stroke="rgb(187, 187, 187)" stroke-width="2px" d="M109.47039999999998,-106.69445174932473L111.57559999999998,22.524622052908008L113.68079999999999,43.31336241960532L115.78599999999999,99.93710812926297L117.8912,116.81053858995442L119.9964,128.32021039724353L122.10159999999999,141.69851016998294L124.20679999999999,149.90064945817L126.31199999999998,167.8495227992535L128.41719999999998,159.13653445243838L130.52239999999998,177.76515778899196L132.6276,193.79400533437732L134.7328,183.54197663068774L136.838,183.51436105370524L138.9432,183.3446778059006L141.0484,185.28027158975604L143.1536,202.0085833668709L145.2588,191.36007946729663L147.364,212.56336641311648L149.46919999999997,202.49400731921196L151.57439999999997,207.80316066741946L153.67959999999997,207.89821144938472L155.7848,207.05722716450697L157.89,225.83527189493182L159.99519999999998,224.47506782412532L162.10039999999998,227.8530865609646L164.20559999999998,203.07901945710188L166.3108,222.5486270785332L168.416,217.821982473135L170.5212,220.3536972105503L172.6264,221.77179229259497L174.7316,211.691480845213L176.83679999999998,230.4334610402584L178.942,224.57817640900612L181.04719999999998,246.06610719859603L183.15239999999997,237.1125582307577L185.25759999999997,231.12564978003505L187.36279999999996,224.0549668371678L189.468,244.6124169677496L191.57319999999999,228.24948352575305L193.67839999999998,233.57131031155592L195.78359999999998,244.86936700344089L197.88879999999997,239.35074989497667L199.99399999999997,247.5253127217293L202.0992,246.78708498179915L204.2044,250.7116261571646L206.3096,246.57754299044612L208.41479999999999,242.9674908220768L210.51999999999998,239.45757445693022L212.6252,219.69373968243602L214.73039999999997,256.426681548357L216.83559999999997,238.72697424888614L218.94079999999997,247.29586091637614L221.04599999999996,260.4364555031061L223.15119999999996,251.44218724966052L225.25639999999999,244.59962618350986L227.36159999999998,250.7810562551022L229.46679999999998,251.61601674556735L231.57199999999997,235.770112618804L233.67719999999997,264.1250516921282L235.7824,258.1456534266472L237.8876,256.1478268057108L239.9928,242.29075272381309L242.09799999999998,256.0355260670185L244.20319999999998,259.4481229484081L246.3084,259.77465954422956L248.41359999999997,250.52836981415754L250.51879999999997,242.6586735695601L252.62399999999997,248.6536007076502L254.72919999999996,247.17362482845786L256.83439999999996,251.97979134321216L258.9396,259.4654511362314L261.04479999999995,252.2885694801808L263.15,253.32172845304015L265.2552,245.01022209227085L267.36039999999997,253.94037996232512L269.4656,258.2057740241289L271.57079999999996,265.6239986121655L273.676,250.3573175221682L275.7812,259.2584907710552L277.8864,255.78025799989706L279.9916,276.6802821010351L282.0968,258.7716195434332L284.202,266.8985005170107L286.3072,252.1516259461642L288.4124,254.817624360323L290.5176,254.0264341682196L292.6228,258.7577726393938L294.728,261.56290505826473L296.8331999999999,261.5374017208815L298.93839999999994,258.7041452229023L301.04359999999997,265.84488411247736L303.14879999999994,266.0308394283057L305.25399999999996,265.46863165497786L307.35919999999993,264.84724205732346L309.46439999999996,271.9111971259117L311.5696,266.2061944305897L313.67479999999995,251.7483837604523L315.78,291.5776733011008L317.88519999999994,262.0673391669989L319.99039999999997,250.657099083066L322.0956,244.13724128901964L324.20079999999996,256.621007591486L326.306,271.6302692592144L328.41119999999995,270.49920406937605L330.5164,254.352110221982L332.6216,276.21715401113033L334.72679999999997,263.2111560255289L336.832,272.10571874678135L338.93719999999996,275.50435137748724L341.0424,256.996829777956L343.1476,272.05694165825844L345.2528,275.5553580522537L347.358,273.0465650260449L349.4632,258.5096236020327L351.5684,273.2867736071348L353.67359999999996,263.24280050396925L355.7788,266.61745530366903L357.884,261.473565146327L359.9892,277.1791618019343L362.09439999999995,266.6340402960777L364.1995999999999,264.93928094208246L366.30479999999994,263.19586184620863L368.40999999999997,261.1796900331974L370.51519999999994,270.37430812418467L372.62039999999996,255.49725700914863L374.72559999999993,262.23604452610016L376.83079999999995,274.08281412720686L378.936,275.0931687355042L381.04119999999995,259.4223066866398L383.14639999999997,267.68214140832424L385.25159999999994,279.1791006624699L387.35679999999996,260.8279239088297L389.462,272.11217281222343L391.56719999999996,283.69557742774487L393.6724,278.7888057231903L395.77759999999995,267.76526194810873L397.8828,260.31715308129793L399.98799999999994,273.910744830966L402.09319999999997,279.45412208139896L404.1984,275.79161596298223L406.30359999999996,283.1152982711792L408.4088,275.0245991796255L410.51399999999995,274.0631390064955L412.6192,273.40220358967787L414.7244,278.2622322142125L416.82959999999997,280.3822166919709L418.9348,271.6157965064049L421.03999999999996,260.3473502844572L423.1452,272.09226299822336L425.2504,293.76920011639595L427.3556,274.02985167503357L429.46079999999995,270.94895464181906L431.5659999999999,278.11089415848255L433.67119999999994,278.95700258016586L435.77639999999997,272.29175229370594L437.88159999999993,281.454765021801L439.98679999999996,271.22941312193876L442.0919999999999,271.7900953888893L444.19719999999995,275.54671351611614L446.3023999999999,292.80586239695555L448.40759999999995,275.80061253905296L450.51279999999997,278.41982875764376L452.61799999999994,276.22126114368444L454.72319999999996,278.3155467063189L456.82839999999993,284.84412726759916L458.93359999999996,272.9771740436554L461.0388,265.58793407678604L463.14399999999995,284.2326339036227L465.2492,276.29397694766527L467.35439999999994,272.12253843247896L469.45959999999997,277.548451691866L471.5648,285.05499918758875L473.66999999999996,284.3790825158358L475.7752,274.3063986003399L477.88039999999995,276.99700069427496L479.9856,279.8918250650168L482.0908,265.9742001146078L484.19599999999997,279.45944179594517L486.3012,274.49618723988533L488.40639999999996,286.9082547426224L490.5116,279.16337621212006L492.6168,262.6743733584881L494.7219999999999,277.6976383924484L496.82719999999995,275.6087898910046L498.9323999999999,277.5209143459797L501.03759999999994,281.91413801908493L503.1427999999999,275.9322363585234L505.24799999999993,271.16600681841373L507.35319999999996,280.31927977502346L509.4583999999999,271.5710092037917L511.56359999999995,279.0196656882763L513.6687999999999,268.97663135826593L515.774,288.6316857933998L517.8792,294.15362772345543L519.9843999999999,278.8671150505543L522.0895999999999,278.87642455101013L524.1948,282.48941038548946L526.3,294.13618218898773L528.4051999999999,285.912803158164L530.5104,271.4301541149616L532.6156,284.45238505303865L534.7207999999999,266.39739122986794L536.8259999999999,291.28004309535027L538.9312,279.6374566555024L541.0364,272.4819712042809L543.1415999999999,278.12086862325674L545.2468,275.7514442950487L547.352,282.1056086272002L549.4572,283.81421488523483L551.5624,281.6603172272444L553.6676,280.9873733371497L555.7728,279.8459034115076L557.8779999999999,278.26559615135193L559.9832,275.24650168418884L562.0884,279.46992476284504L564.1936,275.90477724373346L566.2988,294.03937120735645L568.404,287.4524302482605L570.5092,277.3160271048546L572.6144,286.0740765631199L574.7196,274.4163915216923L576.8248,295.59742172062397L578.93,288.1182551085949L581.0352,271.21627029776573L583.1404,295.49709033966064L585.2456,269.95279897749424L587.3508,301.71086896955967L589.456,283.28509886562824L591.5612,280.7876884639263L593.6663999999998,278.2973579764366L595.7715999999999,284.50534750521183L597.8767999999999,282.98852477967745L599.9819999999999,283.4155101031065L602.0871999999999,282.41962824761873L604.1923999999999,274.8246796131134L606.2975999999999,289.2978235781193L608.4028,274.0137360692024L610.5079999999999,276.0866645425558L612.6131999999999,282.4371128976345L614.7183999999999,280.3817081898451L616.8235999999999,281.11430329084396L618.9287999999999,291.8145961761475L621.0339999999999,283.87546983361244L623.1392,283.61316096782684L625.2443999999999,282.9820707142353L627.3495999999999,296.77284394204617L629.4547999999999,271.9914622306824L631.56,276.7359826415777L633.6651999999999,273.8716683983803L635.7703999999999,288.3373804092407L637.8756,293.6687905043364L639.9807999999999,292.04342213273054L642.0859999999999,284.17177011072636L644.1912,280.19508790969854L646.2964,293.77033446729183L648.4015999999999,276.13164742290974L650.5067999999999,279.1453830599785L652.612,280.5714968293905L654.7171999999999,288.98415599763393L656.8223999999999,268.9538269937039L658.9276,285.1416010111571L661.0328,279.84320443868637L663.1379999999999,283.1698644608259L665.2432,284.94899605214596L667.3484,292.10479442775255L669.4535999999999,277.0007557868958L671.5587999999999,273.95995219051844L673.664,293.305133253336L675.7692,287.36766685545444L677.8743999999999,292.14085896313196L679.9796,285.0172526836395L682.0848,281.3864692747593L684.1899999999999,279.7014496922493L686.2952,285.97397987544537L688.4004,282.5486704409123L690.5056,279.7149445563555L692.6107999999999,289.24998526275164L694.716,289.5063094496727L696.8212,289.49301016330725L698.9264,292.2451410144568L701.0316,294.66885772347456L703.1368,296.77397829294205L705.242,293.1241456121206L707.3471999999999,286.5661501586438L709.4524,275.9401376992464L711.5576,298.332732886076L713.6628,296.18333351612097L715.768,291.23044458031654L717.8732,279.8649917989969L719.9784,284.3736845701933L722.0836,281.0591894835234L724.1887999999999,279.1699476242066L726.2939999999999,291.4395954161883L728.3991999999998,291.8589923232794L730.5043999999999,288.06372803449636L732.6095999999999,278.1887340992689L734.7147999999999,279.67457731068134L736.8199999999999,306.85734075307846L738.9251999999999,291.9807590246201L741.0303999999999,276.70019191503525L743.1355999999998,280.84671382606035L745.2407999999999,292.5029124766588L747.3459999999999,286.568262398243L749.4511999999999,285.63836847245693L751.5563999999999,295.85734453797346L753.6615999999999,290.9491255581379L755.7667999999999,285.9222300052643L757.872,295.54868374764925L759.9771999999999,280.31200428307056L762.0823999999999,293.15469485521317L764.1875999999999,280.00533838570124L766.2927999999999,291.57470051944256L768.3979999999999,288.91801160573965L770.5031999999999,276.0905760973692L772.6084,292.82060895860195L774.7135999999999,278.6563995927572L776.8187999999999,297.42576067149645L778.924,282.4709478467703L781.0292,295.0386169999838L783.1343999999999,295.54680620133877L785.2395999999999,293.0337495803833L787.3448,290.32902677357197L789.4499999999999,282.24881064891815L791.5551999999999,286.2851831763983L793.6604,284.48387306928635L795.7656,297.724016726017L797.8707999999999,297.438512340188L799.9759999999999,288.6547639667988L802.0812,280.62054772675043L804.1863999999999,285.6822561174631L806.2915999999999,280.1717359274626L808.3968,286.0443878620863L810.502,301.7335559874773L812.6071999999999,275.5426454991102L814.7124,285.04248221218586L816.8176,284.50832028687L818.9227999999999,299.0769061893225L821.0279999999999,292.3977307677269L823.1332,286.4434055685997L825.2384,286.9973599612713L827.3435999999999,286.4688306748867L829.4488,283.40643529593945L831.554,299.6337160170078L833.6591999999999,279.36552536487585L835.7644,291.98987294733524L837.8696,299.18197055161L839.9748,285.26289832592016L842.0799999999999,288.15412406623363L844.1852,289.52363763749605L846.2904,286.01747636497026L848.3956,283.81691385805607L850.5008,290.3748701959849L852.606,293.3859459757805L854.7112,295.0788277834654L856.8163999999998,310.1638562679291L858.9215999999999,284.70933508872986L861.0267999999999,278.3185586035252L863.1319999999998,293.8425026535988L865.2371999999999,312.55999651551247L867.3423999999999,280.62770587205887L869.4475999999999,290.7772909551859L871.5527999999999,285.8269054144621L873.6579999999999,292.54636985063553L875.7631999999999,290.6376875638962L877.8683999999998,283.7085246741772L879.9735999999999,294.8591548651457L882.0787999999999,297.67613929510117L884.1839999999999,301.2727748304606L886.2891999999999,284.1080508828163L888.3943999999999,300.15645620226866L890.4995999999999,282.25655552744865L892.6047999999998,278.22354693710804L894.7099999999999,299.5259526818991L896.8151999999999,283.83956176042557L898.9203999999999,295.72071392834187L901.0255999999999,294.8631055355072L903.1307999999999,287.5750574916601L905.2359999999999,281.04956705868244L907.3412,286.3004382401705L909.4463999999999,304.9051228612662L911.5515999999999,295.42824697494507L913.6567999999999,290.28486531972885L915.762,290.5191674530506L917.8671999999999,288.351188197732L919.9723999999999,289.45878405869007L922.0776,285.5924077033997L924.1827999999999,286.80659343302256L926.2879999999999,298.76652431488037L928.3932,276.2468427121639L930.4984,294.974076345563L932.6035999999999,300.6354260891676L934.7087999999999,286.3259806931019L936.814,288.3301049172879L938.9191999999999,292.02769768238073L941.0243999999999,280.8895062357188L943.1296,298.71367920935154L945.2348,289.15857222676283L947.3399999999999,310.91198024153715" style="fill: none;" fill="none"></path></g><g><path stroke="rgb(0, 153, 136)" stroke-width="2px" d="M138.9432,-40.77051508426657L141.0484,6.075282365083755L143.1536,6.0320205688476936L145.2588,43.6233922541142L147.364,-0.7815949916838667L149.46919999999997,-17.788253009319277L151.57439999999997,34.25435793399814L153.67959999999997,34.14123576879508L155.7848,41.56474095582966L157.89,41.68099236488346L159.99519999999998,31.307470768690166L162.10039999999998,65.83374810218815L164.20559999999998,53.795781701803264L166.3108,95.68008479475981L168.416,40.33885967731481L170.5212,57.72986707091335L172.6264,74.08071380853656L174.7316,100.60653162002569L176.83679999999998,67.44202297925952L178.942,94.84653246402746L181.04719999999998,85.8163170218468L183.15239999999997,97.2117714285851L185.25759999999997,67.49381196498875L187.36279999999996,118.69090121984487L189.468,120.55264484882359L191.57319999999999,104.45417162775996L193.67839999999998,64.52955749630934L195.78359999999998,43.65570169687276L197.88879999999997,108.7297357320786L199.99399999999997,97.94745665788655L202.0992,88.617146730423L204.2044,81.92299005389219L206.3096,106.83748197555545L208.41479999999999,132.2456903457642L210.51999999999998,149.94242486357692L212.6252,149.48266071081164L214.73039999999997,79.21298664808279L216.83559999999997,105.78699481487277L218.94079999999997,73.47058948874479L221.04599999999996,97.06540104746821L223.15119999999996,112.03844171762469L225.25639999999999,138.50965422391894L227.36159999999998,150.65143328905108L229.46679999999998,100.5965962707997L231.57199999999997,137.2379295229912L233.67719999999997,81.67163354158407L235.7824,97.17531573772433L237.8876,144.19611614942556L239.9928,133.57640129327777L242.09799999999998,117.20435392856601L244.20319999999998,103.61076217889791L246.3084,156.8647034168244L248.41359999999997,56.55053329467777L250.51879999999997,147.8161818981171L252.62399999999997,140.6304992437363L254.72919999999996,129.02037870883947L256.83439999999996,116.44801568984988L258.9396,125.69109794497494L261.04479999999995,179.50134050846103L263.15,163.72040730714804L265.2552,104.87075221538548L267.36039999999997,142.32201200723654L269.4656,122.20238220691685L271.57079999999996,106.33007508516317L273.676,153.87361568212512L275.7812,140.37139785289767L277.8864,132.30099973082545L279.9916,169.50215470790863L282.0968,100.53815764188772L284.202,137.91235980391508L286.3072,121.71633240580564L288.4124,123.38719215989117L290.5176,132.43375790119177L292.6228,132.89367851614958L294.728,118.61830276250845L296.8331999999999,151.5432677865029L298.93839999999994,127.67832425236708L301.04359999999997,134.9305815696717L303.14879999999994,145.0769200623036L305.25399999999996,143.5675292909146L307.35919999999993,142.87111607193953L309.46439999999996,129.6926185190678L311.5696,150.10819655656817L313.67479999999995,139.24690407514575L315.78,169.67027333378795L317.88519999999994,136.46398928761488L319.99039999999997,132.3958940505982L322.0956,143.51886954903608L324.20079999999996,166.3980230391026L326.306,138.07781857252127L328.41119999999995,117.47331243753436L330.5164,154.38383889198306L332.6216,139.9348683357239L334.72679999999997,127.36766856908801L336.832,147.21536707878118L338.93719999999996,152.86928486824038L341.0424,189.59854987263682L343.1476,156.98173713684085L345.2528,187.32257258892065L347.358,137.00706955790523L349.4632,117.52322387695315L351.5684,151.52105015516284L353.67359999999996,160.19390594959262L355.7788,150.18220317363745L357.884,155.50356057286265L359.9892,153.13777399063113L362.09439999999995,148.47152379155162L364.1995999999999,184.57572233676913L366.30479999999994,164.24807605147365L368.40999999999997,158.8800146877766L370.51519999999994,149.38862693309787L372.62039999999996,201.87551227211955L374.72559999999993,187.89804053306582L376.83079999999995,192.61967834830287L378.936,160.31539884209639L381.04119999999995,139.6234303414822L383.14639999999997,161.10983562469485L385.25159999999994,148.21508225798613L387.35679999999996,142.41956618428233L389.462,165.4056615829468L391.56719999999996,150.61677691340452L393.6724,178.93862423300746L395.77759999999995,197.2430579066277L397.8828,167.20724549889567L399.98799999999994,172.34452512860298L402.09319999999997,135.16566601395613L404.1984,168.65381669998175L406.30359999999996,139.83058628439906L408.4088,160.24812009930613L410.51399999999995,181.4240261614323L412.6192,183.98163539171225L414.7244,165.9470207691193L416.82959999999997,124.81397089362147L418.9348,165.02522376179698L421.03999999999996,170.69932517409327L423.1452,182.5178533494473L425.2504,174.53178834915164L427.3556,181.87385496497157L429.46079999999995,166.4025604426861L431.5659999999999,202.4423747956753L433.67119999999994,170.32788392901423L435.77639999999997,196.1524381935597L437.88159999999993,186.67685312032705L439.98679999999996,179.19952493906027L442.0919999999999,178.59964889287954L444.19719999999995,157.43618157505992L446.3023999999999,147.8873721957207L448.40759999999995,163.53679892420772L450.51279999999997,164.8255780041218L452.61799999999994,172.072750300169L454.72319999999996,185.76945063471797L456.82839999999993,155.6301384866238L458.93359999999996,177.63161730766302L461.0388,151.8319405317307L463.14399999999995,149.55557209253317L465.2492,156.95310455560687L467.35439999999994,150.92086118459707L469.45959999999997,186.22921478748324L471.5648,151.53317597508433L473.66999999999996,176.1769883036614L475.7752,178.92196100950244L477.88039999999995,210.7710919976235L479.9856,176.77866366505626L482.0908,132.9000934660435L484.19599999999997,168.95023432374006L486.3012,175.18126291036606L488.40639999999996,193.06802076101306L490.5116,186.4558502733708L492.6168,138.18538632988935L494.7219999999999,195.9179795980454L496.82719999999995,188.0308769345284L498.9323999999999,209.3744322359562L501.03759999999994,188.09604343771937L503.1427999999999,161.97867017984393L505.24799999999993,189.67568573355678L507.35319999999996,194.77744844555858L509.4583999999999,157.48969164490703L511.56359999999995,156.27906543016437L513.6687999999999,171.85659778118134L515.774,193.68088316917422L517.8792,172.78833013772967L519.9843999999999,173.34869948029524L522.0895999999999,193.64544448256495L524.1948,177.21996527910235L526.3,204.04384356737137L528.4051999999999,198.74916297197345L530.5104,193.93896755576137L532.6156,186.1370585560799L534.7207999999999,197.9100562334061L536.8259999999999,193.09501048922542L538.9312,143.75465807318693L541.0364,206.21929389238358L543.1415999999999,171.45464640855795L545.2468,236.5048199594021L547.352,203.88409566879275L549.4572,181.6041923761368L551.5624,195.0252063274384L553.6676,167.38529947400096L555.7728,185.43868955969813L557.8779999999999,215.96986126899722L559.9832,181.9038957059384L562.0884,193.56267598271376L564.1936,183.6331940889359L566.2988,187.2441850304604L568.404,209.66154035925865L570.5092,196.71398100256923L572.6144,183.7092347145081L574.7196,191.3920759856701L576.8248,190.20272862911227L578.93,176.9406020343304L581.0352,204.5484341382981L583.1404,214.3432803153992L585.2456,206.4583681225777L587.3508,197.4865130782128L589.456,201.5794858038426L591.5612,173.24496504664424L593.6663999999998,154.83945679664615L595.7715999999999,151.2356631159783L597.8767999999999,163.52584657073024L599.9819999999999,127.3640699386597L602.0871999999999,184.02708765864375L604.1923999999999,188.10613524913794L606.2975999999999,201.17847320437434L608.4028,206.13621246814728L610.5079999999999,203.81353121995932L612.6131999999999,193.8752874433995L614.7183999999999,187.64582347869876L616.8235999999999,201.47410851716998L618.9287999999999,190.38516354560858L621.0339999999999,161.41235527396208L623.1392,176.92041841149336L625.2443999999999,161.22772988677028L627.3495999999999,177.33183574676517L629.4547999999999,184.41926014423373L631.56,213.99593424797064L633.6651999999999,208.39302313327792L635.7703999999999,200.24838370084765L637.8756,226.46268528699878L639.9807999999999,184.4717532098294L642.0859999999999,191.86247956752783L644.1912,180.10731858015063L646.2964,207.5834095180035L648.4015999999999,208.32660493254662L650.5067999999999,182.8895292878151L652.612,202.09072601795197L654.7171999999999,199.17646121978765L656.8223999999999,219.246336042881L658.9276,186.06993627548223L661.0328,205.19360598921776L663.1379999999999,192.75102835893637L665.2432,195.0079954862595L667.3484,194.56896257400518L669.4535999999999,167.59003025293356L671.5587999999999,161.34452891349795L673.664,204.23222404718402L675.7692,206.65058192610744L677.8743999999999,175.43222826719287L679.9796,201.90437954664233L682.0848,192.10116264224058L684.1899999999999,182.85526406764987L686.2952,206.0248113870621L688.4004,216.82797816395762L690.5056,199.63818114995962L692.6107999999999,186.4645339250565L694.716,193.5628324449063L696.8212,210.15478742122653L698.9264,177.97121849656108L701.0316,209.2798508405686L703.1368,182.41529238224032L705.242,200.74882802367213L707.3471999999999,197.09003788232806L709.4524,186.31041866540912L711.5576,186.5897036790848L713.6628,177.22825777530673L715.768,198.6138231754303L717.8732,193.56048551201823L719.9784,181.49764162302023L722.0836,202.08212059736252L724.1887999999999,185.99162694811824L726.2939999999999,179.65623807907107L728.3991999999998,177.7827597856522L730.5043999999999,201.1136978566647L732.6095999999999,192.65934151411062L734.7147999999999,211.5272737741471L736.8199999999999,218.31538599729538L738.9251999999999,218.34120225906375L741.0303999999999,179.91447892785075L743.1355999999998,208.60252600908285L745.2407999999999,190.40628594160086L747.3459999999999,214.6965719461441L749.4511999999999,217.37074550986293L751.5563999999999,172.04396125674253L753.6615999999999,205.71978834271434L755.7667999999999,172.42995348572734L757.872,162.5465497076512L759.9771999999999,207.92316716909409L762.0823999999999,194.53853067755705L764.1875999999999,193.52989715337756L766.2927999999999,215.0628499388695L768.3979999999999,207.87184756994253L770.5031999999999,170.03436085581782L772.6084,244.5292573124171L774.7135999999999,202.25383785367018L776.8187999999999,200.74256953597072L778.924,189.28077515959743L781.0292,203.4572668075562L783.1343999999999,185.75349149107936L785.2395999999999,194.18070164322856L787.3448,193.66961789131167L789.4499999999999,209.71426811814314L791.5551999999999,227.2799264341593L793.6604,214.20817521214488L795.7656,213.76327496767047L797.8707999999999,215.46730470657354L799.9759999999999,220.95607665181163L802.0812,227.3469313681126L804.1863999999999,209.76762172579768L806.2915999999999,228.0746370255947L808.3968,210.3018618822098L810.502,226.99618224799636L812.6071999999999,189.24783986806872L814.7124,192.619130730629L816.8176,197.12594595551494L818.9227999999999,192.6794469058514L821.0279999999999,170.7888997793198L823.1332,177.04973441362384L825.2384,149.64193922281268L827.3435999999999,203.03192433714867L829.4488,219.51584216952324L831.554,205.94196465611464L833.6591999999999,229.16478735208514L835.7644,191.32863056659704L837.8696,213.25093951821327L839.9748,192.23759767413145L842.0799999999999,210.64639163017276L844.1852,182.74190720915797L846.2904,211.03723418712622L848.3956,209.06972211599353L850.5008,204.25287705659872L852.606,218.2546004354954L854.7112,206.57109913229945L856.8163999999998,173.01426154375082L858.9215999999999,214.25902542471889L861.0267999999999,198.2176609039307L863.1319999999998,202.9197409451008L865.2371999999999,195.96992504596716L867.3423999999999,209.0208276808262L869.4475999999999,208.94908976554876L871.5527999999999,203.4714266359806L873.6579999999999,191.4088956713677L875.7631999999999,187.8598637580872L877.8683999999998,203.93494588136676L879.9735999999999,182.47380924224856L882.0787999999999,192.2344684302807L884.1839999999999,233.77322477102283L886.2891999999999,215.85079354047778L888.3943999999999,223.34689718484879L890.4995999999999,186.1246980428696L892.6047999999998,191.90112572908401L894.7099999999999,191.46663022041326L896.8151999999999,230.66967983543873L898.9203999999999,201.8823183774948L901.0255999999999,191.92436036467552L903.1307999999999,205.0135962367058L905.2359999999999,241.2666294425726L907.3412,191.06280130147937L909.4463999999999,204.1451528370381L911.5515999999999,182.18967390060425L913.6567999999999,198.66146591305736L915.762,229.30450809001925L917.8671999999999,227.08031979203227L919.9723999999999,233.24923288822177L922.0776,206.98689740896225L924.1827999999999,194.04700469970706L926.2879999999999,183.54565349221232L928.3932,222.51170200109482L930.4984,202.5284290015698L932.6035999999999,200.19104030728346L934.7087999999999,195.32420557737353L936.814,170.32428529858592L938.9191999999999,209.14537158608442L941.0243999999999,207.48671588301664L943.1296,182.26547983288768L945.2348,192.2152235805989L947.3399999999999,217.10937541723257" style="fill: none;" fill="none"></path></g><g><path stroke="rgb(238, 51, 119)" stroke-width="2px" d="M109.47039999999998,-105.24725469946857L111.57559999999998,9.13208422064785L113.68079999999999,58.64767429232602L115.78599999999999,106.9100022017956L117.8912,92.15882492065433L119.9964,130.44105541706088L122.10159999999999,144.21856847405436L124.20679999999999,160.2397493720055L126.31199999999998,159.83193066716197L128.41719999999998,153.90537750720983L130.52239999999998,179.20773920416835L132.6276,191.51560288667682L134.7328,180.30516502261165L136.838,178.34602367877963L138.9432,186.72105368971827L141.0484,189.09544569253927L143.1536,193.96321919560435L145.2588,195.44053521752357L147.364,209.50241830945015L149.46919999999997,203.91100716590884L151.57439999999997,205.7879276275635L153.67959999999997,212.73038980364802L155.7848,204.01325520873073L157.89,226.6583021432162L159.99519999999998,222.8510684967041L162.10039999999998,222.61637520790103L164.20559999999998,208.6400769352913L166.3108,214.53541588783267L168.416,220.6523835361004L170.5212,225.4080518782139L172.6264,225.21998432278636L174.7316,211.11804690957072L176.83679999999998,233.45826637744906L178.942,230.95831346511844L181.04719999999998,242.12846231460574L183.15239999999997,238.7585796117783L185.25759999999997,231.11344572901726L187.36279999999996,221.0178792178631L189.468,247.5497990548611L191.57319999999999,232.8727848529816L193.67839999999998,226.569705426693L195.78359999999998,246.97871205210689L197.88879999999997,241.5718871802092L199.99399999999997,242.6901224702597L202.0992,247.51170051097873L204.2044,248.65547825396064L206.3096,240.59579779207706L208.41479999999999,246.73987251520163L210.51999999999998,241.16215181350714L212.6252,224.58787706494334L214.73039999999997,247.38046784698966L216.83559999999997,242.33600941300395L218.94079999999997,249.13589541614058L221.04599999999996,254.333686798811L223.15119999999996,251.06468309462076L225.25639999999999,245.53573948144918L227.36159999999998,251.69416961073878L229.46679999999998,248.24934151768684L231.57199999999997,239.1820054203272L233.67719999999997,265.8486000895501L235.7824,259.01163254678255L237.8876,253.5497329831124L239.9928,253.76768481731418L242.09799999999998,256.908272176981L244.20319999999998,257.24924241006374L246.3084,251.8421828448773L248.41359999999997,250.05370263755322L250.51879999999997,250.85381117463118L252.62399999999997,250.7485903501511L254.72919999999996,246.80930261313915L256.83439999999996,249.6885981112719L258.9396,257.4788897931576L261.04479999999995,252.0470700860024L263.15,252.16856297850612L265.2552,248.01848155260092L267.36039999999997,252.32389082014564L269.4656,255.48947301507002L271.57079999999996,265.6038541048765L273.676,255.20392951369288L275.7812,258.60322710871696L277.8864,257.22679008543497L279.9916,274.6349300891161L282.0968,258.10555998981L284.202,263.5148491412401L286.3072,250.56345646083355L288.4124,253.07557430863383L290.5176,258.6636215150357L292.6228,256.7375328093767L294.728,256.11958537995815L296.8331999999999,264.0971231907606L298.93839999999994,261.4762250036001L301.04359999999997,263.56022317707544L303.14879999999994,269.7244424074889L305.25399999999996,268.08937337994576L307.35919999999993,262.49498945474625L309.46439999999996,273.30996912717825L311.5696,267.80613769590855L313.67479999999995,250.6163015663624L315.78,276.19329352676874L317.88519999999994,267.4414243251085L319.99039999999997,254.30395898222926L322.0956,246.5484019070864L324.20079999999996,258.57635472714907L326.306,275.2269047945738L328.41119999999995,265.01594741642475L330.5164,258.51815079152584L332.6216,272.05909301340586L334.72679999999997,261.26042452454567L336.832,268.5182362496853L338.93719999999996,275.04184913635254L341.0424,261.84078191220766L343.1476,270.1264720112086L345.2528,278.04701846838003L347.358,269.9887852817774L349.4632,254.17084877192977L351.5684,276.2166455090046L353.67359999999996,266.02438536286354L355.7788,258.8318966031075L357.884,265.2288924604655L359.9892,276.25693452358246L362.09439999999995,263.684023886919L364.1995999999999,261.1503142565489L366.30479999999994,267.3650316596031L368.40999999999997,265.84003378450876L370.51519999999994,269.601463124156L372.62039999999996,257.9235553443432L374.72559999999993,263.07616826891905L376.83079999999995,274.0114282518625L378.936,278.73341810703283L381.04119999999995,262.83502091467386L383.14639999999997,270.47941160202026L385.25159999999994,277.13171464204794L387.35679999999996,259.64135375618935L389.462,275.65787990391254L391.56719999999996,283.3147484511137L393.6724,278.8578055500984L395.77759999999995,266.706012904644L397.8828,259.1396968513727L399.98799999999994,273.0497725009918L402.09319999999997,279.0399275422096L404.1984,276.4262657314539L406.30359999999996,281.8531177639961L408.4088,276.9118461459875L410.51399999999995,270.6547274887562L412.6192,273.77454449236393L414.7244,276.31537315249443L416.82959999999997,282.3555569797755L418.9348,272.1244942098856L421.03999999999996,259.89435312151915L423.1452,273.77943393588066L425.2504,289.21204318106174L427.3556,278.9207424670458L429.46079999999995,266.1855023056269L431.5659999999999,278.87227830290794L433.67119999999994,276.30062659084797L435.77639999999997,272.81777818500996L437.88159999999993,273.9009268283844L439.98679999999996,272.3521858155728L442.0919999999999,285.9870835840702L444.19719999999995,293.70598939061165L446.3023999999999,306.40297454595566L448.40759999999995,290.69628265500074L450.51279999999997,293.3110397011042L452.61799999999994,291.0696014463902L454.72319999999996,295.6012941598892L456.82839999999993,300.4647649526596L458.93359999999996,290.62689167261124L461.0388,287.671438202262L463.14399999999995,300.2228744029999L465.2492,294.9312057048083L467.35439999999994,291.1973137110472L469.45959999999997,291.7371865063906L471.5648,302.2080275863409L473.66999999999996,297.6698025763035L475.7752,298.1084834486246L477.88039999999995,295.036348298192L479.9856,298.94004088640213L482.0908,284.35979855060583L484.19599999999997,293.5942753851414L486.3012,290.1654455512762L488.40639999999996,304.507043927908L490.5116,294.07484900951385L492.6168,281.0046624094248L494.7219999999999,294.17115148901945L496.82719999999995,292.6172863394022L498.9323999999999,292.6054734438658L501.03759999999994,299.0075934380293L503.1427999999999,296.75895792245865L505.24799999999993,286.02526035904884L507.35319999999996,295.1068345159292L509.4583999999999,285.7182424217463L511.56359999999995,298.20963625609875L513.6687999999999,291.331988543272L515.774,300.02721843123436L517.8792,304.5861355662346L519.9843999999999,297.76504893600946L522.0895999999999,297.9161522984505L524.1948,296.2324235290289L526.3,295.7396849691868L528.4051999999999,305.2634995132685" style="fill: none;" fill="none"></path></g><g><path style="fill: none;" fill="none" stroke="none" stroke-width="1px"></path></g><g><path stroke="rgb(255, 112, 67)" stroke-width="2px" d="M126.31199999999998,-55.99819797277442L128.41719999999998,59.58801206946376L130.52239999999998,53.83896526694302L132.6276,58.83222144842153L134.7328,71.69317898154262L136.838,39.937064766883886L138.9432,114.79139399528506L141.0484,108.28765180706982L143.1536,84.42834091186528L145.2588,135.58936563134196L147.364,115.86198654770855L149.46919999999997,90.98363739252093L151.57439999999997,73.81410223245626L153.67959999999997,173.90101101994517L155.7848,125.57844516634945L157.89,128.452733874321L159.99519999999998,148.04907587170604L162.10039999999998,96.97621759772306L164.20559999999998,158.02056786417964L166.3108,160.63700687885287L168.416,120.4205907583237L170.5212,164.54856169223788L172.6264,164.91585668921476L174.7316,144.58961856365207L176.83679999999998,169.73856908082965L178.942,190.2673475146294L181.04719999999998,202.25673240423203L183.15239999999997,169.39270940423015L185.25759999999997,159.62665227055552L187.36279999999996,196.0274249017239L189.468,143.69543713331225L191.57319999999999,165.33744406700137L193.67839999999998,173.0532206296921L195.78359999999998,226.6022104471922L197.88879999999997,170.80399838089943L199.99399999999997,206.1061717271805L202.0992,172.56670144200328L204.2044,181.25442114472392L206.3096,175.1744568049908L208.41479999999999,190.98769944906238L210.51999999999998,165.01771357655528L212.6252,170.63947838544848L214.73039999999997,198.38664007186892L216.83559999999997,197.65079838037494L218.94079999999997,237.1073167473078L221.04599999999996,197.55441766977313L223.15119999999996,193.50979176163676L225.25639999999999,174.74739325046542L227.36159999999998,209.89772003889087L229.46679999999998,192.28766557574272L231.57199999999997,154.38673344254497L233.67719999999997,214.4620351195336L235.7824,207.4857771098614L237.8876,217.07127687335014L239.9928,207.42029768228534L242.09799999999998,196.60257992148402L244.20319999999998,199.00826436281204L246.3084,222.0564752519131L248.41359999999997,250.46026964485648L250.51879999999997,203.7755109071732L252.62399999999997,230.11373054981237L254.72919999999996,205.73911142349243L256.83439999999996,222.10349214076996L258.9396,222.22177755832672L261.04479999999995,188.62942305207255L263.15,193.2308979034424L265.2552,224.3954285681248L267.36039999999997,227.9534961730242L269.4656,198.80924445390704L271.57079999999996,221.9700298905373L273.676,190.44031646847728L275.7812,244.58237622678283L277.8864,215.69300141930583L279.9916,222.2080871164799L282.0968,229.72151894867423L284.202,254.29214608669284L286.3072,250.3509416878224L288.4124,226.59286183118823L290.5176,253.46399170160296L292.6228,202.96621021628383L294.728,233.45275108516216L296.8331999999999,221.77366983890536L298.93839999999994,236.2096931487322L301.04359999999997,196.42163139581683L303.14879999999994,246.66289311647418L305.25399999999996,202.91723755002027L307.35919999999993,206.34853166341784L309.46439999999996,197.76102599501613L311.5696,221.07835185527802L313.67479999999995,232.24728812277323L315.78,203.25191017985347L317.88519999999994,250.05061250925067L319.99039999999997,244.05693706870082L322.0956,204.48733565211302L324.20079999999996,220.11485767364505L326.306,211.14832234382632L328.41119999999995,258.07540190219885L330.5164,210.4909464418888L332.6216,230.22814352810389L334.72679999999997,256.8245649039746L336.832,248.4328716695309L338.93719999999996,248.42680875957015L341.0424,224.85933896899226L343.1476,254.52038531005383L345.2528,235.97632978856564L347.358,210.18600162863737L349.4632,290.5256215184927L351.5684,236.88298907876018L353.67359999999996,228.16589359939104L355.7788,250.22827532887462L357.884,250.6060141772032L359.9892,224.4334488809109L362.09439999999995,229.92456775903705L364.1995999999999,223.15288406610492L366.30479999999994,216.28255096077922L368.40999999999997,245.02367784082895L370.51519999999994,226.64981406927112L372.62039999999996,249.26169101893905L374.72559999999993,257.1862272620201L376.83079999999995,243.57796718180182L378.936,233.7660275101662L381.04119999999995,248.50011129677299L383.14639999999997,239.2030104696751L385.25159999999994,231.38451647758484L387.35679999999996,234.49381139874464L389.462,232.12759454548365L391.56719999999996,274.9812591522932L393.6724,223.72357991337776L395.77759999999995,263.1576459556818L397.8828,236.17014732956886L399.98799999999994,224.95900538563734L402.09319999999997,265.88665951788425L404.1984,258.45724788308144L406.30359999999996,236.46715168654922L408.4088,264.2263218462467L410.51399999999995,201.59255039691928L412.6192,241.6064262092114L414.7244,268.6549842059612L416.82959999999997,240.16587880253797L418.9348,243.45091988146308L421.03999999999996,243.7498800158501L423.1452,291.8771419376135L425.2504,236.87313196063045L427.3556,218.33173629641533L429.46079999999995,227.46455182135105L431.5659999999999,297.8069025725126L433.67119999999994,271.89332132041454L435.77639999999997,240.09308476746082L437.88159999999993,241.83118414878848L439.98679999999996,253.3913150131703L442.0919999999999,260.77578288316727L444.19719999999995,281.70882050693035L446.3023999999999,279.0362897962332L448.40759999999995,281.7837658971548L450.51279999999997,289.99912624061113L452.61799999999994,292.59573367238045L454.72319999999996,277.7195822149515L456.82839999999993,305.39340224862104L458.93359999999996,300.2741940021515L461.0388,276.9085213243962L463.14399999999995,278.5203557163477L465.2492,280.6975662410259L467.35439999999994,273.1145087331534L469.45959999999997,328.20027020573616L471.5648,286.3836370110512L473.66999999999996,278.7435099184513L475.7752,275.4840112924576L477.88039999999995,303.71964794397354L479.9856,280.64487759768963L482.0908,277.3281920403242L484.19599999999997,294.4448038637638L486.3012,299.8404416888952L488.40639999999996,265.4996894001961L490.5116,267.7987057417632L492.6168,247.99567718803883L494.7219999999999,300.4642173349858L496.82719999999995,279.3643910139799L498.9323999999999,302.76608911156654L501.03759999999994,286.9058295786381L503.1427999999999,316.6327465027571L505.24799999999993,299.1749297529459L507.35319999999996,279.28271774947643L509.4583999999999,310.63367311656475L511.56359999999995,296.01142068207264L513.6687999999999,282.0966902822256L515.774,286.45873886346817L517.8792,281.6532373130322L519.9843999999999,268.8534956127406L522.0895999999999,295.83035480976105L524.1948,276.02153715491295L526.3,290.0518148839474L528.4051999999999,281.4456510990858" style="fill: none;" fill="none"></path></g></g></g></g></g></g><g transform="translate(60, 378)" clip-path="url(#clip_1)"><clipPath id="clip_1"><rect width="1052" height="22"></rect></clipPath><g><g><line x1="0" y1="0" x2="0" y2="5" style="visibility: inherit;" fill="rgb(0, 0, 0)" stroke="rgb(204, 204, 204)" stroke-width="1px"></line><line x1="105.25999999999999" y1="0" x2="105.25999999999999" y2="5" style="visibility: inherit;" fill="rgb(0, 0, 0)" stroke="rgb(204, 204, 204)" stroke-width="1px"></line><line x1="210.51999999999998" y1="0" x2="210.51999999999998" y2="5" style="visibility: inherit;" fill="rgb(0, 0, 0)" stroke="rgb(204, 204, 204)" stroke-width="1px"></line><line x1="315.78" y1="0" x2="315.78" y2="5" style="visibility: inherit;" fill="rgb(0, 0, 0)" stroke="rgb(204, 204, 204)" stroke-width="1px"></line><line x1="421.03999999999996" y1="0" x2="421.03999999999996" y2="5" style="visibility: inherit;" fill="rgb(0, 0, 0)" stroke="rgb(204, 204, 204)" stroke-width="1px"></line><line x1="526.3" y1="0" x2="526.3" y2="5" style="visibility: inherit;" fill="rgb(0, 0, 0)" stroke="rgb(204, 204, 204)" stroke-width="1px"></line><line x1="631.56" y1="0" x2="631.56" y2="5" style="visibility: inherit;" fill="rgb(0, 0, 0)" stroke="rgb(204, 204, 204)" stroke-width="1px"></line><line x1="736.8199999999999" y1="0" x2="736.8199999999999" y2="5" style="visibility: inherit;" fill="rgb(0, 0, 0)" stroke="rgb(204, 204, 204)" stroke-width="1px"></line><line x1="842.0799999999999" y1="0" x2="842.0799999999999" y2="5" style="visibility: inherit;" fill="rgb(0, 0, 0)" stroke="rgb(204, 204, 204)" stroke-width="1px"></line><line x1="947.3399999999999" y1="0" x2="947.3399999999999" y2="5" style="visibility: inherit;" fill="rgb(0, 0, 0)" stroke="rgb(204, 204, 204)" stroke-width="1px"></line><line x1="1052.6" y1="0" x2="1052.6" y2="5" style="visibility: inherit;" fill="rgb(0, 0, 0)" stroke="rgb(204, 204, 204)" stroke-width="1px"></line></g><g transform="translate(0, 8)"><text x="0" y="0" dx="0em" dy="0.95em" style="text-anchor: middle; visibility: hidden; font-family: Roboto, sans-serif; font-size: 12px; font-weight: 200;" fill="rgb(50, 49, 63)" stroke="none" stroke-width="1px">-50</text><text x="105.25999999999999" y="0" dx="0em" dy="0.95em" style="text-anchor: middle; visibility: inherit; font-family: Roboto, sans-serif; font-size: 12px; font-weight: 200;" fill="rgb(50, 49, 63)" stroke="none" stroke-width="1px">0</text><text x="210.51999999999998" y="0" dx="0em" dy="0.95em" style="text-anchor: middle; visibility: inherit; font-family: Roboto, sans-serif; font-size: 12px; font-weight: 200;" fill="rgb(50, 49, 63)" stroke="none" stroke-width="1px">50</text><text x="315.78" y="0" dx="0em" dy="0.95em" style="text-anchor: middle; visibility: inherit; font-family: Roboto, sans-serif; font-size: 12px; font-weight: 200;" fill="rgb(50, 49, 63)" stroke="none" stroke-width="1px">100</text><text x="421.03999999999996" y="0" dx="0em" dy="0.95em" style="text-anchor: middle; visibility: inherit; font-family: Roboto, sans-serif; font-size: 12px; font-weight: 200;" fill="rgb(50, 49, 63)" stroke="none" stroke-width="1px">150</text><text x="526.3" y="0" dx="0em" dy="0.95em" style="text-anchor: middle; visibility: inherit; font-family: Roboto, sans-serif; font-size: 12px; font-weight: 200;" fill="rgb(50, 49, 63)" stroke="none" stroke-width="1px">200</text><text x="631.56" y="0" dx="0em" dy="0.95em" style="text-anchor: middle; visibility: inherit; font-family: Roboto, sans-serif; font-size: 12px; font-weight: 200;" fill="rgb(50, 49, 63)" stroke="none" stroke-width="1px">250</text><text x="736.8199999999999" y="0" dx="0em" dy="0.95em" style="text-anchor: middle; visibility: inherit; font-family: Roboto, sans-serif; font-size: 12px; font-weight: 200;" fill="rgb(50, 49, 63)" stroke="none" stroke-width="1px">300</text><text x="842.0799999999999" y="0" dx="0em" dy="0.95em" style="text-anchor: middle; visibility: inherit; font-family: Roboto, sans-serif; font-size: 12px; font-weight: 200;" fill="rgb(50, 49, 63)" stroke="none" stroke-width="1px">350</text><text x="947.3399999999999" y="0" dx="0em" dy="0.95em" style="text-anchor: middle; visibility: inherit; font-family: Roboto, sans-serif; font-size: 12px; font-weight: 200;" fill="rgb(50, 49, 63)" stroke="none" stroke-width="1px">400</text><text x="1052.6" y="0" dx="0em" dy="0.95em" style="text-anchor: middle; visibility: hidden; font-family: Roboto, sans-serif; font-size: 12px; font-weight: 200;" fill="rgb(50, 49, 63)" stroke="none" stroke-width="1px">450</text></g><line x1="0" y1="0" x2="1052.6" y2="0" fill="rgb(0, 0, 0)" stroke="rgb(204, 204, 204)" stroke-width="1px"></line></g></g></g></g></svg>